<svg width="30" height="31" viewBox="0 0 30 31" fill="none" xmlns="http://www.w3.org/2000/svg">
<g clip-path="url(#clip0_1_1004)">
<path d="M20.6455 12.1213C20.6653 12.196 20.6753 12.3175 20.6753 12.4856C20.6753 13.4755 20.4768 14.4654 20.0799 15.4554C19.683 16.4266 19.1173 17.3232 18.383 18.1451C17.6687 18.9482 16.7359 19.602 15.5848 20.1063C14.4338 20.6106 13.1637 20.8627 11.7745 20.8627C10.0281 20.8627 8.43054 20.4237 6.98181 19.5459C7.20011 19.5646 7.44818 19.5739 7.72602 19.5739C9.17474 19.5739 10.4746 19.1537 11.6256 18.3132C10.9311 18.3132 10.3159 18.1263 9.78003 17.7528C9.26405 17.3606 8.90683 16.8749 8.70837 16.2959C8.90683 16.3146 9.09536 16.3239 9.27397 16.3239C9.55181 16.3239 9.82964 16.2959 10.1075 16.2399C9.63119 16.1465 9.20452 15.9597 8.82744 15.6795C8.45038 15.3994 8.1527 15.0632 7.9344 14.6709C7.7161 14.2599 7.60695 13.821 7.60695 13.3541V13.298C8.04355 13.5408 8.50992 13.6716 9.00605 13.6903C8.07332 13.0925 7.60695 12.2708 7.60695 11.2248C7.60695 10.7018 7.75579 10.2068 8.05347 9.73985C8.82744 10.6551 9.77011 11.3835 10.8815 11.9252C12.0127 12.4668 13.2133 12.7657 14.4834 12.8218C14.4438 12.5976 14.4239 12.3735 14.4239 12.1494C14.4239 11.3461 14.7216 10.6551 15.3169 10.0761C15.9321 9.49703 16.6664 9.20752 17.5198 9.20752C18.4327 9.20752 19.1968 9.51571 19.812 10.1321C20.5264 10.0013 21.1912 9.76786 21.8064 9.43166C21.5683 10.1227 21.1119 10.6644 20.4371 11.0566C21.0324 10.9819 21.6278 10.8232 22.2232 10.5804C21.7866 11.178 21.2607 11.6917 20.6455 12.1213Z" fill="white"/>
</g>
<rect x="0.5" y="0.580078" width="29" height="29" rx="5.5" stroke="white"/>
<defs>
<clipPath id="clip0_1_1004">
<rect width="28" height="26" fill="white" transform="translate(1 2.08008)"/>
</clipPath>
</defs>
</svg>
