<svg width="30" height="31" viewBox="0 0 30 31" fill="none" xmlns="http://www.w3.org/2000/svg">
<g clip-path="url(#clip0_1_1008)">
<path d="M12.355 12.9748C12.99 12.3396 13.7558 12.0222 14.6524 12.0222C15.5489 12.0222 16.3055 12.3396 16.9218 12.9748C17.5569 13.5911 17.8744 14.3476 17.8744 15.2441C17.8744 16.1407 17.5569 16.9065 16.9218 17.5415C16.3055 18.1579 15.5489 18.4661 14.6524 18.4661C13.7558 18.4661 12.99 18.1579 12.355 17.5415C11.7386 16.9065 11.4305 16.1407 11.4305 15.2441C11.4305 14.3476 11.7386 13.5911 12.355 12.9748ZM13.1675 16.7291C13.5784 17.14 14.0734 17.3455 14.6524 17.3455C15.2314 17.3455 15.7264 17.14 16.1373 16.7291C16.5482 16.3181 16.7537 15.8231 16.7537 15.2441C16.7537 14.6651 16.5482 14.1701 16.1373 13.7592C15.7264 13.3483 15.2314 13.1429 14.6524 13.1429C14.0734 13.1429 13.5784 13.3483 13.1675 13.7592C12.7565 14.1701 12.5511 14.6651 12.5511 15.2441C12.5511 15.8231 12.7565 16.3181 13.1675 16.7291ZM18.5188 11.3777C18.6682 11.5085 18.7429 11.6766 18.7429 11.882C18.7429 12.0875 18.6682 12.265 18.5188 12.4144C18.3881 12.5638 18.2199 12.6386 18.0145 12.6386C17.809 12.6386 17.6315 12.5638 17.4822 12.4144C17.3327 12.265 17.258 12.0875 17.258 11.882C17.258 11.6766 17.3327 11.5085 17.4822 11.3777C17.6315 11.2283 17.809 11.1536 18.0145 11.1536C18.2199 11.1536 18.3881 11.2283 18.5188 11.3777ZM20.9003 12.6665C20.9189 13.1708 20.9283 14.03 20.9283 15.2441C20.9283 16.4582 20.9189 17.3174 20.9003 17.8217C20.8442 18.961 20.4986 19.8483 19.8636 20.4834C19.2472 21.0998 18.3693 21.4266 17.23 21.4639C16.7257 21.5013 15.8665 21.52 14.6524 21.52C13.4383 21.52 12.5791 21.5013 12.0748 21.4639C10.9354 21.4079 10.0576 21.0717 9.44118 20.4553C9.19837 20.2312 9.00225 19.9697 8.85282 19.6708C8.7034 19.372 8.59133 19.0825 8.51661 18.8023C8.46058 18.5222 8.43256 18.1953 8.43256 17.8217C8.39521 17.3174 8.37653 16.4582 8.37653 15.2441C8.37653 14.03 8.39521 13.1615 8.43256 12.6386C8.48859 11.5179 8.8248 10.6493 9.44118 10.0329C10.0576 9.39785 10.9354 9.05231 12.0748 8.99628C12.5791 8.97759 13.4383 8.96826 14.6524 8.96826C15.8665 8.96826 16.7257 8.97759 17.23 8.99628C18.3693 9.05231 19.2472 9.39785 19.8636 10.0329C20.4986 10.6493 20.8442 11.5272 20.9003 12.6665ZM19.5555 18.9424C19.6115 18.7929 19.6581 18.6062 19.6955 18.382C19.7329 18.1393 19.7609 17.8591 19.7796 17.5415C19.7982 17.2053 19.8076 16.9345 19.8076 16.7291C19.8076 16.5236 19.8076 16.2341 19.8076 15.8605C19.8076 15.4869 19.8076 15.2815 19.8076 15.2441C19.8076 15.1881 19.8076 14.9826 19.8076 14.6277C19.8076 14.2541 19.8076 13.9646 19.8076 13.7592C19.8076 13.5538 19.7982 13.2922 19.7796 12.9748C19.7609 12.6386 19.7329 12.3584 19.6955 12.1342C19.6581 11.8914 19.6115 11.6953 19.5555 11.5458C19.3313 10.9668 18.9297 10.5652 18.3507 10.3411C18.2012 10.2851 18.0051 10.2384 17.7623 10.201C17.5382 10.1637 17.258 10.1356 16.9218 10.117C16.6043 10.0983 16.3427 10.089 16.1373 10.089C15.9505 10.089 15.661 10.089 15.2688 10.089C14.8952 10.089 14.6898 10.089 14.6524 10.089C14.615 10.089 14.4096 10.089 14.036 10.089C13.6624 10.089 13.3729 10.089 13.1675 10.089C12.962 10.089 12.6912 10.0983 12.355 10.117C12.0374 10.1356 11.7572 10.1637 11.5145 10.201C11.2903 10.2384 11.1036 10.2851 10.9541 10.3411C10.3751 10.5652 9.97351 10.9668 9.74937 11.5458C9.69334 11.6953 9.64664 11.8914 9.60928 12.1342C9.57193 12.3584 9.54392 12.6386 9.52523 12.9748C9.50656 13.2922 9.49722 13.5538 9.49722 13.7592C9.49722 13.946 9.49722 14.2355 9.49722 14.6277C9.49722 15.0013 9.49722 15.2067 9.49722 15.2441C9.49722 15.3188 9.49722 15.4963 9.49722 15.7765C9.49722 16.0379 9.49722 16.2621 9.49722 16.4489C9.49722 16.617 9.49722 16.8411 9.49722 17.1213C9.5159 17.4015 9.53457 17.6443 9.55325 17.8498C9.57193 18.0365 9.59995 18.2326 9.6373 18.4381C9.67466 18.6436 9.71202 18.8117 9.74937 18.9424C9.99219 19.5214 10.3938 19.923 10.9541 20.1472C11.1036 20.2032 11.2903 20.2498 11.5145 20.2872C11.7572 20.3246 12.0374 20.3526 12.355 20.3713C12.6912 20.39 12.9527 20.3993 13.1395 20.3993C13.3449 20.3993 13.6344 20.3993 14.008 20.3993C14.4003 20.3993 14.615 20.3993 14.6524 20.3993C14.7084 20.3993 14.9139 20.3993 15.2688 20.3993C15.6424 20.3993 15.9319 20.3993 16.1373 20.3993C16.3427 20.3993 16.6043 20.39 16.9218 20.3713C17.258 20.3526 17.5382 20.3246 17.7623 20.2872C18.0051 20.2498 18.2012 20.2032 18.3507 20.1472C18.9297 19.9043 19.3313 19.5027 19.5555 18.9424Z" fill="white"/>
</g>
<rect x="0.5" y="0.580078" width="29" height="29" rx="5.5" stroke="white"/>
<defs>
<clipPath id="clip0_1_1008">
<rect width="28" height="26" fill="white" transform="translate(1 2.08008)"/>
</clipPath>
</defs>
</svg>
