<svg width="30" height="31" viewBox="0 0 30 31" fill="none" xmlns="http://www.w3.org/2000/svg">
<g clip-path="url(#clip0_1_1008)">
<path d="M12.355 13.5646C12.99 12.9295 13.7558 12.612 14.6524 12.612C15.5489 12.612 16.3055 12.9295 16.9218 13.5646C17.5569 14.181 17.8744 14.9374 17.8744 15.834C17.8744 16.7305 17.5569 17.4963 16.9218 18.1314C16.3055 18.7478 15.5489 19.056 14.6524 19.056C13.7558 19.056 12.99 18.7478 12.355 18.1314C11.7386 17.4963 11.4305 16.7305 11.4305 15.834C11.4305 14.9374 11.7386 14.181 12.355 13.5646ZM13.1675 17.3189C13.5784 17.7298 14.0734 17.9353 14.6524 17.9353C15.2314 17.9353 15.7264 17.7298 16.1373 17.3189C16.5482 16.9079 16.7537 16.413 16.7537 15.834C16.7537 15.255 16.5482 14.76 16.1373 14.3491C15.7264 13.9381 15.2314 13.7327 14.6524 13.7327C14.0734 13.7327 13.5784 13.9381 13.1675 14.3491C12.7565 14.76 12.5511 15.255 12.5511 15.834C12.5511 16.413 12.7565 16.9079 13.1675 17.3189ZM18.5188 11.9676C18.6682 12.0983 18.7429 12.2664 18.7429 12.4719C18.7429 12.6774 18.6682 12.8548 18.5188 13.0043C18.3881 13.1536 18.2199 13.2284 18.0145 13.2284C17.809 13.2284 17.6315 13.1536 17.4822 13.0043C17.3327 12.8548 17.258 12.6774 17.258 12.4719C17.258 12.2664 17.3327 12.0983 17.4822 11.9676C17.6315 11.8181 17.809 11.7434 18.0145 11.7434C18.2199 11.7434 18.3881 11.8181 18.5188 11.9676ZM20.9003 13.2564C20.9189 13.7607 20.9283 14.6198 20.9283 15.834C20.9283 17.0481 20.9189 17.9072 20.9003 18.4115C20.8442 19.5509 20.4986 20.4381 19.8636 21.0732C19.2472 21.6896 18.3693 22.0164 17.23 22.0538C16.7257 22.0912 15.8665 22.1098 14.6524 22.1098C13.4383 22.1098 12.5791 22.0912 12.0748 22.0538C10.9354 21.9978 10.0576 21.6615 9.44118 21.0452C9.19837 20.821 9.00225 20.5595 8.85282 20.2607C8.7034 19.9619 8.59133 19.6724 8.51661 19.3922C8.46058 19.112 8.43256 18.7851 8.43256 18.4115C8.39521 17.9072 8.37653 17.0481 8.37653 15.834C8.37653 14.6198 8.39521 13.7514 8.43256 13.2284C8.48859 12.1077 8.8248 11.2391 9.44118 10.6228C10.0576 9.9877 10.9354 9.64216 12.0748 9.58612C12.5791 9.56744 13.4383 9.55811 14.6524 9.55811C15.8665 9.55811 16.7257 9.56744 17.23 9.58612C18.3693 9.64216 19.2472 9.9877 19.8636 10.6228C20.4986 11.2391 20.8442 12.117 20.9003 13.2564ZM19.5555 19.5322C19.6115 19.3828 19.6581 19.196 19.6955 18.9719C19.7329 18.7291 19.7609 18.4489 19.7796 18.1314C19.7982 17.7952 19.8076 17.5243 19.8076 17.3189C19.8076 17.1134 19.8076 16.8239 19.8076 16.4503C19.8076 16.0767 19.8076 15.8713 19.8076 15.834C19.8076 15.7779 19.8076 15.5724 19.8076 15.2176C19.8076 14.844 19.8076 14.5545 19.8076 14.3491C19.8076 14.1436 19.7982 13.8821 19.7796 13.5646C19.7609 13.2284 19.7329 12.9482 19.6955 12.7241C19.6581 12.4812 19.6115 12.2851 19.5555 12.1357C19.3313 11.5567 18.9297 11.1551 18.3507 10.931C18.2012 10.8749 18.0051 10.8282 17.7623 10.7909C17.5382 10.7535 17.258 10.7255 16.9218 10.7068C16.6043 10.6881 16.3427 10.6788 16.1373 10.6788C15.9505 10.6788 15.661 10.6788 15.2688 10.6788C14.8952 10.6788 14.6898 10.6788 14.6524 10.6788C14.615 10.6788 14.4096 10.6788 14.036 10.6788C13.6624 10.6788 13.3729 10.6788 13.1675 10.6788C12.962 10.6788 12.6912 10.6881 12.355 10.7068C12.0374 10.7255 11.7572 10.7535 11.5145 10.7909C11.2903 10.8282 11.1036 10.8749 10.9541 10.931C10.3751 11.1551 9.97351 11.5567 9.74937 12.1357C9.69334 12.2851 9.64664 12.4812 9.60928 12.7241C9.57193 12.9482 9.54392 13.2284 9.52523 13.5646C9.50656 13.8821 9.49722 14.1436 9.49722 14.3491C9.49722 14.5358 9.49722 14.8253 9.49722 15.2176C9.49722 15.5912 9.49722 15.7966 9.49722 15.834C9.49722 15.9086 9.49722 16.0862 9.49722 16.3663C9.49722 16.6278 9.49722 16.8519 9.49722 17.0387C9.49722 17.2068 9.49722 17.431 9.49722 17.7112C9.5159 17.9913 9.53457 18.2341 9.55325 18.4396C9.57193 18.6264 9.59995 18.8224 9.6373 19.0279C9.67466 19.2334 9.71202 19.4015 9.74937 19.5322C9.99219 20.1112 10.3938 20.5129 10.9541 20.737C11.1036 20.7931 11.2903 20.8397 11.5145 20.8771C11.7572 20.9144 12.0374 20.9424 12.355 20.9612C12.6912 20.9798 12.9527 20.9891 13.1395 20.9891C13.3449 20.9891 13.6344 20.9891 14.008 20.9891C14.4003 20.9891 14.615 20.9891 14.6524 20.9891C14.7084 20.9891 14.9139 20.9891 15.2688 20.9891C15.6424 20.9891 15.9319 20.9891 16.1373 20.9891C16.3427 20.9891 16.6043 20.9798 16.9218 20.9612C17.258 20.9424 17.5382 20.9144 17.7623 20.8771C18.0051 20.8397 18.2012 20.7931 18.3507 20.737C18.9297 20.4941 19.3313 20.0926 19.5555 19.5322Z" fill="white"/>
</g>
<rect x="0.5" y="1.16992" width="29" height="29" rx="5.5" stroke="white"/>
<defs>
<clipPath id="clip0_1_1008">
<rect width="28" height="26" fill="white" transform="translate(1 2.66992)"/>
</clipPath>
</defs>
</svg>
