<svg width="30" height="31" viewBox="0 0 30 31" fill="none" xmlns="http://www.w3.org/2000/svg">
<g clip-path="url(#clip0_1_1004)">
<path d="M20.6455 12.7111C20.6653 12.7858 20.6753 12.9073 20.6753 13.0754C20.6753 14.0653 20.4768 15.0553 20.0799 16.0452C19.683 17.0165 19.1173 17.913 18.383 18.7349C17.6687 19.538 16.7359 20.1918 15.5848 20.6961C14.4338 21.2004 13.1637 21.4525 11.7745 21.4525C10.0281 21.4525 8.43054 21.0136 6.98181 20.1358C7.20011 20.1544 7.44818 20.1637 7.72602 20.1637C9.17474 20.1637 10.4746 19.7435 11.6256 18.903C10.9311 18.903 10.3159 18.7162 9.78003 18.3427C9.26405 17.9504 8.90683 17.4648 8.70837 16.8858C8.90683 16.9044 9.09536 16.9137 9.27397 16.9137C9.55181 16.9137 9.82964 16.8858 10.1075 16.8297C9.63119 16.7363 9.20452 16.5496 8.82744 16.2694C8.45038 15.9892 8.1527 15.653 7.9344 15.2608C7.7161 14.8498 7.60695 14.4108 7.60695 13.9439V13.8879C8.04355 14.1307 8.50992 14.2615 9.00605 14.2801C8.07332 13.6824 7.60695 12.8606 7.60695 11.8146C7.60695 11.2916 7.75579 10.7966 8.05347 10.3297C8.82744 11.2449 9.77011 11.9734 10.8815 12.5151C12.0127 13.0567 13.2133 13.3556 14.4834 13.4116C14.4438 13.1875 14.4239 12.9633 14.4239 12.7392C14.4239 11.936 14.7216 11.2449 15.3169 10.6659C15.9321 10.0869 16.6664 9.79736 17.5198 9.79736C18.4327 9.79736 19.1968 10.1056 19.812 10.7219C20.5264 10.5912 21.1912 10.3577 21.8064 10.0215C21.5683 10.7126 21.1119 11.2543 20.4371 11.6465C21.0324 11.5718 21.6278 11.413 22.2232 11.1702C21.7866 11.7679 21.2607 12.2815 20.6455 12.7111Z" fill="white"/>
</g>
<rect x="0.5" y="1.16992" width="29" height="29" rx="5.5" stroke="white"/>
<defs>
<clipPath id="clip0_1_1004">
<rect width="28" height="26" fill="white" transform="translate(1 2.66992)"/>
</clipPath>
</defs>
</svg>
