<svg width="30" height="31" viewBox="0 0 30 31" fill="none" xmlns="http://www.w3.org/2000/svg">
<g clip-path="url(#clip0_1_1012)">
<mask id="mask0_1_1012" style="mask-type:luminance" maskUnits="userSpaceOnUse" x="9" y="8" width="13" height="14">
<path d="M21.9255 8.50244H9.37378V21.0542H21.9255V8.50244Z" fill="white"/>
</mask>
<g mask="url(#mask0_1_1012)">
<path d="M11.9783 10.3324C11.9783 11.0546 11.3977 11.6398 10.6812 11.6398C9.96476 11.6398 9.38424 11.0546 9.38424 10.3324C9.38424 9.61065 9.96476 9.0249 10.6812 9.0249C11.3977 9.0249 11.9783 9.61065 11.9783 10.3324ZM11.9887 12.6858H9.37378V21.0536H11.9887V12.6858ZM16.1632 12.6858H13.565V21.0536H16.1637V16.661C16.1637 14.2187 19.3168 14.0189 19.3168 16.661V21.0536H21.9255V15.7552C21.9255 11.6341 17.2594 11.7841 16.1632 13.8129V12.6858Z" fill="white"/>
</g>
</g>
<rect x="0.5" y="1.16992" width="29" height="29" rx="5.5" stroke="white"/>
<defs>
<clipPath id="clip0_1_1012">
<rect width="28" height="26" fill="white" transform="translate(1 2.66992)"/>
</clipPath>
</defs>
</svg>
