<svg width="25" height="24" viewBox="0 0 25 24" fill="none" xmlns="http://www.w3.org/2000/svg">
<path d="M20.0194 4.88128L19.2834 4.14533C19.0755 3.93734 18.6915 3.96935 18.4515 4.2573L15.8913 6.80126C14.7392 6.30532 13.4753 6.06532 12.1473 6.06532C8.19515 6.08126 4.77138 8.38523 3.12326 11.6974C3.02723 11.9054 3.02723 12.1614 3.12326 12.3373C3.89119 13.9054 5.04326 15.2014 6.48327 16.1773L4.38727 18.3053C4.14727 18.5453 4.11526 18.9293 4.27531 19.1373L5.01125 19.8732C5.21925 20.0812 5.60323 20.0492 5.84323 19.7613L19.8911 5.71339C20.1952 5.47352 20.2272 5.08956 20.0192 4.88155L20.0194 4.88128ZM12.9953 9.71316C12.7233 9.64914 12.4353 9.56919 12.1633 9.56919C10.8032 9.56919 9.71535 10.6572 9.71535 12.0171C9.71535 12.2891 9.77937 12.5771 9.85932 12.8491L8.78721 13.9051C8.46725 13.3452 8.29126 12.7211 8.29126 12.0172C8.29126 9.88918 10.0033 8.17715 12.1313 8.17715C12.8353 8.17715 13.4593 8.35314 14.0193 8.6731L12.9953 9.71316Z" fill="#666666" fill-opacity="0.8"/>
<path d="M21.1714 11.6974C20.6114 10.5773 19.8753 9.56939 18.9634 8.75336L15.9874 11.6974V12.0173C15.9874 14.1453 14.2754 15.8573 12.1474 15.8573H11.8274L9.93945 17.7453C10.6435 17.8893 11.3795 17.9853 12.0995 17.9853C16.0516 17.9853 19.4754 15.6813 21.1235 12.3532C21.2675 12.1291 21.2675 11.9052 21.1714 11.6972L21.1714 11.6974Z" fill="#666666" fill-opacity="0.8"/>
</svg>
