<svg width="698" height="1022" viewBox="0 0 698 1022" fill="none" xmlns="http://www.w3.org/2000/svg">
<rect width="698" height="1022" fill="#B6D6EE"/>
<path d="M223 452V617H495.845V452C495.845 408.239 481.472 366.271 455.887 335.327C430.304 304.384 395.604 287 359.423 287C323.241 287 288.542 304.384 262.957 335.327C237.373 366.271 223 408.239 223 452Z" fill="#CAD4EF"/>
<path d="M223 452V617H495.845V452C495.845 408.239 481.472 366.271 455.887 335.327C430.304 304.384 395.604 287 359.423 287C323.241 287 288.542 304.384 262.957 335.327C237.373 366.271 223 408.239 223 452Z" stroke="#1D191F" stroke-width="1.512" stroke-miterlimit="10"/>
<path d="M301.912 557.613C301.912 557.613 310.189 557.722 316.298 555.363" stroke="#221F1F" stroke-width="2.5" stroke-miterlimit="10"/>
<path d="M378.898 393.135C378.154 392.671 377.345 392.288 376.49 391.997C375.584 391.684 374.606 391.553 373.631 391.614C372.641 391.701 371.693 392.001 370.874 392.488C370.127 392.935 369.444 393.456 368.84 394.04C368.75 394.113 370.044 395.075 370.092 395.013C370.602 394.511 371.177 394.061 371.807 393.673C372.391 393.329 373.066 393.116 373.77 393.052C374.488 393.014 375.208 393.113 375.876 393.342C376.592 393.596 377.27 393.921 377.899 394.309C378.304 393.968 378.642 393.571 378.898 393.135Z" fill="#232020"/>
<path d="M333.754 421.634L337.528 420.082C338.786 419.564 340.038 419.047 341.272 418.53C342.506 418.012 343.68 417.34 344.944 416.921C346.243 416.461 347.586 416.099 348.958 415.84L349.049 415.974C348.133 416.925 347.031 417.73 345.792 418.354C344.548 418.922 343.239 419.378 341.886 419.714C340.57 420.121 339.241 420.495 337.901 420.837C336.559 421.168 335.223 421.504 333.868 421.794L333.754 421.634Z" fill="#221F1F"/>
<path d="M411.793 371.589C411.637 371.651 408.332 370.187 406.009 370.627C402.199 371.346 400.17 373.627 398.707 376.317C397.437 378.625 396.245 380.973 394.897 383.244C393.928 384.894 392.965 387.693 393.693 389.69C394.506 391.935 396.878 391.966 399.038 392.168C404.347 392.685 409.488 394.915 415.242 393.445C416.639 393.089 425.758 392.457 425.89 390.859C426.516 383.037 423.079 367.027 411.793 371.589ZM415.615 385.412C415.284 385.65 415.086 386.379 414.899 386.72C413.015 391.49 407.393 393.378 403.836 389.157C401.482 386.364 401.428 383.146 401.428 379.845C401.428 379.845 407.357 380.171 410.656 376.529C410.656 376.529 413.382 381.589 415.928 380.999C416.303 380.922 416.693 380.922 417.067 380.997C417.442 381.072 417.791 381.221 418.087 381.433C418.384 381.644 418.618 381.911 418.773 382.214C418.928 382.517 418.999 382.847 418.98 383.177C418.974 385.091 416.819 384.548 415.615 385.412Z" fill="#221F1F"/>
<path d="M415.345 385.132C415.262 385.295 415.233 385.474 415.26 385.65C415.26 385.794 415.26 385.924 415.296 386.053C415.335 386.316 415.335 386.582 415.296 386.845C415.261 387.1 415.2 387.353 415.116 387.6C415.025 387.86 414.904 388.111 414.755 388.35C414.298 389.201 413.641 389.963 412.826 390.586C412.011 391.209 411.055 391.68 410.018 391.971C408.909 392.247 407.729 392.218 406.641 391.888C405.591 391.543 404.65 390.99 403.896 390.274C402.676 389.09 401.807 387.671 401.362 386.136C400.957 384.651 400.755 383.13 400.76 381.604V380.735V379.209C401.181 379.209 401.609 379.245 402.018 379.245H402.421H402.728C403.138 379.22 403.541 379.173 403.932 379.116C404.733 378.984 405.517 378.784 406.274 378.521C407.025 378.277 407.737 377.952 408.392 377.554L408.874 377.243L409.307 376.897L409.422 376.809H409.452C409.477 376.79 409.501 376.769 409.524 376.747L409.626 376.648L410.036 376.25L410.842 375.417L411.402 376.452C411.583 376.762 411.841 377.166 411.902 377.259C412.118 377.58 412.341 377.895 412.576 378.2C413.019 378.8 413.547 379.351 414.147 379.84C414.407 380.053 414.706 380.227 415.032 380.358C415.162 380.404 415.3 380.434 415.441 380.446C415.505 380.451 415.569 380.451 415.633 380.446L415.916 380.399C416.465 380.322 417.027 380.361 417.554 380.513C418.095 380.663 418.577 380.941 418.944 381.315C419.29 381.67 419.524 382.096 419.624 382.551C419.742 382.994 419.742 383.453 419.624 383.896C419.555 384.159 419.419 384.406 419.227 384.62C419.033 384.83 418.794 385.006 418.523 385.138C418.096 385.318 417.648 385.459 417.186 385.557C416.934 385.624 416.693 385.712 416.506 385.758C416.325 385.821 416.122 385.821 415.94 385.758C415.814 385.691 415.748 385.551 415.886 385.319C415.958 385.231 416.031 385.081 416.157 385.039C416.725 384.856 417.271 384.628 417.788 384.356C417.972 384.247 418.119 384.099 418.216 383.927C418.292 383.762 418.335 383.587 418.342 383.41C418.367 383.194 418.353 382.975 418.3 382.763C418.257 382.542 418.163 382.331 418.023 382.142C417.885 381.983 417.712 381.849 417.514 381.748C417.316 381.647 417.096 381.58 416.867 381.553C416.638 381.519 416.404 381.519 416.175 381.553H416.097L415.94 381.584C415.834 381.604 415.725 381.616 415.615 381.62C415.394 381.632 415.171 381.618 414.953 381.578C414.208 381.411 413.526 381.077 412.979 380.611C412.204 379.964 411.539 379.225 411.005 378.418L410.74 378.014L410.613 377.812C410.58 377.764 410.55 377.714 410.523 377.662C410.527 377.633 410.527 377.604 410.523 377.574C410.523 377.574 410.487 377.574 410.457 377.574L410.276 377.709L409.915 377.983C409.213 378.487 408.438 378.911 407.61 379.245C406.804 379.597 405.956 379.875 405.082 380.073C404.532 380.185 403.975 380.27 403.414 380.327C403.113 380.358 402.812 380.383 402.469 380.399H402.084C402.081 380.439 402.081 380.478 402.084 380.518V381.108C402.084 381.563 402.084 382.044 402.138 382.541C402.189 383.599 402.363 384.651 402.656 385.681C402.979 386.765 403.523 387.791 404.263 388.712C404.949 389.611 405.935 390.311 407.092 390.719C408.147 391.027 409.298 390.985 410.318 390.6C411.202 390.268 411.985 389.765 412.606 389.131L412.991 388.728L413.292 388.334C413.462 388.121 413.613 387.896 413.743 387.662C413.887 387.435 414.012 387.2 414.117 386.958C414.177 386.839 414.237 386.726 414.309 386.607C414.381 386.488 414.406 386.451 414.436 386.4L414.544 386.208C414.628 386.069 414.713 385.919 414.821 385.743C414.947 385.512 415.125 385.304 415.345 385.132Z" fill="#221F1F"/>
<path d="M411.787 371.579C411.754 371.529 411.735 371.473 411.729 371.416C411.724 371.359 411.734 371.302 411.757 371.248C411.757 371.248 411.805 371.248 411.823 371.248H411.751C411.691 371.251 411.631 371.251 411.57 371.248C411.45 371.248 411.324 371.248 411.191 371.248C410.938 371.248 410.686 371.248 410.427 371.206L408.904 371.082C407.937 370.948 406.95 370.966 405.991 371.134C404.358 371.493 402.888 372.264 401.771 373.348C400.642 374.465 399.739 375.736 399.099 377.109L396.829 381.304L395.692 383.399C395.311 384.053 394.997 384.733 394.753 385.432C394.299 386.597 394.153 387.834 394.325 389.054C394.409 389.59 394.67 390.095 395.078 390.507C395.521 390.89 396.087 391.151 396.703 391.257C397.421 391.395 398.149 391.488 398.882 391.537C399.664 391.614 400.453 391.723 401.223 391.847C402.764 392.106 404.233 392.437 405.75 392.721C407.407 393.06 409.098 393.26 410.8 393.316C411.221 393.316 411.643 393.316 412.064 393.316C412.485 393.316 412.901 393.27 413.31 393.197C413.716 393.145 414.118 393.073 414.514 392.98C414.958 392.873 415.408 392.787 415.862 392.721C417.632 392.473 419.359 392.282 421.063 391.992C421.904 391.859 422.736 391.686 423.555 391.475C423.936 391.375 424.307 391.247 424.662 391.092C424.803 391.032 424.934 390.957 425.054 390.869C425.15 390.786 425.138 390.797 425.144 390.766C425.247 389.282 425.227 387.793 425.084 386.312C424.954 384.817 424.715 383.331 424.367 381.863C423.765 379.276 422.844 376.69 421.219 374.559C420.485 373.546 419.483 372.697 418.294 372.081C417.712 371.809 417.081 371.621 416.428 371.527C415.767 371.451 415.097 371.465 414.442 371.569C413.99 371.62 413.539 371.786 413.111 371.858C411.986 372.163 411.522 371.988 412.281 371.455C412.455 371.306 412.659 371.185 412.883 371.098C413.948 370.739 415.074 370.531 416.217 370.482C417.445 370.455 418.65 370.769 419.654 371.377C420.629 371.992 421.477 372.742 422.164 373.596C422.839 374.424 423.419 375.306 423.898 376.229C424.835 378.054 425.533 379.963 425.98 381.92C426.339 383.479 426.573 385.057 426.679 386.643C426.765 388.046 426.743 389.453 426.612 390.854C426.571 391.134 426.427 391.397 426.203 391.604C426.026 391.76 425.823 391.892 425.601 391.997C425.247 392.169 424.877 392.314 424.494 392.432C423.062 392.828 421.594 393.12 420.106 393.306C419.082 393.461 417.915 393.601 416.657 393.766C416.344 393.808 416.025 393.849 415.718 393.901C415.549 393.901 415.471 393.947 415.278 393.989L414.755 394.102C414.398 394.186 414.037 394.25 413.671 394.294C413.297 394.352 412.919 394.392 412.54 394.413C410.93 394.516 409.313 394.445 407.724 394.201C406.087 393.968 404.432 393.611 402.752 393.285C401.916 393.125 401.073 392.964 400.224 392.851C399.375 392.737 398.533 392.659 397.612 392.571C396.625 392.503 395.667 392.254 394.801 391.842C393.908 391.341 393.273 390.565 393.025 389.674C392.789 388.863 392.73 388.021 392.851 387.191C392.961 386.402 393.163 385.624 393.453 384.868C393.729 384.135 394.072 383.421 394.476 382.732C394.837 382.075 395.198 381.423 395.547 380.782C396.252 379.499 396.926 378.262 397.57 377.093C398.142 375.941 398.833 374.835 399.634 373.788C400.352 372.868 401.255 372.066 402.301 371.418C403.13 370.908 404.051 370.519 405.028 370.265C405.232 370.203 405.431 370.172 405.629 370.13C405.977 370.046 406.334 369.997 406.695 369.986C406.839 369.978 406.984 369.978 407.128 369.986C407.437 369.991 407.745 370.015 408.049 370.058C408.666 370.146 409.271 370.288 409.855 370.482C410.168 370.586 410.493 370.699 410.848 370.834L411.39 371.046L411.667 371.155L411.799 371.201H411.859H411.811V371.237C411.777 371.289 411.757 371.347 411.753 371.406C411.749 371.465 411.761 371.524 411.787 371.579Z" fill="#221F1F"/>
<path d="M424.644 397.63C423.188 399.793 420.262 401.484 417.102 402.348C411.745 403.842 405.952 403.706 400.697 401.965C395.442 400.223 391.044 396.981 388.24 392.783C387.618 391.897 387.072 390.971 386.609 390.016C386.38 389.535 386.211 389.033 386.007 388.541C385.916 388.298 385.814 388.024 385.73 387.802L385.519 387.041L385.327 386.281C385.255 386.029 385.206 385.773 385.182 385.515L385.002 383.963C384.965 383.446 385.002 382.929 385.002 382.411C385.006 381.892 385.052 381.373 385.14 380.859C385.279 379.831 385.506 378.812 385.82 377.812L386.38 376.338C386.561 375.821 386.843 375.386 387.066 374.905C388.043 373.024 389.315 371.266 390.846 369.68C391.153 369.323 391.514 369.008 391.857 368.682C392.201 368.356 392.544 368.02 392.923 367.72C393.66 367.106 394.433 366.526 395.24 365.982C396.854 364.883 398.604 363.941 400.459 363.173C401.39 362.794 402.347 362.464 403.324 362.185C403.806 362.028 404.299 361.895 404.799 361.786L406.304 361.476C408.334 361.115 410.412 360.998 412.479 361.129C416.643 361.395 420.628 362.692 423.952 364.864L424.554 365.252C424.759 365.387 424.945 365.542 425.156 365.687L426.312 366.566C426.695 366.861 427.055 367.177 427.389 367.513L428.43 368.485C428.785 368.806 429.068 369.184 429.387 369.52C429.706 369.856 430.025 370.218 430.296 370.596L431.097 371.739C431.223 371.931 431.368 372.112 431.488 372.313L431.819 372.914C432.913 374.792 433.656 376.806 434.022 378.883C434.094 379.401 434.233 379.918 434.251 380.435L434.347 381.987C434.349 383.036 434.267 384.083 434.1 385.122C433.944 386.116 433.715 387.101 433.414 388.071C433.246 388.552 433.047 389.022 432.866 389.504C432.764 389.736 432.692 389.985 432.572 390.212L432.21 390.9L431.867 391.609C431.754 391.841 431.621 392.066 431.47 392.282L430.603 393.595C430.302 394.03 429.935 394.423 429.604 394.837L429.092 395.453C428.912 395.649 428.713 395.835 428.521 396.027C428.038 396.561 427.498 397.054 426.907 397.501C425.355 398.608 424.759 398.536 425.583 397.501C425.753 397.24 425.954 396.995 426.185 396.772C426.342 396.648 426.504 396.523 426.649 396.389L427.052 395.97L427.804 395.147C428.05 394.877 428.269 394.59 428.46 394.289L429.062 393.42C429.262 393.128 429.441 392.825 429.598 392.514L430.122 391.583C430.465 390.947 430.724 390.264 431.127 389.571C432.345 386.92 432.864 384.07 432.644 381.227C432.433 378.397 431.522 375.639 429.971 373.136C428.692 371.158 427.088 369.348 425.21 367.761C422.844 365.701 419.944 364.151 416.747 363.24C415.963 363.01 415.157 362.837 414.339 362.723C413.761 362.614 413.173 362.544 412.582 362.516C411.889 362.468 411.193 362.457 410.499 362.485C406.778 362.565 403.136 363.429 399.893 364.999C395.723 366.959 392.238 369.842 389.799 373.348C388.487 375.244 387.563 377.319 387.066 379.483C386.561 381.675 386.547 383.929 387.024 386.126L387.229 386.943C387.284 387.216 387.367 387.484 387.475 387.745C387.68 388.262 387.885 388.779 388.077 389.297L388.89 390.797L389.089 391.169L389.335 391.521L389.829 392.225L390.317 392.928C390.485 393.161 390.696 393.368 390.876 393.585L392.008 394.878L393.266 396.11L393.579 396.399C393.687 396.492 393.808 396.575 393.916 396.663L394.596 397.18C396.326 398.499 398.289 399.573 400.411 400.362L401.157 400.652L401.922 400.879C402.433 401.019 402.921 401.19 403.42 401.309C404.387 401.531 405.368 401.704 406.358 401.826C409.476 402.23 412.657 402.072 415.7 401.36C415.977 401.298 416.253 401.252 416.5 401.179L417.204 400.962L418.348 400.61C418.95 400.388 419.353 400.212 419.474 400.176L420.617 399.741L421.821 399.193C422.799 398.723 423.742 398.202 424.644 397.63Z" fill="#221F1F"/>
<path d="M353.816 460.99C354.418 460.587 355.02 460.209 355.562 459.78L356.404 459.149L357.205 458.487C357.759 458.052 358.222 457.561 358.728 457.095C358.962 456.852 359.185 456.604 359.414 456.355L359.757 455.983L360.058 455.59C360.251 455.326 360.473 455.072 360.66 454.798L361.171 453.976C361.34 453.701 361.448 453.407 361.593 453.122C361.667 452.984 361.732 452.843 361.785 452.698L361.918 452.289C362.152 451.043 362.232 449.779 362.159 448.518C362.092 446.63 361.852 444.731 361.611 442.828C360.744 436.139 359.396 429.476 357.999 422.823L357.042 418.395C356.886 417.65 356.723 416.916 356.585 416.166L356.488 415.597C356.453 415.4 356.435 415.201 356.434 415.002C356.407 414.614 356.407 414.225 356.434 413.838C356.573 411.867 357.139 409.994 356.994 408.189C356.954 407.309 356.669 406.451 356.163 405.685C355.68 404.935 354.932 404.337 354.027 403.978C353.473 403.781 353.208 403.698 353.244 403.564C353.28 403.429 353.623 403.3 354.279 403.336C355.195 403.437 356.044 403.802 356.687 404.371C357.664 405.162 358.301 406.214 358.493 407.356C358.866 409.544 358.234 411.546 358.023 413.393C357.964 413.848 357.934 414.306 357.933 414.764C357.933 414.981 357.933 415.214 357.969 415.41C358.005 415.607 358.035 415.866 358.078 416.098C358.252 417.04 358.451 418.007 358.679 418.964C359.48 422.813 360.275 426.677 360.967 430.578C361.791 435.234 362.773 440.081 363.308 444.907C363.441 446.237 363.549 447.571 363.579 448.916C363.664 450.298 363.52 451.682 363.152 453.029C362.622 454.332 361.876 455.562 360.937 456.681C359.998 457.771 358.949 458.788 357.801 459.718C354.961 461.94 351.818 463.858 348.441 465.429C343.386 467.828 338.074 469.804 332.58 471.331C328.401 472.57 324.119 473.537 319.771 474.223L318.333 474.42L316.882 474.575C315.59 474.707 314.286 474.735 312.988 474.658C312.639 474.629 312.293 474.578 311.952 474.508C311.717 474.444 311.49 474.357 311.278 474.249C311.108 474.175 310.947 474.086 310.797 473.985C310.502 473.68 311.946 473.695 314.522 473.54C318.46 473.238 322.358 472.634 326.17 471.735C330.116 470.843 333.996 469.744 337.787 468.445C343.427 466.484 348.958 464.12 353.786 460.985L353.816 460.99Z" fill="#221F1F"/>
<path d="M367.173 394.723L353.804 402.638C352.57 403.367 355.519 403.104 356.091 402.767L369.46 394.853C370.694 394.118 367.744 394.387 367.173 394.723Z" fill="#221F1F"/>
<path d="M332.032 423.527L331.461 423.718L331.25 423.775L331.027 423.749C330.879 423.739 330.732 423.718 330.588 423.687C330.378 423.637 330.176 423.566 329.986 423.475C329.812 423.397 329.643 423.311 329.48 423.217C328.881 422.847 328.362 422.39 327.945 421.866C327.487 421.325 327.201 420.69 327.115 420.025C327.091 419.837 327.091 419.648 327.115 419.461L327.187 419.171C327.229 419.063 327.289 418.949 327.343 418.835C327.392 418.581 327.699 418.468 327.891 418.343L328.282 418.111L330.546 416.735L338.629 412.012C339.833 411.313 340.995 410.574 342.151 409.844C343.599 408.862 345.106 407.946 346.665 407.097C347.658 406.58 347.267 408.292 345.564 409.363C342.512 411.256 339.418 413.093 336.21 414.847C334.296 415.881 332.406 417.117 330.497 418.256L328.938 419.182L328.638 419.357C328.577 419.357 328.577 419.44 328.547 419.482C328.501 419.667 328.501 419.86 328.547 420.045C328.818 420.981 329.505 421.787 330.461 422.291C330.594 422.364 330.735 422.425 330.883 422.472C331.003 422.503 331.075 422.534 331.166 422.503L332.189 422.161L334.386 421.427C336.595 420.677 338.828 419.942 341.007 419.166C342.704 418.561 344.336 417.899 345.991 417.262C346.358 417.123 346.707 416.973 347.08 416.838C348.453 416.321 348.934 416.264 349.374 416.466C349.478 416.503 349.577 416.549 349.669 416.605C349.915 416.797 349.44 417.19 348.465 417.614C345.558 418.866 342.403 420.004 339.219 421.111L332.05 423.527H332.032Z" fill="#221F1F"/>
<path d="M368.419 410.201L365.662 411.184C365.331 411.308 365.018 411.463 364.681 411.577C363.477 411.996 362.303 412.394 361.123 412.819C360.6 413.005 360.094 413.227 359.594 413.45C358.98 413.783 358.319 414.047 357.626 414.236C357.181 414.324 357.096 413.031 357.843 412.715C359.166 412.142 360.539 411.656 361.948 411.262C362.8 410.988 363.633 410.676 364.446 410.325C365.367 409.984 366.288 409.653 367.209 409.291C367.775 409.079 368.346 408.877 368.906 408.66C369.761 408.334 370.628 408.023 371.452 407.666C372.096 407.392 372.692 407.051 373.306 406.74C373.439 406.673 373.565 406.595 373.71 406.533C374.227 406.295 374.438 406.306 374.715 406.533C374.775 406.59 374.847 406.642 374.901 406.704C375.082 406.916 374.968 407.221 374.618 407.423C373.537 408.081 372.384 408.648 371.175 409.115C370.273 409.482 369.37 409.823 368.437 410.175L368.419 410.201Z" fill="#221F1F"/>
<path d="M380.62 404.387C379.416 405.975 377.104 406.621 374.968 406.709L375.762 407.164C376.066 405.355 375.949 403.512 375.417 401.742C374.884 399.972 373.948 398.311 372.662 396.855C371.829 395.962 370.893 395.144 369.869 394.413C369.43 394.087 369.267 394.299 369.267 394.108C369.309 393.642 370.507 392.918 370.856 392.721C373.812 391.102 375.473 392.168 377.634 394.082C380.884 396.963 381.625 400.708 380.559 404.537C380.367 405.23 382.142 405.054 382.323 404.407C383.744 399.301 381.721 394.428 376.569 391.537C373.643 389.897 368.942 391.537 367.474 394.18C367.414 394.266 367.396 394.368 367.424 394.465C367.453 394.562 367.524 394.646 367.624 394.697C369.926 396.105 371.735 398.026 372.858 400.253C373.98 402.481 374.373 404.93 373.992 407.335C373.938 407.713 374.462 407.806 374.787 407.796C377.694 407.677 380.62 406.694 382.269 404.568C382.793 403.869 381.017 403.869 380.62 404.387Z" fill="#221F1F"/>
<path d="M350.415 404.904C350.144 404.992 350.632 404.857 350.716 404.842C350.989 404.791 351.268 404.768 351.547 404.775C352.013 404.789 352.464 404.924 352.84 405.162C353.216 405.4 353.5 405.73 353.653 406.109C353.822 406.466 354.857 406.202 354.695 405.866C353.888 404.2 351.806 403.885 349.976 404.454C349.296 404.666 349.903 405.064 350.415 404.904Z" fill="#221F1F"/>
<path d="M349.506 405.597H349.596C349.44 405.644 349.699 405.571 349.747 405.561C349.953 405.516 350.166 405.495 350.379 405.499C350.729 405.521 351.057 405.656 351.297 405.876C351.537 406.097 351.671 406.387 351.673 406.689C351.709 406.932 352.877 406.72 352.805 406.425C352.552 404.811 350.493 404.873 349.091 405.333C348.958 405.38 348.645 405.494 348.766 405.654C348.886 405.814 349.368 405.654 349.506 405.623V405.597Z" fill="#221F1F"/>
<path d="M347.923 406.388C348.048 406.305 348.199 406.253 348.356 406.238C349.007 406.187 349.416 406.756 349.627 407.17C349.771 407.464 350.885 407.17 350.764 406.911C350.635 406.561 350.374 406.258 350.022 406.05C349.669 405.842 349.247 405.741 348.82 405.763C348.263 405.785 347.722 405.926 347.243 406.171C346.599 406.518 347.604 406.559 347.923 406.388Z" fill="#221F1F"/>
<path d="M331.749 454.959C336.619 451.43 342.747 449.009 348.718 447.261C350.337 446.79 348.856 446.123 347.767 446.444C341.434 448.296 334.958 450.908 329.799 454.643C328.74 455.409 331.16 455.388 331.749 454.959Z" fill="#221F1F"/>
<path d="M346.725 437.256C346.671 436.139 346.641 435.027 346.623 433.92C346.623 433.511 346.575 433.107 346.575 432.704C346.575 431.276 346.635 429.848 346.677 428.426C346.677 427.79 346.677 427.158 346.677 426.527C346.611 425.72 346.635 424.909 346.749 424.106C346.852 423.589 348.068 424.277 348.056 425.193C348.056 426.827 347.989 428.457 347.839 430.107C347.755 431.095 347.839 432.119 347.839 433.128C347.839 434.235 347.887 435.342 347.941 436.454C347.977 437.132 348.007 437.815 348.074 438.498C348.158 439.532 348.26 440.567 348.453 441.571C348.612 442.343 348.825 443.107 349.091 443.857C349.145 444.023 349.211 444.183 349.259 444.349C349.47 444.959 349.446 445.171 349.157 445.383C349.095 445.436 349.029 445.484 348.958 445.528C348.724 445.657 348.435 445.45 348.212 445.011C347.597 443.603 347.192 442.135 347.008 440.639C346.852 439.522 346.749 438.394 346.671 437.272L346.725 437.256Z" fill="#221F1F"/>
<path d="M350.114 451.462C350.873 450.944 351.625 450.37 351.763 449.848C351.848 449.439 351.956 449.035 352.04 448.622L352.185 447.328C352.317 445.585 352.329 443.811 352.257 442.031C352.221 440.738 352.088 439.444 352.01 438.146C351.679 433.568 351.186 428.99 350.584 424.422C350.443 423.408 350.301 422.394 350.156 421.38C350.084 420.863 350.006 420.345 349.934 419.859C349.861 419.373 349.795 418.825 349.747 418.307C349.619 417.066 349.285 415.846 348.754 414.686C348.217 413.556 347.378 412.552 346.304 411.753C345.618 411.287 345.871 411.049 346.761 411.205C347.02 411.266 347.271 411.345 347.514 411.443C347.823 411.588 348.114 411.762 348.381 411.96C349.067 412.428 349.622 413.022 350.006 413.698C350.691 415.007 351.112 416.406 351.252 417.837C351.3 418.178 351.324 418.525 351.348 418.871C351.372 419.218 351.414 419.482 351.462 419.818L351.721 421.794C352.07 424.443 352.389 427.102 352.63 429.781C352.919 432.983 353.358 436.304 353.563 439.61C353.69 441.415 353.738 443.231 353.738 445.052L353.684 446.418C353.684 446.873 353.647 447.328 353.587 447.789C353.527 448.249 353.515 448.704 353.401 449.17L353.244 449.863C353.203 450.114 353.124 450.359 353.009 450.592C352.676 451.147 352.216 451.638 351.655 452.036C351.145 452.406 350.61 452.752 350.054 453.07C348.962 453.69 347.832 454.259 346.671 454.777C343.18 456.329 339.544 457.664 335.939 458.916C333.134 459.883 330.389 460.851 327.566 461.72C326.964 461.911 326.362 462.108 325.706 462.284C323.359 462.941 322.552 463.023 321.944 462.801C321.805 462.768 321.671 462.719 321.547 462.656C321.246 462.454 322.149 462.056 323.828 461.549C328.812 459.997 334.061 458.311 339.201 456.407C341.109 455.698 343.005 454.959 344.859 454.157C346.699 453.394 348.457 452.494 350.114 451.467V451.462Z" fill="#221F1F"/>
<path d="M286.346 544.629C285.696 546.455 284.998 548.25 284.149 550.055C283.723 550.96 283.243 551.846 282.711 552.709C282.428 553.144 282.109 553.573 281.796 553.997L281.675 554.152L281.639 554.194L281.567 554.271C281.507 554.333 281.501 554.328 281.465 554.364C281.519 554.401 281.58 554.429 281.645 554.447C282.103 554.608 282.602 554.773 283.09 554.913C284.071 555.208 285.076 555.43 286.1 555.673C288.135 556.104 290.206 556.402 292.293 556.563C296.491 556.875 300.718 556.715 304.868 556.087C307.191 555.771 309.502 555.409 311.796 554.985C312.939 554.768 314.077 554.545 315.197 554.282C316.316 554.018 317.412 553.713 318.549 553.413C322.482 552.404 326.254 550.977 329.775 549.165C331.501 548.255 333.114 547.196 334.591 546.005C334.94 545.694 335.313 545.399 335.65 545.074L336.053 544.691C336.071 544.68 336.085 544.665 336.093 544.647C336.102 544.63 336.104 544.611 336.101 544.592V544.437L335.788 541.773C334.922 534.665 333.85 527.563 332.881 520.45C332.014 514.144 331.16 507.791 330.534 501.501C330.154 497.455 329.787 493.4 329.679 489.328C329.637 488.294 329.607 487.295 329.619 486.276V483.219C329.715 481.186 329.781 479.148 330.04 477.125C330.311 474.596 330.696 474.984 330.913 477.125C330.967 477.642 331.009 478.31 331.039 479.05C331.069 479.789 331.154 480.601 331.19 481.538C331.232 483.364 331.37 485.5 331.376 487.813C331.587 496.038 332.412 504.253 333.441 512.473C334.47 520.693 335.68 528.928 336.721 537.226C336.878 538.468 337.028 539.714 337.185 540.966C337.341 542.311 337.5 543.66 337.66 545.011C337.494 545.225 337.305 545.424 337.095 545.606L336.715 545.974C336.462 546.222 336.18 546.444 335.915 546.677C335.65 546.91 335.367 547.132 335.084 547.355C334.801 547.577 334.524 547.795 334.223 547.996C333.055 548.836 331.818 549.602 330.522 550.288C327.936 551.646 325.205 552.788 322.365 553.697C320.951 554.152 319.512 554.571 318.098 554.944C316.666 555.352 315.212 555.697 313.74 555.978C310.917 556.537 308.082 556.982 305.241 557.37C302.376 557.796 299.475 558.021 296.567 558.042C293.654 558.058 290.745 557.835 287.881 557.375C286.459 557.14 285.052 556.837 283.668 556.47C282.97 556.284 282.277 556.082 281.591 555.859L281.08 555.684C280.815 555.59 280.55 555.497 280.303 555.399L279.563 555.099L279.202 554.939C279.093 554.887 278.925 554.835 278.907 554.778L279.581 554.209L280.183 553.625C280.273 553.532 280.393 553.418 280.454 553.345L280.61 553.144L280.923 552.74C281.308 552.181 281.663 551.597 281.994 550.997C283.574 547.854 284.864 544.609 285.853 541.292C286.9 537.971 287.815 534.614 288.664 531.251C291.204 521.039 293.238 510.683 295.026 500.43C296.405 492.453 297.548 484.605 298.638 476.696C298.872 474.952 299.107 473.245 299.342 471.487C300.245 464.974 300.612 462.91 301.226 461.549C301.346 461.245 301.485 460.946 301.641 460.654C302.051 460.059 301.984 462.723 301.419 467.534C299.721 481.724 297.434 496.643 294.575 511.557C293.509 517.098 292.354 522.638 291.047 528.158C289.741 533.677 288.297 539.192 286.419 544.629H286.346Z" fill="#221F1F"/>
<path d="M301.376 557.696L301.473 569.558C301.473 569.697 302.731 569.687 302.719 569.558L302.628 557.691C302.22 557.586 301.784 557.588 301.376 557.696Z" fill="#232020"/>
<path d="M311.296 569.977L311.693 556.351C311.693 556.19 310.447 556.165 310.447 556.325L310.05 569.966C310.05 570.013 310.213 570.039 310.429 570.06L310.676 569.853C310.709 569.86 310.74 569.873 310.766 569.892C310.792 569.911 310.813 569.934 310.827 569.961C310.837 569.975 310.843 569.991 310.843 570.008C310.843 570.024 310.837 570.041 310.827 570.054L310.676 569.93V570.178L310.532 570.054C310.521 570.069 310.515 570.086 310.515 570.103C310.515 570.121 310.521 570.138 310.532 570.153C310.547 570.179 310.569 570.203 310.596 570.221C310.623 570.24 310.655 570.254 310.688 570.261L310.935 570.06C311.128 570.054 311.296 570.023 311.296 569.977Z" fill="#232020"/>
<path d="M325.327 602.365C324.863 602.588 322.648 603.86 317.815 602.841C313.146 601.84 308.831 599.878 305.241 597.125V601.838H302.231L302.057 568.683C304.629 569.73 307.527 570.029 310.315 569.537C312.012 570.116 313.759 570.581 315.54 570.929L313.288 597.177C316.533 598.506 320.433 599.639 322.973 600.555C322.973 600.555 326.266 601.926 325.327 602.365Z" fill="#221F1F"/>
<path d="M325.128 602.034C324.264 602.911 323.039 603.467 321.709 603.586C320.299 603.733 318.868 603.645 317.496 603.328C315.164 602.834 312.91 602.1 310.784 601.139C309.718 600.666 308.685 600.14 307.691 599.562C307.197 599.272 306.709 598.967 306.228 598.651L306.035 598.527C306.035 599.858 306.035 601.188 306.035 602.515H301.485L301.443 597.477C301.443 590.648 301.429 583.818 301.4 576.986L301.358 567.732C301.864 567.913 302.382 568.114 302.893 568.29L303.278 568.42L303.465 568.476L303.561 568.508C303.694 568.549 303.826 568.59 303.953 568.621C304.477 568.768 305.012 568.887 305.554 568.978C306.626 569.155 307.723 569.2 308.81 569.113C309.081 569.113 309.346 569.056 309.617 569.02L310.068 568.942C310.33 568.895 310.604 568.924 310.845 569.025C311.374 569.201 311.916 569.366 312.458 569.542C313 569.718 313.541 569.853 314.083 569.987C314.354 570.059 314.625 570.122 314.89 570.178C314.968 570.178 315.317 570.256 315.552 570.297L316.352 570.427L315.01 585.91L314.107 596.292L314.065 596.768V596.799L314.143 596.83L315.221 597.234C316.099 597.554 316.988 597.861 317.887 598.154L320.596 599.034L321.956 599.474L322.642 599.706L322.985 599.82L323.154 599.882C323.228 599.904 323.3 599.93 323.371 599.96C324.004 600.207 324.609 600.505 325.176 600.85C325.53 601.067 325.822 601.35 326.031 601.677C326.1 601.788 326.14 601.91 326.149 602.035C326.157 602.16 326.133 602.285 326.079 602.402C326.048 602.476 325.996 602.543 325.928 602.596C325.86 602.65 325.777 602.687 325.688 602.707C325.507 602.707 325.526 602.645 325.616 602.5C325.654 602.446 325.677 602.386 325.686 602.323C325.694 602.261 325.687 602.198 325.664 602.138C325.596 602.021 325.492 601.923 325.363 601.853C325.122 601.714 324.815 601.636 324.575 601.491C323.984 601.157 323.35 600.884 322.684 600.679C322.022 600.493 321.372 600.332 320.71 600.162C319.306 599.844 317.923 599.459 316.569 599.008C315.889 598.77 315.209 598.527 314.528 598.273L313.409 597.86C313.132 597.759 312.862 597.643 312.602 597.513L312.674 596.67L312.957 592.899L313.499 585.367C313.656 583.365 313.836 581.352 314.029 579.35L314.811 571.668C314.811 571.627 314.811 571.575 314.811 571.425L314.619 571.384C314.312 571.317 313.963 571.239 313.577 571.135C312.807 570.939 311.886 570.675 310.79 570.328L310.375 570.194L310.279 570.163C310.279 570.163 310.279 570.163 310.237 570.163L309.827 570.235C309.659 570.261 309.484 570.277 309.31 570.297C308.559 570.38 307.802 570.404 307.047 570.37C306.19 570.328 305.339 570.218 304.506 570.039C304.067 569.946 303.622 569.827 303.17 569.697L302.869 569.604L302.743 569.558C302.791 577.747 302.875 593.018 302.917 601.279H304.561C304.561 598.139 304.561 596.866 304.561 595.796C305.126 596.256 305.698 596.727 306.222 597.13C306.487 597.311 306.74 597.497 306.992 597.647L307.426 597.932C307.979 598.294 308.533 598.62 309.069 598.92C310.038 599.463 311.043 599.957 312.079 600.4C313.565 601.025 315.109 601.544 316.695 601.951C317.87 602.271 319.081 602.486 320.307 602.593C321.023 602.655 321.744 602.667 322.462 602.629C323.391 602.603 324.302 602.4 325.128 602.034Z" fill="#221F1F"/>
<path d="M316.208 571.373L317.628 555.068C317.628 554.882 316.394 554.799 316.382 554.985L314.962 571.296C314.944 571.446 316.196 571.523 316.208 571.373Z" fill="#232020"/>
<path d="M336.547 456.454C334.916 461.58 335.776 466.593 337.408 471.652C337.528 472.014 338.924 471.693 338.804 471.326C337.191 466.324 336.318 461.363 337.937 456.283C338.052 455.916 336.661 456.086 336.547 456.454Z" fill="#221F1F"/>
<path d="M336.619 450.008C333.94 451.974 334.013 456.024 334.314 458.699C334.362 459.113 335.758 458.849 335.71 458.378C335.439 455.988 335.307 452.02 337.745 450.23C338.347 449.775 336.986 449.744 336.619 450.008Z" fill="#221F1F"/>
<path d="M328.439 432.249C329.763 433.335 331.828 433.128 333.32 432.456C333.573 432.342 333.814 432.125 333.495 431.938C333.176 431.752 332.55 431.975 332.291 432.099C331.918 432.229 331.508 432.258 331.115 432.182C330.723 432.106 330.366 431.929 330.094 431.674C329.709 431.354 328.078 431.912 328.463 432.228L328.439 432.249Z" fill="#221F1F"/>
<path d="M328.234 419.342C327.295 417.871 326.144 416.506 324.809 415.281C324.436 414.924 323.19 415.364 323.605 415.767C324.94 416.993 326.091 418.357 327.03 419.828C327.283 420.242 328.535 419.828 328.234 419.342Z" fill="#221F1F"/>
<path d="M325.026 448.989C324.725 448.728 324.495 448.414 324.353 448.067C324.212 447.721 324.162 447.352 324.207 446.987C324.217 445.824 324.405 444.667 324.767 443.547C324.886 443.233 325.052 442.934 325.261 442.657C325.37 442.507 325.494 442.367 325.634 442.238C325.76 442.129 325.881 442.015 326.007 441.917C326.504 441.52 327.03 441.152 327.584 440.815C328.466 440.336 329.275 439.765 329.992 439.113C330.145 438.949 330.286 438.776 330.413 438.596L330.816 438.006C331.069 437.608 331.294 437.196 331.491 436.775C332.176 435.324 332.535 433.774 332.55 432.207C332.56 431.421 332.498 430.636 332.363 429.859C332.297 429.466 332.213 429.078 332.117 428.695L331.948 428.131C331.875 427.881 331.839 427.623 331.84 427.365C331.834 426.752 332.044 426.152 332.442 425.643C332.637 425.398 332.87 425.177 333.134 424.986C333.244 424.903 333.326 424.796 333.369 424.675C333.411 424.463 333.369 424.349 333.068 424.158C332.733 423.945 332.346 423.802 331.936 423.739C331.798 423.732 331.662 423.717 331.527 423.692C331.454 423.672 331.388 423.636 331.333 423.59C331.279 423.543 331.238 423.486 331.214 423.423C331.183 423.351 331.18 423.273 331.204 423.198C331.227 423.124 331.277 423.058 331.346 423.01C331.418 422.947 331.509 422.86 331.599 422.86C332.032 422.86 332.442 422.86 332.887 422.891C333.384 422.922 333.852 423.105 334.205 423.408C334.424 423.596 334.587 423.826 334.684 424.078C334.78 424.331 334.806 424.599 334.759 424.862C334.71 425.119 334.597 425.364 334.428 425.581C334.283 425.753 334.118 425.913 333.934 426.057C333.732 426.248 333.579 426.475 333.484 426.72C333.39 426.966 333.357 427.227 333.387 427.484C333.398 427.584 333.418 427.682 333.447 427.779L333.561 428.183C333.645 428.467 333.7 428.757 333.754 429.041C333.874 429.782 333.94 430.528 333.952 431.276C334.006 432.568 333.872 433.861 333.555 435.125C333.287 436.148 332.883 437.14 332.351 438.084C332.207 438.332 332.068 438.601 331.9 438.834C331.743 439.094 331.568 439.347 331.376 439.589C330.97 440.085 330.483 440.53 329.932 440.908C328.872 441.659 327.795 442.202 326.994 442.853C326.808 442.995 326.636 443.151 326.483 443.319C326.351 443.48 326.242 443.654 326.158 443.836C325.989 444.207 325.866 444.592 325.79 444.985C325.628 445.75 325.568 446.428 325.514 446.92C325.459 447.411 325.429 447.721 325.423 447.773C325.319 448.185 325.186 448.591 325.026 448.989Z" fill="#221F1F"/>
<path d="M301.37 478.812C300.606 480.881 302.947 483.297 305.451 483.012C307.955 482.728 309.466 479.836 308.04 478.046C306.613 476.256 302.899 476.453 301.756 478.387" fill="#221F1F"/>
<path d="M324.424 508.981C323.72 510.9 325.887 513.145 328.21 512.881C330.534 512.618 331.942 509.933 330.618 508.267C329.294 506.601 325.845 506.793 324.785 508.588" fill="#221F1F"/>
<path d="M328.656 531.391C328.556 531.752 328.555 532.128 328.654 532.49C328.753 532.851 328.949 533.187 329.226 533.472C329.503 533.757 329.854 533.982 330.25 534.13C330.646 534.278 331.077 534.344 331.509 534.324C331.931 534.248 332.326 534.086 332.662 533.854C332.998 533.621 333.265 533.323 333.442 532.984C333.618 532.645 333.698 532.276 333.676 531.905C333.654 531.535 333.53 531.174 333.314 530.853C332.315 529.606 329.703 529.741 328.926 531.096" fill="#221F1F"/>
<path d="M294.153 532.679C293.461 534.557 295.586 536.75 297.855 536.491C300.124 536.233 301.503 533.61 300.203 531.986C298.902 530.361 295.538 530.542 294.502 532.296" fill="#221F1F"/>
<path d="M309.677 524.071C309.009 525.892 311.061 528.013 313.288 527.764C315.516 527.516 316.816 524.971 315.558 523.398C314.3 521.826 311.043 522.002 310.044 523.704" fill="#221F1F"/>
<path d="M326.651 550.304C327.301 549.393 327.253 548.172 325.778 547.955C325.099 547.86 324.402 547.925 323.761 548.141C323.12 548.358 322.559 548.719 322.137 549.186C321.378 550.133 322.167 551.255 323.304 551.612C323.95 551.701 324.612 551.625 325.208 551.392C325.803 551.159 326.305 550.781 326.651 550.304Z" fill="#221F1F"/>
<path d="M321.186 489.918C320.499 491.791 322.606 493.974 324.869 493.715C327.133 493.457 328.481 490.844 327.211 489.225C325.941 487.606 322.564 487.787 321.535 489.541" fill="#221F1F"/>
<path d="M320.512 469.919C319.819 471.787 321.932 473.432 324.195 473.173C326.459 472.914 327.807 470.84 326.537 469.226C325.267 467.612 321.89 467.788 320.861 469.536" fill="#221F1F"/>
<path d="M298.385 501.02C297.693 502.887 299.805 505.07 302.069 504.811C304.332 504.553 305.68 501.946 304.404 500.326C303.128 498.707 299.763 498.888 298.728 500.637" fill="#221F1F"/>
<path d="M285.335 552.192C285.985 553.226 287.58 553.718 288.405 552.771C288.586 552.526 288.696 552.248 288.728 551.959C288.759 551.671 288.711 551.38 288.586 551.11C288.462 550.841 288.265 550.601 288.011 550.409C287.758 550.218 287.456 550.08 287.129 550.009C286.824 549.96 286.509 549.982 286.217 550.072C285.925 550.162 285.666 550.317 285.466 550.521C285.266 550.725 285.133 550.97 285.079 551.233C285.025 551.495 285.053 551.766 285.161 552.016" fill="#221F1F"/>
<path d="M368.888 409.342L366.197 410.32C365.872 410.439 365.565 410.594 365.234 410.708C364.085 411.122 362.917 411.515 361.779 411.939C361.275 412.135 360.783 412.352 360.305 412.591C359.717 412.929 359.085 413.205 358.421 413.414C357.987 413.512 357.819 412.239 358.553 411.898C359.833 411.297 361.173 410.795 362.556 410.398C363.393 410.165 364.181 409.777 364.994 409.472L367.69 408.468C368.238 408.261 368.792 408.054 369.334 407.837C370.158 407.506 370.995 407.185 371.783 406.802C372.385 406.507 372.951 406.156 373.523 405.814C373.649 405.742 373.764 405.659 373.89 405.587C374.372 405.328 374.576 405.323 374.877 405.556C374.949 405.604 375.016 405.657 375.076 405.716C375.274 405.907 375.196 406.192 374.871 406.435C373.866 407.16 372.76 407.775 371.579 408.266C370.7 408.654 369.773 409.006 368.906 409.363L368.888 409.342Z" fill="#221F1F"/>
<path d="M315.022 435.797C313.168 436.832 306.053 435.999 306.451 431.059C306.848 426.119 313.457 429.181 313.457 429.181C317.743 427.086 322.028 423.806 323.762 419.735C326.332 413.719 320.698 406.963 314.185 405.602C285.979 399.705 286.045 429.191 285.263 433.749C284.625 437.458 268.301 447.789 280.941 459.552C286.136 464.389 294.22 467.441 301.677 465.941C332.791 459.687 315.901 435.316 315.022 435.797Z" fill="#221F1F"/>
<path d="M314.781 435.482C314.438 435.746 314.025 435.934 313.577 436.03C313.326 436.087 313.07 436.132 312.813 436.165C312.554 436.165 312.283 436.211 312.012 436.206C310.869 436.212 309.742 435.979 308.726 435.528C307.607 435.033 306.73 434.211 306.252 433.211C306.198 433.082 306.126 432.952 306.077 432.823L305.981 432.419L305.891 432.016C305.891 431.881 305.891 431.742 305.891 431.607C305.85 431.06 305.909 430.51 306.065 429.978C306.252 429.288 306.711 428.675 307.366 428.245C308.039 427.852 308.84 427.655 309.653 427.681C310.388 427.694 311.118 427.796 311.82 427.986C312.163 428.074 312.5 428.172 312.831 428.286C312.994 428.338 313.156 428.4 313.319 428.462L313.475 428.524C318.044 426.238 323.672 421.763 323.672 416.626C323.576 414.032 322.391 411.555 320.337 409.653C319.335 408.69 318.158 407.874 316.852 407.237C315.53 406.613 314.089 406.197 312.596 406.011C309.462 405.42 306.222 405.376 303.068 405.882L301.918 406.145C301.732 406.187 301.539 406.223 301.352 406.28L300.799 406.461C300.431 406.59 300.058 406.699 299.703 406.839L298.65 407.304C297.266 407.963 296.003 408.793 294.9 409.767C293.779 410.747 292.799 411.84 291.98 413.02C291.132 414.207 290.407 415.455 289.813 416.75C289.206 418.046 288.697 419.375 288.291 420.728C287.863 422.084 287.52 423.46 287.243 424.867C286.75 427.252 286.467 429.662 286.226 432.109C286.154 432.73 286.118 433.314 285.979 434.002C285.767 434.668 285.427 435.3 284.974 435.87C284.173 436.936 283.307 437.908 282.482 438.896C280.787 440.804 279.357 442.875 278.22 445.068C277.104 447.211 276.706 449.579 277.071 451.906C277.285 453.052 277.691 454.165 278.275 455.212C278.886 456.265 279.631 457.258 280.496 458.171C281.372 459.098 282.335 459.963 283.373 460.758C284.418 461.536 285.533 462.242 286.708 462.868C289.052 464.125 291.645 465.002 294.358 465.455C295.704 465.678 297.076 465.764 298.445 465.713C299.816 465.662 301.175 465.474 302.496 465.155C305.698 464.496 308.763 463.414 311.579 461.947C312.954 461.206 314.216 460.32 315.335 459.309C316.434 458.297 317.347 457.148 318.044 455.9C319.328 453.471 319.849 450.796 319.554 448.14C319.277 445.451 318.492 442.818 317.231 440.345C316.816 439.512 316.298 438.668 315.841 437.918C315.546 437.437 315.299 437.039 315.1 436.729C315.01 436.584 314.938 436.47 314.896 436.387C314.853 436.304 314.799 436.387 315.022 436.056C315.022 435.999 315.022 435.947 315.058 435.953C315.061 435.947 315.062 435.941 315.062 435.935C315.062 435.928 315.061 435.922 315.058 435.916C315.065 435.925 315.069 435.935 315.069 435.945C315.069 435.955 315.065 435.965 315.058 435.973C315.047 436.023 315.029 436.072 315.004 436.118C315.321 436.219 315.596 436.399 315.792 436.635C316.144 436.939 316.455 437.276 316.719 437.639C317.886 439.404 318.87 441.252 319.663 443.164C320.516 445.153 320.974 447.252 321.017 449.372C321.059 451.546 320.603 453.706 319.675 455.729C318.705 457.753 317.232 459.57 315.359 461.052C313.488 462.48 311.367 463.646 309.075 464.508C306.807 465.392 304.444 466.085 302.02 466.577C300.033 466.994 297.978 467.122 295.941 466.955C293.919 466.787 291.934 466.373 290.048 465.724C285.252 464.074 281.136 461.234 278.226 457.566C278.016 457.276 277.757 456.929 277.474 456.531L277.065 455.848L276.842 455.471L276.643 455.057C275.963 453.708 275.578 452.263 275.506 450.794C275.458 449.896 275.518 448.997 275.686 448.109C275.882 447.137 276.178 446.181 276.571 445.254C277.512 443.205 278.743 441.265 280.237 439.475C281.001 438.518 281.832 437.561 282.645 436.584C283.054 436.097 283.457 435.601 283.848 435.094C284.216 434.644 284.476 434.136 284.613 433.599C284.781 432.388 284.878 431.069 285.04 429.755C285.203 428.441 285.377 427.101 285.642 425.746C286.109 422.97 286.877 420.237 287.935 417.583C288.194 416.9 288.537 416.238 288.832 415.571C289.127 414.903 289.513 414.246 289.934 413.61C290.714 412.308 291.659 411.083 292.751 409.958C294.933 407.655 297.846 405.946 301.136 405.038C304.344 404.246 307.716 404.07 311.013 404.521C311.809 404.605 312.598 404.726 313.379 404.883C313.77 404.961 314.155 405.002 314.546 405.106C314.938 405.209 315.335 405.302 315.72 405.421C317.204 405.906 318.581 406.606 319.789 407.49C322.085 409.137 323.761 411.331 324.605 413.796C324.978 414.943 325.126 416.136 325.044 417.324C324.939 418.432 324.629 419.519 324.123 420.542C323.232 422.283 321.992 423.874 320.457 425.244C319.292 426.307 318.01 427.27 316.629 428.121C316.057 428.483 315.522 428.788 315.04 429.047C314.805 429.176 314.583 429.295 314.366 429.398L313.475 429.848L313.066 429.667C312.939 429.605 312.765 429.538 312.723 429.522L312.301 429.367C312.018 429.269 311.748 429.186 311.477 429.114C310.98 428.974 310.468 428.882 309.948 428.84C309.576 428.782 309.194 428.799 308.83 428.889C308.467 428.978 308.133 429.139 307.853 429.357C307.473 429.741 307.238 430.216 307.179 430.717C307.139 430.935 307.125 431.155 307.137 431.374C307.137 431.576 307.137 431.762 307.137 431.928C307.19 432.514 307.42 433.077 307.805 433.563C308.445 434.378 309.377 434.992 310.459 435.311C311.104 435.534 311.784 435.675 312.476 435.73C313.256 435.823 314.052 435.737 314.781 435.482Z" fill="#221F1F"/>
<path d="M327.398 422.699C327.44 422.937 327.861 423.403 327.602 423.517C327.048 423.76 326.543 422.606 326.838 422.363C327.133 422.12 327.343 422.358 327.398 422.699Z" fill="#221F1F"/>
<path d="M327.47 422.699C327.459 422.802 327.469 422.905 327.5 423.004C327.5 423.041 327.548 423.046 327.548 423.066C327.522 423.099 327.5 423.134 327.482 423.17C327.474 423.194 327.474 423.219 327.482 423.242C327.486 423.225 327.486 423.208 327.482 423.191L327.584 423.356C327.552 423.351 327.52 423.351 327.488 423.356C327.44 423.356 327.259 423.356 327.319 423.356C327.379 423.356 327.283 423.242 327.223 423.175C327.163 423.108 327 422.999 327.054 422.761C327.054 422.679 327.367 422.679 327.656 422.647C327.945 422.616 328.198 422.539 328.222 422.58C328.296 422.699 328.351 422.826 328.385 422.958C328.421 423.097 328.431 423.24 328.415 423.382C328.402 423.447 328.382 423.512 328.355 423.573C328.318 423.652 328.265 423.724 328.198 423.786C328.135 423.847 328.057 423.897 327.969 423.93C327.917 423.949 327.863 423.961 327.807 423.967C327.579 424 327.345 423.977 327.133 423.899C326.984 423.838 326.854 423.748 326.753 423.636C326.605 423.449 326.504 423.237 326.459 423.015C326.433 422.881 326.423 422.746 326.428 422.611C326.431 422.475 326.474 422.341 326.555 422.223C326.585 422.183 326.621 422.146 326.663 422.115L326.747 422.058C326.818 422.012 326.898 421.977 326.982 421.954C327.072 421.934 327.167 421.93 327.259 421.942C327.351 421.955 327.439 421.983 327.518 422.027C327.634 422.088 327.734 422.169 327.813 422.265C327.843 422.298 327.871 422.332 327.897 422.368C327.963 422.503 327.897 422.56 327.596 422.627L327.398 422.663C327.233 422.695 327.062 422.695 326.898 422.663C326.855 422.65 326.808 422.65 326.766 422.663C326.826 422.637 326.884 422.607 326.94 422.575C326.991 422.546 327.038 422.511 327.079 422.472C327.139 422.41 327.079 422.389 327.121 422.472C327.173 422.594 327.255 422.705 327.361 422.797L327.404 422.834L327.012 422.477C327.024 422.48 327.037 422.48 327.048 422.477C327.048 422.477 327.121 422.513 327.169 422.523C327.289 422.549 327.412 422.563 327.536 422.565C327.524 422.593 327.524 422.624 327.536 422.653L327.47 422.699Z" fill="#221F1F"/>
<path d="M326.459 421.877C326.335 421.877 326.215 421.915 326.121 421.985C326.095 422.016 326.067 422.045 326.037 422.073C325.911 422.188 325.813 422.324 325.748 422.472C325.723 422.541 325.707 422.612 325.7 422.684C325.7 422.77 325.688 422.863 325.664 422.963C325.664 422.994 325.664 422.994 325.604 422.963C325.551 422.931 325.506 422.891 325.471 422.844C325.35 422.651 325.309 422.428 325.357 422.213C325.399 422.084 325.393 421.939 325.447 421.804C325.517 421.655 325.612 421.515 325.73 421.39C325.801 421.309 325.889 421.238 325.989 421.183C326.137 421.107 326.3 421.056 326.471 421.033C326.585 420.993 326.708 420.976 326.832 420.982C326.86 420.977 326.888 420.977 326.916 420.982C326.98 421.005 327.036 421.043 327.079 421.09C327.079 421.09 327.079 421.137 327 421.215C326.856 421.437 326.772 421.654 326.693 421.732C326.615 421.809 326.573 421.825 326.459 421.83V421.877Z" fill="#221F1F"/>
<path d="M482.333 411.934C483.338 414.231 483.001 417.164 481.845 419.756C480.891 421.946 479.5 423.977 477.734 425.757C475.946 427.535 473.799 429.021 471.396 430.143C466.562 432.399 461.002 433.233 455.565 432.518C450.865 431.916 446.51 430.044 443.129 427.174C439.783 424.309 437.464 420.678 436.448 416.714C435.544 413.325 435.606 409.799 436.629 406.435C437.652 403.05 439.734 399.969 442.648 397.527C445.575 395.124 449.157 393.391 453.067 392.488C456.973 391.587 461.071 391.491 465.027 392.209C469.727 393.046 474.028 395.071 477.379 398.024C478.96 399.449 480.292 401.065 481.333 402.819C482.365 404.583 483.081 406.47 483.458 408.416C483.606 409.065 483.695 409.722 483.723 410.382C483.793 410.901 483.686 411.425 483.416 411.893C483.247 412.043 483.055 411.831 482.868 411.236C482.752 410.959 482.668 410.673 482.615 410.382C482.476 409.024 482.1 407.692 481.502 406.43C480.901 405.156 480.203 403.917 479.413 402.721C477.858 400.29 475.65 398.213 472.973 396.663C470.297 395.122 467.274 394.083 464.1 393.611C458.303 392.691 452.315 393.61 447.246 396.198C444.816 397.483 442.727 399.193 441.114 401.217C439.502 403.241 438.402 405.533 437.887 407.946C437.007 411.861 437.467 415.911 439.211 419.606C441.091 423.663 444.561 427.028 449.022 429.119C451.239 430.139 453.647 430.815 456.137 431.116C460.802 431.67 465.554 431.031 469.8 429.279C471.611 428.517 473.29 427.544 474.79 426.388C477.07 424.62 478.876 422.449 480.087 420.025C480.61 418.99 481.037 417.921 481.363 416.828C481.885 415.23 482.21 413.59 482.333 411.934Z" fill="#221F1F"/>
<path d="M458.894 403.621C457.296 403.059 455.558 402.856 453.844 403.031C452.188 403.243 450.461 403.854 449.6 404.961C449.288 405.364 449.1 405.828 449.052 406.311C449.005 406.81 449.056 407.311 449.203 407.796C449.339 408.208 449.573 408.592 449.889 408.923C450.229 409.256 450.637 409.533 451.093 409.741C451.326 409.852 451.57 409.947 451.821 410.025C451.935 410.067 452.122 410.113 452.128 410.118H452.435C453.006 410.098 453.575 410.046 454.138 409.963C455.265 409.805 456.358 409.5 457.377 409.058C457.88 408.837 458.358 408.576 458.803 408.277L458.984 408.158C459.065 408.103 459.152 408.054 459.243 408.013C459.43 407.923 459.633 407.861 459.845 407.832C460.251 407.76 460.674 407.803 461.049 407.956C461.381 408.087 461.665 408.294 461.867 408.556L462.301 409.141C462.579 409.502 462.885 409.848 463.215 410.175C463.526 410.501 463.884 410.791 464.281 411.039C464.604 411.26 465.005 411.382 465.418 411.386L465.876 411.318C466.076 411.301 466.278 411.301 466.478 411.318C466.894 411.333 467.303 411.418 467.682 411.567C468.069 411.72 468.412 411.946 468.685 412.228C468.958 412.51 469.154 412.841 469.259 413.196C469.361 413.534 469.396 413.884 469.361 414.231C469.328 414.597 469.194 414.952 468.97 415.265C468.519 415.857 467.824 416.28 467.026 416.45C466.568 416.559 466.333 416.486 466.321 416.362C466.309 416.238 466.502 416.052 466.761 415.814C467.075 415.55 467.348 415.253 467.573 414.929C467.775 414.58 467.847 414.187 467.778 413.802C467.772 413.623 467.719 413.448 467.624 413.288C467.53 413.129 467.395 412.99 467.23 412.881C466.881 412.669 466.448 412.584 466.026 412.643L465.719 412.684C465.586 412.7 465.45 412.7 465.316 412.684C465.049 412.682 464.783 412.648 464.528 412.581C464.094 412.457 463.687 412.271 463.324 412.032C462.707 411.612 462.16 411.121 461.699 410.574C461.476 410.315 461.271 410.056 461.097 409.787L460.814 409.389L460.742 409.285L460.705 409.234C460.689 409.21 460.671 409.188 460.651 409.166C460.564 409.081 460.444 409.027 460.313 409.012C460.182 408.998 460.05 409.025 459.941 409.089C459.876 409.124 459.814 409.162 459.754 409.203L459.526 409.353C459.375 409.451 459.213 409.539 459.05 409.627C458.733 409.805 458.404 409.966 458.063 410.108C457.393 410.395 456.691 410.624 455.968 410.791C455.11 410.988 454.234 411.127 453.35 411.205L452.682 411.246H452.345C452.177 411.264 452.007 411.252 451.845 411.21L451.64 411.153L451.472 411.106L451.147 410.998C450.925 410.922 450.708 410.836 450.497 410.739C449.613 410.355 448.874 409.763 448.366 409.032C447.88 408.297 447.641 407.461 447.674 406.616C447.67 405.682 448.025 404.772 448.685 404.03C449.34 403.327 450.191 402.777 451.159 402.431C452.077 402.079 453.054 401.854 454.054 401.764C455.042 401.685 456.038 401.718 457.016 401.862C458.216 402.029 459.379 402.359 460.459 402.84C461.002 403.088 461.516 403.381 461.994 403.714C462.066 403.761 462.084 403.781 462.114 403.802L462.21 403.88L462.301 403.952C462.336 403.957 462.373 403.957 462.409 403.952L463.077 403.797C463.936 403.571 464.813 403.398 465.701 403.279C466.629 403.166 467.573 403.197 468.488 403.373C469.452 403.554 470.307 404.028 470.896 404.707C471.179 405.043 471.398 405.415 471.546 405.809C471.679 406.182 471.817 406.544 471.907 406.921C472.238 408.08 472.388 409.272 472.353 410.465C472.334 411.695 471.977 412.904 471.311 413.993C471.131 414.226 470.968 414.464 470.776 414.686C470.569 414.906 470.348 415.115 470.113 415.312L469.451 415.762C469.229 415.881 469.018 415.969 468.849 416.057C468.424 416.235 467.969 416.353 467.501 416.409C467.397 416.414 467.292 416.414 467.188 416.409C467.022 416.392 466.861 416.35 466.713 416.285C466.588 416.244 466.47 416.188 466.364 416.119C466.237 416.01 466.364 415.86 466.731 415.705C467.098 415.55 467.616 415.359 468.223 415.043C469.13 414.575 469.844 413.875 470.264 413.041C470.7 412.161 470.929 411.215 470.938 410.258C470.96 409.255 470.834 408.254 470.565 407.278C470.505 407.03 470.42 406.761 470.336 406.544C470.271 406.321 470.185 406.103 470.077 405.892C469.889 405.529 469.594 405.213 469.223 404.976C468.593 404.63 467.858 404.45 467.11 404.459C466.257 404.45 465.408 404.548 464.588 404.749L463.24 405.064L462.138 405.312L461.969 405.349C461.909 405.349 461.885 405.297 461.837 405.281L461.602 405.095L461.133 404.733C460.481 404.276 459.75 403.91 458.966 403.647L458.894 403.621Z" fill="#221F1F"/>
<path d="M452.333 411.313C452.297 411.316 452.26 411.316 452.224 411.313C452.221 411.325 452.221 411.338 452.224 411.349V412.26C452.224 412.777 452.224 413.295 452.273 413.812C452.323 414.828 452.505 415.836 452.814 416.817C453.078 417.579 453.452 418.309 453.928 418.99C454.134 419.289 454.363 419.576 454.614 419.849C454.74 419.978 454.855 420.128 454.993 420.247L455.415 420.604C455.978 421.062 456.658 421.4 457.401 421.592C458.165 421.75 458.963 421.746 459.726 421.58C460.488 421.414 461.192 421.092 461.777 420.64C462.333 420.242 462.82 419.777 463.221 419.259C463.396 418.98 463.613 418.742 463.757 418.437L463.98 418.007C464.062 417.841 464.155 417.679 464.257 417.521C464.433 417.268 464.624 417.023 464.829 416.786L465.136 416.45L465.292 416.279L465.37 416.197C465.37 416.15 465.485 416.145 465.497 416.083C466.075 415.729 466.71 415.449 467.381 415.25C467.615 415.179 467.822 415.056 467.982 414.893C468.142 414.73 468.248 414.534 468.29 414.324C468.368 413.9 468.705 413.889 468.982 414.396C469.069 414.588 469.104 414.795 469.084 415C469.064 415.205 468.99 415.404 468.868 415.581C468.695 415.827 468.463 416.039 468.187 416.202C467.937 416.349 467.668 416.472 467.387 416.569C467.053 416.674 466.737 416.816 466.448 416.993L466.111 417.335C465.978 417.474 465.852 417.614 465.738 417.754C465.623 417.883 465.517 418.018 465.419 418.157C465.376 418.224 465.34 418.281 465.316 418.328L465.16 418.607C464.761 419.36 464.234 420.058 463.595 420.677C462.938 421.316 462.145 421.843 461.259 422.228C460.351 422.629 459.334 422.808 458.316 422.746C456.939 422.666 455.637 422.182 454.626 421.375C453.645 420.612 452.856 419.684 452.309 418.649C451.722 417.543 451.34 416.364 451.177 415.157C451.02 413.979 450.956 412.793 450.984 411.608V410.299C451.49 410.299 452.044 410.237 452.381 410.201C452.718 410.165 453.019 410.134 453.332 410.092C453.97 410.01 454.596 409.896 455.21 409.761C456.401 409.527 457.539 409.126 458.581 408.577C458.833 408.427 459.008 408.282 459.393 408.085C459.752 407.93 460.16 407.879 460.555 407.94C460.948 408.006 461.307 408.178 461.578 408.432C461.779 408.661 461.966 408.9 462.138 409.146C462.631 409.816 463.24 410.418 463.944 410.93C464.258 411.157 464.629 411.318 465.027 411.401C465.113 411.411 465.2 411.411 465.286 411.401C465.371 411.405 465.457 411.396 465.539 411.375L465.924 411.313C466.068 411.306 466.213 411.306 466.358 411.313C466.874 411.306 467.384 411.413 467.838 411.624C468.152 411.762 468.427 411.958 468.644 412.197C468.86 412.437 469.013 412.714 469.09 413.01C469.13 413.162 469.13 413.319 469.09 413.47C469.068 413.582 469.009 413.686 468.922 413.77C468.86 413.849 468.785 413.918 468.699 413.977C468.404 414.117 468.32 413.507 467.79 412.943C467.58 412.739 467.312 412.584 467.013 412.494C466.714 412.403 466.393 412.38 466.081 412.425L465.822 412.467C465.668 412.502 465.511 412.521 465.352 412.524C465.037 412.533 464.723 412.493 464.425 412.405C463.907 412.244 463.429 412 463.017 411.686C462.28 411.129 461.638 410.487 461.109 409.777C460.976 409.606 460.85 409.43 460.724 409.26C460.675 409.185 460.607 409.121 460.525 409.073C460.449 409.034 460.364 409.009 460.275 409.001C460.187 408.993 460.097 409.002 460.013 409.027C459.95 409.053 459.889 409.084 459.833 409.12L459.369 409.42C459.059 409.613 458.734 409.786 458.394 409.937C457.746 410.223 457.069 410.457 456.372 410.636C455.694 410.817 455.005 410.964 454.307 411.075C453.958 411.137 453.615 411.184 453.266 411.23L452.742 411.293L452.357 411.334L452.333 411.313Z" fill="#221F1F"/>
<path d="M453.795 404.676C457.268 405.747 454.885 406.321 453.958 406.026C453.531 405.887 452.947 405.814 452.784 405.385C452.248 403.957 457.985 404.081 457.678 406.466C457.449 408.261 453.922 408.753 452.82 407.589C452.446 407.098 452.207 406.541 452.122 405.959C451.959 404.925 452.05 404.883 453.199 404.319C455.908 402.985 458.858 405.204 461.717 405.421C464.124 405.607 466.357 404.449 468.434 405.897C469.277 406.482 471.6 405.437 470.469 404.645C468.488 403.269 466.592 403.538 464.179 403.771C460.796 404.102 457.937 401.997 454.548 402.219C452.501 402.359 449.811 403.254 449.474 405.225C449.197 406.87 450.184 408.991 452.008 409.699C455.619 411.112 463.589 406.808 458.839 403.761C457.828 403.189 456.662 402.85 455.454 402.778C454.245 402.705 453.036 402.901 451.941 403.347C450.455 404.009 449.251 405.416 450.647 406.647C451.935 407.77 454.939 408.09 456.552 407.397C459.032 406.332 457.323 403.818 455.348 403.207C454.301 402.886 452.279 404.185 453.819 404.656L453.795 404.676Z" fill="#221F1F"/>
<path d="M458.28 404.656C458.592 405.109 459.031 405.488 459.556 405.759C460.081 406.03 460.677 406.184 461.289 406.207C462.969 406.29 464.455 405.437 466.105 405.431C467.035 405.437 467.936 405.714 468.66 406.217C469.384 406.719 469.888 407.418 470.089 408.199C470.517 409.617 470.089 411.231 468.205 411.587C467.14 411.784 467.393 412.565 468.452 412.369C471.558 411.784 472.894 409.187 471.347 406.766C470.927 406.105 470.311 405.551 469.562 405.159C468.812 404.768 467.956 404.553 467.08 404.537C464.51 404.48 461.801 406.44 459.923 404.086C459.58 403.657 457.894 404.164 458.31 404.681L458.28 404.656Z" fill="#221F1F"/>
<path d="M458.731 406.197C459.456 406.787 460.378 407.165 461.368 407.278C462.499 407.454 463.968 407.361 464.636 408.313C465.106 408.985 464.744 409.798 465.148 410.501C465.605 411.298 466.628 411.536 467.597 411.489C469.698 411.422 471.077 409.994 470.493 408.215C469.728 405.897 466.532 405.059 464.088 405.581C462.505 405.918 462.884 407.097 464.455 406.761C466.026 406.425 468.765 408.463 467.935 409.948C467.85 410.067 467.88 410.118 468.025 410.113L467.694 409.782C467.61 409.58 467.56 409.37 467.543 409.156C467.549 408.735 467.495 408.314 467.381 407.904C466.394 405.545 462.854 406.761 461.151 405.318C460.483 404.738 458.003 405.587 458.743 406.213L458.731 406.197Z" fill="#221F1F"/>
<path d="M458.954 406.813C460.477 408.613 462.914 409.704 465.515 409.197C466.604 408.98 466.279 407.961 465.196 408.163C463.342 408.53 461.584 407.366 460.549 406.14C460.085 405.623 458.424 406.176 458.954 406.802V406.813Z" fill="#221F1F"/>
<path d="M453.41 409.756C451.604 409.239 450.148 408.111 450.352 406.378C450.442 405.644 450.804 404.953 451.385 404.409C451.966 403.865 452.735 403.496 453.579 403.357C454.397 403.207 454.181 402.498 453.356 402.643C452.308 402.807 451.341 403.236 450.578 403.875C449.814 404.513 449.29 405.332 449.07 406.228C448.643 408.37 450.437 409.849 452.64 410.47C453.157 410.615 454.181 409.953 453.41 409.756Z" fill="#221F1F"/>
<path d="M460.212 407.402C461.169 408.758 462.674 411.143 464.696 411.406C465.972 411.572 467.411 411.199 468.308 412.239C468.491 412.493 468.625 412.771 468.705 413.062C468.831 413.351 468.434 413.667 468.898 413.424C467.892 413.941 468.813 414.805 469.68 414.35C471.269 413.512 470.282 411.587 469.042 410.889C467.802 410.191 466.099 410.656 464.871 410.103C463.643 409.549 462.523 407.775 461.789 406.73C461.362 406.13 459.706 406.73 460.194 407.402H460.212Z" fill="#221F1F"/>
<path d="M421.033 434.39C422.545 434.178 424.096 434.297 425.541 434.737C427.095 435.214 428.536 435.927 429.797 436.842C434.001 439.982 436.92 444.201 438.121 448.875C438.757 451.203 438.918 453.608 438.597 455.983C438.304 458.359 437.566 460.679 436.412 462.853C434.446 466.649 431.181 469.841 427.052 472.004C424.084 473.469 420.804 474.406 417.406 474.762C414.009 475.117 410.563 474.883 407.273 474.073C405.293 473.604 403.396 472.908 401.633 472.004C399.847 471.108 398.224 469.99 396.817 468.688C396.48 468.357 396.101 468.052 395.794 467.7L394.855 466.665C394.554 466.303 394.289 465.925 394.012 465.558C393.727 465.19 393.469 464.807 393.242 464.41C392.753 463.635 392.317 462.837 391.936 462.02C391.575 461.195 391.266 460.354 391.009 459.5C390.756 458.648 390.555 457.784 390.407 456.914C390.285 456.04 390.215 455.161 390.196 454.281C390.18 453.4 390.224 452.519 390.329 451.643L390.551 450.334C390.611 449.894 390.768 449.47 390.876 449.035C391.347 447.309 392.105 445.65 393.128 444.111C394.329 442.289 395.866 440.647 397.678 439.248C399.485 437.858 401.511 436.694 403.697 435.792C407.885 434.109 412.427 433.176 417.048 433.051C417.824 433.012 418.602 433.012 419.377 433.051C420.006 433.05 420.62 433.217 421.135 433.526C421.286 433.697 421.003 433.816 420.28 433.889C419.939 433.949 419.593 433.985 419.245 433.997C418.417 433.988 417.589 434.019 416.765 434.09C415.971 434.194 415.194 434.266 414.424 434.421L413.268 434.628L412.094 434.877C411.3 435.021 410.493 435.239 409.614 435.394C408.013 435.749 406.452 436.227 404.949 436.822C404.185 437.091 403.487 437.463 402.752 437.789L401.717 438.358L401.199 438.648L400.706 438.963L399.755 439.563L398.84 440.267C398.689 440.386 398.533 440.5 398.388 440.619L397.967 441.002C397.69 441.26 397.407 441.519 397.136 441.772C396.613 442.307 396.125 442.867 395.674 443.448L395.006 444.328L394.434 445.249C393.242 447.24 392.466 449.395 392.14 451.617C391.934 453.041 391.902 454.48 392.044 455.91C392.172 457.348 392.483 458.768 392.971 460.147C393.595 461.887 394.492 463.546 395.638 465.077C397.619 467.754 400.401 469.925 403.691 471.362C405.704 472.237 407.856 472.853 410.078 473.188C412.485 473.552 414.942 473.604 417.367 473.344C419.894 473.08 422.353 472.459 424.644 471.507C426.968 470.526 429.055 469.176 430.796 467.529C432.525 465.897 433.937 464.037 434.979 462.02C435.969 460.073 436.616 458.01 436.899 455.9C437.169 453.938 437.1 451.953 436.695 450.008C436.316 448.261 435.698 446.56 434.853 444.938C434.139 443.559 433.261 442.247 432.234 441.022C431.424 440.072 430.514 439.189 429.514 438.384C429.133 438.074 428.731 437.784 428.31 437.515L427.804 437.163L427.347 436.899C426.793 436.579 426.444 436.382 426.33 436.33L425.27 435.813L424.066 435.296C423.651 435.12 423.182 434.99 422.682 434.815C422.182 434.639 421.665 434.551 421.033 434.39Z" fill="#221F1F"/>
<path d="M410.8 453.474C410.065 453.665 409.308 453.788 408.543 453.841C408.163 453.87 407.781 453.879 407.399 453.867C407.325 453.871 407.251 453.871 407.176 453.867H407.134H407.038C407.033 453.908 407.033 453.95 407.038 453.991L407.008 454.726L406.96 456.278C406.952 457.08 407.002 457.881 407.11 458.678C407.234 460.046 407.781 461.36 408.693 462.485C408.922 462.761 409.178 463.018 409.458 463.256C409.602 463.37 409.735 463.499 409.885 463.603L410.355 463.892C410.993 464.259 411.731 464.479 412.497 464.529C413.189 464.544 413.876 464.437 414.517 464.212C415.157 463.988 415.736 463.652 416.217 463.225C416.871 462.685 417.407 462.049 417.8 461.347C418.24 460.654 418.468 459.94 418.974 459.102C419.155 458.828 419.432 458.75 419.492 458.849C419.547 459.018 419.583 459.191 419.6 459.366C419.661 459.679 419.674 459.997 419.636 460.313C419.63 460.37 419.618 460.427 419.6 460.483C419.6 460.483 419.6 460.52 419.6 460.525C419.6 460.53 419.6 460.499 419.6 460.525V460.602C419.6 460.711 419.546 460.82 419.516 460.933C419.455 461.176 419.358 461.411 419.227 461.632C418.77 462.471 418.147 463.236 417.385 463.892C416.609 464.585 415.645 465.102 414.58 465.398C413.485 465.706 412.305 465.715 411.203 465.424C410.142 465.127 409.192 464.591 408.453 463.872C407.589 463.047 406.917 462.089 406.472 461.047C406.053 460.016 405.811 458.937 405.756 457.845C405.708 457.048 405.714 456.257 405.756 455.471L405.852 452.656C406.207 452.708 406.562 452.755 406.906 452.791H407.351H407.652C408.054 452.796 408.457 452.776 408.856 452.729C409.628 452.651 410.385 452.486 411.107 452.237C411.466 452.112 411.815 451.969 412.154 451.808L412.642 451.544C412.816 451.441 412.913 451.368 413.196 451.193L413.479 451.048C413.58 451.014 413.69 451.005 413.798 451.022C414.015 451.065 414.22 451.146 414.4 451.26C414.546 451.349 414.687 451.446 414.821 451.549L415.176 451.824C415.639 452.196 416.079 452.563 416.53 452.915C416.972 453.262 417.443 453.58 417.939 453.867C418.385 454.148 418.907 454.326 419.456 454.384C419.55 454.389 419.644 454.389 419.739 454.384H419.883L420.094 454.353C420.365 454.322 420.641 454.322 420.912 454.353C421.467 454.411 421.993 454.601 422.429 454.902C422.863 455.22 423.176 455.644 423.326 456.117C423.478 456.584 423.495 457.076 423.374 457.55C423.301 457.789 423.172 458.013 422.995 458.207C422.811 458.393 422.586 458.546 422.333 458.657C422.004 458.795 421.656 458.897 421.298 458.962C421.033 459.014 420.834 459.045 420.696 459.066C420.452 459.109 420.2 459.1 419.961 459.04C419.856 459.028 419.751 459.011 419.648 458.988C419.504 458.942 419.516 458.792 419.745 458.564C420.104 458.284 420.535 458.08 421.003 457.969C421.335 457.892 421.649 457.764 421.93 457.592C422.014 457.527 422.08 457.447 422.123 457.357C422.167 457.268 422.187 457.171 422.182 457.074C422.199 456.8 422.15 456.525 422.038 456.267C421.939 456.04 421.763 455.844 421.532 455.703C421.295 455.557 421.017 455.468 420.726 455.445C420.58 455.429 420.432 455.429 420.286 455.445L419.991 455.491C419.831 455.517 419.667 455.529 419.504 455.528C418.922 455.505 418.354 455.368 417.843 455.129C417.402 454.928 416.984 454.694 416.59 454.431C415.91 453.981 415.308 453.489 414.725 453.019C414.436 452.786 414.123 452.553 413.876 452.362L413.78 452.294L413.599 452.413C413.485 452.491 413.358 452.553 413.238 452.62C412.997 452.758 412.748 452.884 412.491 452.998C411.98 453.234 411.444 453.427 410.89 453.577L410.8 453.474Z" fill="#221F1F"/>
<path d="M425.132 448.772C424.908 448.671 424.677 448.583 424.44 448.508L424.259 448.451H424.205H424.096L423.898 448.404C423.639 448.337 423.368 448.28 423.109 448.223L422.995 447.23C422.959 447.09 422.941 446.945 422.893 446.811C422.817 446.547 422.697 446.295 422.538 446.061C422.208 445.598 421.717 445.236 421.135 445.026C419.779 444.593 418.311 444.491 416.891 444.731C416.663 444.762 416.44 444.804 416.223 444.85C416.115 444.85 416.001 444.897 415.904 444.928L415.766 444.969C415.766 444.969 415.712 444.969 415.682 444.969L415.603 444.907L415.441 444.783L415.32 444.814L415.164 444.861C415.116 444.865 415.067 444.865 415.019 444.861C414.881 444.861 414.773 444.887 414.58 444.918L414.412 444.737L414.261 444.628L414.068 444.504C413.936 444.416 413.81 444.354 413.683 444.276L413.286 444.08L412.877 443.914C412.435 443.751 411.961 443.664 411.48 443.655C411.012 443.662 410.554 443.773 410.15 443.976L409.837 444.126L409.548 444.338L409.259 444.545L409.006 444.804C408.826 444.963 408.662 445.136 408.519 445.321L407.917 446.149L407.538 446.195L407.2 446.247L406.773 446.33C406.484 446.392 406.201 446.464 405.924 446.547C405.375 446.704 404.848 446.914 404.353 447.173C403.867 447.41 403.441 447.728 403.101 448.11C402.76 448.491 402.513 448.927 402.373 449.392C402.329 449.587 402.297 449.784 402.277 449.982V450.867L401.88 451.079C401.747 451.146 401.603 451.239 401.542 451.275C401.482 451.311 401.235 451.472 401.085 451.575C400.79 451.786 400.508 452.01 400.242 452.248C399.721 452.711 399.294 453.246 398.978 453.831C398.729 454.304 398.605 454.82 398.615 455.339C398.626 455.859 398.77 456.37 399.038 456.836C399.625 457.82 400.426 458.698 401.398 459.423C402 459.899 401.705 460.106 400.904 459.94C400.376 459.823 399.878 459.621 399.436 459.345C398.776 458.959 398.232 458.445 397.847 457.845C397.377 457.143 397.105 456.357 397.052 455.548C397.019 454.729 397.226 453.916 397.654 453.184C398.054 452.496 398.585 451.87 399.225 451.332C399.527 451.066 399.849 450.818 400.188 450.587C400.357 450.473 400.531 450.365 400.706 450.256C400.88 450.148 400.778 450.215 400.796 450.204C400.796 450.204 400.796 450.204 400.796 450.173V450.034C400.796 449.961 400.796 449.884 400.796 449.806C400.844 449.494 400.916 449.184 401.013 448.88C401.119 448.574 401.268 448.28 401.458 448.006C401.545 447.868 401.642 447.735 401.747 447.608L402.09 447.245C402.559 446.799 403.11 446.422 403.721 446.128C404.293 445.847 404.898 445.619 405.527 445.45C405.816 445.373 406.129 445.306 406.412 445.243C406.568 445.243 406.713 445.181 406.869 445.161C406.922 445.158 406.974 445.158 407.026 445.161C407.042 445.145 407.056 445.127 407.068 445.109L407.14 445.016L407.447 444.602C407.664 444.333 407.935 444.085 408.182 443.826C408.746 443.303 409.451 442.907 410.234 442.672C411.046 442.453 411.914 442.442 412.732 442.641C413.501 442.829 414.22 443.141 414.851 443.562L415.062 443.702L415.152 443.764C415.2 443.795 415.23 443.862 415.29 443.811L415.393 443.779C415.453 443.779 415.609 443.723 415.706 443.702C415.934 443.65 416.157 443.609 416.38 443.573C416.826 443.504 417.276 443.455 417.728 443.428C418.645 443.366 419.567 443.418 420.467 443.583C421.417 443.749 422.297 444.133 423.013 444.695C423.364 444.999 423.656 445.348 423.88 445.73C424.085 446.104 424.229 446.501 424.307 446.909C424.324 446.978 424.336 447.047 424.343 447.116C424.337 447.164 424.337 447.213 424.343 447.261L424.512 447.302L424.777 447.385C425.037 447.466 425.292 447.56 425.541 447.664C426.075 447.843 426.582 448.076 427.052 448.358C427.509 448.672 427.89 449.06 428.171 449.501C428.46 449.954 428.617 450.459 428.629 450.975C428.629 451.193 428.587 451.41 428.569 451.627C428.525 451.838 428.463 452.045 428.382 452.248L428.274 452.548L428.123 452.817C428.069 452.92 428.003 453.013 427.967 453.107C428.366 453.449 428.744 453.81 429.098 454.188C429.529 454.638 429.919 455.115 430.266 455.615C430.627 456.122 430.91 456.666 431.109 457.235C431.329 457.828 431.373 458.46 431.235 459.071C431.125 459.522 430.898 459.946 430.573 460.313C430.414 460.497 430.236 460.67 430.043 460.83C429.954 460.908 429.858 460.979 429.755 461.042L429.586 461.161L429.556 461.228L429.514 461.327L429.381 461.606C429.291 461.787 429.195 461.963 429.086 462.123C428.882 462.48 428.65 462.826 428.394 463.158C427.873 463.85 427.193 464.443 426.396 464.901C425.822 465.225 425.169 465.43 424.488 465.501C423.948 465.551 423.402 465.511 422.881 465.382C422.535 465.303 422.205 465.181 421.899 465.02C421.542 464.861 421.266 464.594 421.123 464.27C421.07 464.162 421.031 464.049 421.009 463.934C421.009 463.779 421.231 463.763 421.611 463.867C422.138 464.022 422.674 464.154 423.218 464.26C423.777 464.35 424.354 464.317 424.894 464.163C425.434 464.01 425.92 463.74 426.306 463.38C426.751 462.999 427.14 462.572 427.461 462.108C427.624 461.87 427.78 461.621 427.925 461.368C427.997 461.244 428.063 461.114 428.129 460.985L428.22 460.794C428.286 460.664 428.346 460.514 428.406 460.37L428.93 460.033C429.016 459.979 429.096 459.918 429.171 459.852C429.245 459.795 429.314 459.733 429.375 459.666C429.441 459.604 429.5 459.536 429.55 459.464C429.757 459.196 429.88 458.886 429.905 458.564C429.892 457.79 429.625 457.035 429.135 456.386C428.817 455.916 428.457 455.468 428.057 455.046C427.852 454.834 427.642 454.622 427.425 454.415L427.257 454.265L426.98 454.017C426.739 453.81 426.474 453.608 426.221 453.407L426.883 452.196C426.992 451.994 427.028 451.793 427.112 451.596C427.15 451.404 427.176 451.211 427.19 451.017C427.18 450.841 427.146 450.668 427.088 450.499C426.913 450.12 426.65 449.775 426.314 449.486C425.979 449.197 425.579 448.97 425.138 448.818L425.132 448.772Z" fill="#221F1F"/>
<path d="M422.05 461.585C423.934 463.654 427.515 460.582 424.867 459.371C424.294 459.15 423.66 459.072 423.038 459.147C422.416 459.222 421.831 459.447 421.352 459.795C420.19 460.675 420.653 462.015 421.484 462.956C423.097 464.782 425.698 464.384 427.16 462.677C429.074 460.457 427.239 457.167 423.844 458.068C423.061 458.28 423.242 458.952 424.048 458.74C427.257 457.886 427.335 462.578 424.813 463.396C423.609 463.768 422.405 462.454 422.098 461.59C421.791 460.726 422.321 459.744 423.621 459.919C423.766 459.948 423.903 460.002 424.023 460.078C424.143 460.154 424.244 460.25 424.32 460.36C424.395 460.47 424.444 460.593 424.462 460.72C424.481 460.847 424.469 460.976 424.428 461.099C424.211 461.549 423.591 461.497 423.254 461.13C422.917 460.763 421.677 461.192 422.05 461.601V461.585Z" fill="#221F1F"/>
<path d="M422.7 453.639C422.82 454.534 425.71 453.95 425.8 453.039C426.047 450.97 421.773 451.415 421.918 453.557C422.038 455.336 425.336 455.59 426.625 454.648C427.515 453.996 428.364 452.827 427.828 451.813C427.369 451.085 426.664 450.494 425.806 450.117C423.326 448.978 419.082 450.846 420.623 453.495C420.846 453.877 421.96 453.582 421.755 453.236C421.539 452.86 421.469 452.434 421.554 452.021C421.64 451.608 421.876 451.23 422.23 450.941C422.584 450.652 423.036 450.468 423.52 450.415C424.004 450.363 424.495 450.445 424.921 450.649C425.625 450.965 426.613 451.643 426.823 452.351C427.293 453.939 424.759 455.326 423.392 454.079C423.25 453.952 423.147 453.797 423.09 453.627C423.033 453.458 423.025 453.279 423.067 453.107C423.446 451.968 424.747 452.444 424.65 453.055C424.602 453.36 423.85 453.464 423.838 453.36C423.783 452.967 422.634 453.2 422.7 453.624V453.639Z" fill="#221F1F"/>
<path d="M413.876 447.473C413.972 448.192 416.199 447.727 416.284 447.023C416.464 445.533 413.274 445.864 413.37 447.421C413.454 448.73 415.88 448.818 416.783 448.14C417.385 447.69 417.951 446.914 417.596 446.216C417.294 445.723 416.82 445.323 416.241 445.073C414.556 444.292 411.426 445.544 412.534 447.401C412.75 447.778 413.864 447.483 413.665 447.137C413.518 446.931 413.453 446.689 413.481 446.448C413.509 446.208 413.629 445.982 413.821 445.805C414.013 445.629 414.268 445.512 414.545 445.472C414.823 445.432 415.108 445.472 415.357 445.585C415.891 445.792 416.319 446.16 416.56 446.62C416.819 447.504 415.525 448.332 414.719 447.618C414.633 447.545 414.571 447.454 414.537 447.355C414.504 447.255 414.5 447.15 414.526 447.049C414.755 446.532 415.212 446.811 415.128 447.075C415.092 447.235 415.128 447.049 415.128 447.121H414.965C414.887 447.121 414.911 447.121 415.025 447.194C414.971 446.801 413.822 447.028 413.888 447.452L413.876 447.473Z" fill="#221F1F"/>
<path d="M422.2 448.746C422.062 448.585 422.17 448.89 421.96 448.906C421.851 449.009 421.809 449.035 421.839 448.978C421.726 448.857 421.652 448.713 421.623 448.559C421.779 447.551 422.826 448.487 422.899 448.813C422.918 449.052 422.847 449.29 422.694 449.491C422.607 449.649 422.48 449.788 422.323 449.899C422.165 450.01 421.981 450.089 421.784 450.132C421.587 450.174 421.381 450.179 421.181 450.145C420.981 450.111 420.793 450.039 420.629 449.935C420.474 449.869 420.338 449.772 420.233 449.653C420.129 449.533 420.058 449.395 420.027 449.247C419.86 448.663 419.917 448.048 420.19 447.494C420.333 447.241 420.559 447.03 420.841 446.888C421.123 446.745 421.448 446.678 421.774 446.694C422.101 446.71 422.414 446.809 422.675 446.978C422.937 447.147 423.134 447.379 423.242 447.644C423.416 448.037 424.542 447.758 424.373 447.38C423.633 445.683 420.792 445.642 419.504 446.914C418.781 447.628 418.475 449.087 419.082 449.935C419.624 450.691 421.027 450.898 421.96 450.779C422.386 450.696 422.784 450.527 423.12 450.286C423.456 450.045 423.721 449.738 423.892 449.392C424.885 447.494 421.015 446.63 420.521 448.44C420.472 448.621 420.483 448.81 420.553 448.986C420.623 449.162 420.748 449.317 420.916 449.435C421.083 449.552 421.285 449.627 421.5 449.65C421.714 449.674 421.932 449.646 422.128 449.568C422.519 449.449 423.675 448.803 423.272 448.342C422.995 448.027 421.905 448.384 422.225 448.746H422.2Z" fill="#221F1F"/>
<path d="M407.628 449.423C407.026 449.537 407.598 449.589 407.676 450.023C407.827 450.872 405.87 450.153 406.665 449.273L408.29 448.803C408.508 448.851 408.71 448.944 408.878 449.074C409.045 449.203 409.174 449.366 409.253 449.547C409.365 449.886 409.365 450.244 409.253 450.582C409.036 451.394 408.296 452.574 407.17 452.579C406.65 452.53 406.15 452.377 405.711 452.131C405.272 451.886 404.906 451.556 404.642 451.167C403.794 449.93 404.444 447.509 406.55 447.778C407.056 447.84 407.724 447.235 406.966 447.137C406.358 447.074 405.743 447.151 405.182 447.361C404.621 447.571 404.135 447.905 403.775 448.33C403.415 448.755 403.194 449.255 403.133 449.778C403.073 450.301 403.176 450.829 403.432 451.306C404.329 452.884 406.791 453.774 408.591 452.786C410.806 451.575 411.396 447.882 407.863 448.104C406.701 448.182 405.365 448.797 405.413 449.93C405.455 450.918 406.328 451.249 407.363 451.12C408.17 451.017 408.976 450.603 408.82 449.816C408.705 449.242 408.158 448.678 407.435 448.823C406.713 448.968 406.924 449.553 407.622 449.413L407.628 449.423Z" fill="#221F1F"/>
<path d="M402.975 455.528C403.95 455.988 402.584 456.045 402.337 455.926C401.735 455.662 402.162 455.517 402.62 455.331C402.851 455.236 403.109 455.2 403.363 455.229C403.618 455.257 403.857 455.348 404.052 455.491C404.247 455.634 404.389 455.823 404.462 456.034C404.535 456.245 404.535 456.47 404.462 456.681C404.04 458.331 401.247 458.471 400.308 457.142C399.856 456.407 399.679 455.571 399.803 454.746C400.068 452.993 402.65 452.248 403.872 453.888C404.119 454.214 405.208 453.888 404.919 453.479C403.535 451.622 399.809 452.113 398.9 454.115C398.298 455.398 398.659 457.478 400.134 458.223C400.688 458.509 401.315 458.674 401.96 458.703C402.605 458.733 403.249 458.627 403.836 458.393C404.763 457.974 405.756 457.069 405.642 456.112C405.627 455.876 405.555 455.645 405.431 455.435C405.306 455.224 405.132 455.038 404.918 454.889C404.705 454.74 404.458 454.631 404.193 454.569C403.927 454.507 403.65 454.493 403.378 454.529C402.674 454.612 401.007 455 400.868 455.766C400.543 457.612 406.526 456.283 403.878 455.005C403.493 454.824 402.469 455.284 402.987 455.522L402.975 455.528Z" fill="#221F1F"/>
<path d="M408.802 449.972C408.609 450.572 409.644 451.286 410.288 451.275C410.713 451.25 411.111 451.088 411.404 450.823C411.697 450.558 411.863 450.208 411.871 449.842C411.643 447.84 408.29 448.12 407.995 449.998C407.652 452.144 411.083 452.615 412.708 451.844C415.345 450.587 414.436 447.706 412.317 446.428C409.771 444.876 406.809 446.775 406.954 449.227C406.954 449.61 408.115 449.397 408.091 448.968C408.043 448.197 408.374 447.09 409.235 446.702C410.096 446.314 411.083 446.671 411.745 447.168C412.81 447.975 413.773 449.547 412.949 450.732C411.98 452.113 408.922 451.653 409.139 449.899C409.247 449.03 410.162 448.989 410.577 449.692C411.233 450.805 409.747 450.515 409.945 449.879C410.078 449.46 408.928 449.589 408.808 449.972H408.802Z" fill="#221F1F"/>
<path d="M418.872 451.901C419.341 451.668 419.474 451.555 419.185 451.555C419.073 451.552 418.964 451.533 418.86 451.498C418.703 451.394 418.505 451.384 418.378 451.234C418.29 451.102 418.249 450.95 418.261 450.798C418.273 450.646 418.338 450.501 418.446 450.38C418.554 450.259 418.701 450.169 418.869 450.12C419.037 450.071 419.218 450.067 419.389 450.106C419.699 450.202 419.976 450.362 420.196 450.572C421.219 451.415 420.256 453.764 418.769 453.764C417.283 453.764 416.211 452.072 416.007 451.017C415.736 449.61 417.21 448.353 418.685 448.239C419 448.195 419.322 448.213 419.627 448.293C419.932 448.373 420.212 448.512 420.444 448.7C420.677 448.887 420.856 449.118 420.969 449.374C421.081 449.631 421.124 449.906 421.093 450.179C421.093 450.639 422.212 450.473 422.237 450.085C422.381 447.375 418.625 446.909 416.536 448.254C415.435 448.968 414.562 450.189 414.899 451.399C415.176 452.388 416.007 453.645 417.084 454.126C419.522 455.217 421.466 453.443 421.767 451.451C422.038 449.615 418.715 448.637 417.445 450.101C416.241 451.487 418.649 452.957 419.907 451.927C419.947 451.896 419.977 451.857 419.994 451.814C420.012 451.771 420.017 451.724 420.009 451.679V451.643C419.889 451.239 418.757 451.498 418.872 451.901Z" fill="#221F1F"/>
<path d="M427.654 456.81C426.029 455.615 423.398 457.085 424.084 458.88C424.771 460.675 427.467 460.375 428.822 459.35C430.429 458.14 430.669 456.205 428.749 455.155C427.803 454.65 426.676 454.456 425.576 454.61C424.477 454.763 423.479 455.252 422.766 455.988C423.209 456.065 423.668 455.99 424.048 455.781C425.252 454.41 427.792 455.15 428.629 456.5C428.79 456.798 428.864 457.125 428.846 457.452C428.828 457.78 428.719 458.099 428.527 458.383C428.087 459.206 427.214 460.183 426.089 459.464C425.844 459.288 425.645 459.071 425.504 458.825C425.363 458.579 425.283 458.31 425.27 458.036C425.24 457.421 425.619 456.619 426.42 457.209C426.673 457.395 427.822 456.955 427.624 456.831L427.654 456.81Z" fill="#221F1F"/>
</svg>
