<svg width="48" height="52" viewBox="0 0 48 52" fill="none" xmlns="http://www.w3.org/2000/svg">
<path d="M33.4222 3.03034C32.7822 3.20965 31.7867 3.56828 31.1822 3.83724C30.5955 4.08828 29.5467 4.3931 28.8533 4.51862C27.52 4.73379 27.6622 4.76965 24 3.74759C21.1733 2.97655 17.3511 3.15586 14.5067 4.17793C9.95555 5.84552 6.45332 9.75448 5.68888 14.0221C4.83555 18.7379 6.59555 23.2207 10.5067 26.2152C12.5689 27.7931 14.1333 28.5462 16.6755 29.1379C17.9555 29.4428 20.48 29.4966 20.9778 29.2276C21.4933 28.9407 21.7244 28.0262 21.4222 27.4524C21.0311 26.6634 20.7467 26.5379 19.0044 26.3407C13.9555 25.7848 10.2755 22.7903 9.15555 18.3793C7.92888 13.52 11.1289 8.48138 16.5333 6.77793C17.6533 6.43724 18.2222 6.36552 20.0889 6.38345C22.1511 6.40138 22.4533 6.45517 24.2133 7.0469C25.2622 7.40552 26.3111 7.81793 26.56 7.97931C27.2 8.40965 27.5022 9.19862 27.7155 11.0276C28.0533 13.8966 29.4933 16.0303 31.84 17.1779C34.4178 18.451 37.1378 18.2897 39.4667 16.6938C45.0667 12.9103 43.3067 4.32138 36.6578 2.8869C35.3955 2.61793 34.7911 2.65379 33.4222 3.03034ZM36.6755 6.68828C38.2044 7.33379 39.1111 8.71448 39.1111 10.4C39.1111 12.6414 37.4755 14.3448 35.3067 14.3448C33.1378 14.3448 31.2889 12.5338 31.2889 10.4C31.2889 8.82207 32.4267 7.17241 33.8667 6.67034C34.6311 6.40138 36 6.41931 36.6755 6.68828Z" fill="black"/>
<path d="M17.1555 8.66068C14.4178 9.59309 12.6044 11.3503 11.7333 14.0041C11.1644 15.7076 11.2889 17.9131 12.0533 19.5986C13.3511 22.4496 16.1778 24.189 19.5555 24.2069C22.0266 24.2248 23.3066 25.3007 23.4311 27.5062C23.4844 28.5641 23.4666 28.6538 22.5778 30.0345C21.3866 31.9352 21.1022 32.9572 21.1911 35.0372C21.28 37.0634 21.92 38.6055 23.3244 40.0938C26.0089 42.9627 30.5066 43.3214 33.6711 40.9007C35.8578 39.2331 36.9244 36.8841 36.7644 34.0869C36.6222 31.7379 35.6266 29.8193 33.7778 28.349C32.5511 27.3807 31.1822 26.8965 29.0844 26.6993C27.0044 26.52 26.4355 26.2331 25.7066 25.0317C24.9422 23.7945 24.8533 22.2703 25.4933 21.1586C26.88 18.72 27.3422 17.0345 27.0578 15.3669C26.7378 13.3945 26.2044 12.2648 24.96 10.9559C23.36 9.23447 21.9022 8.57102 19.5733 8.48137C18.4711 8.44551 17.6178 8.51723 17.1555 8.66068ZM20.5866 12.229C21.6178 12.48 22.9333 13.771 23.2533 14.829C23.9111 17.0165 23.0578 19.0786 21.0666 20.1365C20.1244 20.6386 18.3111 20.6745 17.3689 20.1903C14.8978 18.9531 14.1511 15.8331 15.8222 13.6993C17.0311 12.1931 18.56 11.709 20.5866 12.229ZM30.8622 30.8234C32.32 31.4869 33.4044 33.5669 33.1555 35.1986C32.4444 39.6814 26.2222 40.1117 24.96 35.7724C24.3733 33.7283 25.4578 31.469 27.4133 30.6621C28.1422 30.3752 30.08 30.4648 30.8622 30.8234Z" fill="black"/>
<path d="M26.9333 21.9655C25.92 22.9697 26.8445 24.5655 28.4267 24.5655C29.6356 24.5655 31.9822 25.1752 33.4222 25.8565C36.0356 27.1117 38.2933 29.8014 38.9511 32.491C39.0578 32.9752 39.1289 34.1407 39.0756 35.1807C39.0222 36.8662 38.9511 37.1531 38.3822 38.3724C37.5289 40.1476 36.8356 41.0621 35.6089 42.0483C33.1733 44.0028 30.88 44.7379 27.6089 44.6124C25.7778 44.5407 25.28 44.451 23.6445 43.8772C21.28 43.0524 20.7111 42.5145 20.5511 40.9545C20.1956 37.5834 19.1645 35.611 17.0667 34.2483C12.8356 31.5048 7.23556 33.4772 5.63556 38.2648C5.24445 39.4124 5.24445 41.7255 5.61778 42.9448C6.25778 44.9531 8.08889 46.9255 10.08 47.7145C10.9156 48.0552 11.4489 48.1269 12.8889 48.1269C14.5778 48.1269 14.7556 48.091 16.5333 47.3559C19.0222 46.3159 20.6933 46.1724 22.6311 46.8538C24.7645 47.589 25.5822 47.7324 28.0889 47.7145C30.7556 47.7145 32.2311 47.4276 34.4711 46.4593C38.2756 44.8276 41.2267 41.4924 42.2578 37.6552C42.6667 36.1131 42.6667 33.2979 42.2578 31.7379C40.7289 25.8745 34.8267 21.5352 28.3911 21.5172C27.5378 21.5172 27.2889 21.589 26.9333 21.9655ZM14.5956 37.0634C15.9822 37.7807 16.5867 38.731 16.6756 40.309C16.7645 41.8331 16.32 42.891 15.2533 43.7159C13.44 45.1145 10.5778 44.5586 9.47556 42.5862C8.58667 40.9903 8.8 39.269 10.0267 37.9062C11.2889 36.5255 12.9245 36.2207 14.5956 37.0634Z" fill="black"/>
</svg>
