<svg width="8" height="6" viewBox="0 0 8 6" fill="none" xmlns="http://www.w3.org/2000/svg">
<g clip-path="url(#clip0_1_1063)">
<path d="M7.21517 1.5489L7.22127 1.5427C7.23664 1.52678 7.25503 1.51409 7.27536 1.50535C7.2957 1.49662 7.31757 1.49202 7.3397 1.49183C7.36183 1.49164 7.38377 1.49585 7.40426 1.50423C7.42474 1.51261 7.44335 1.52499 7.459 1.54064C7.47465 1.55629 7.48702 1.57489 7.4954 1.59538C7.50378 1.61586 7.508 1.63781 7.50781 1.65993C7.50761 1.68207 7.50302 1.70394 7.49428 1.72427C7.48555 1.7446 7.47285 1.76299 7.45693 1.77837L7.45073 1.78446L4.11745 5.11774C4.11747 5.11773 4.11744 5.11776 4.11745 5.11774C4.0862 5.14896 4.04379 5.16654 3.99962 5.16654C3.95543 5.16654 3.91304 5.14899 3.88179 5.11774L0.552603 1.78856C0.523503 1.75736 0.507447 1.71616 0.507819 1.67342C0.508199 1.62972 0.525727 1.58792 0.556628 1.55702C0.587529 1.52612 0.629332 1.50859 0.673031 1.50821C0.715764 1.50784 0.756967 1.5239 0.788163 1.553L3.64607 4.4109L3.99962 4.76445L4.35317 4.4109L7.21517 1.5489Z" fill="#1C1A1F"/>
<path d="M7.40426 1.50423C7.38377 1.49585 7.36183 1.49164 7.3397 1.49183C7.31757 1.49202 7.2957 1.49662 7.27536 1.50535C7.25503 1.51409 7.23664 1.52678 7.22127 1.5427L7.21517 1.5489L4.35317 4.4109L3.99962 4.76445L3.64607 4.4109L0.788163 1.553C0.756967 1.5239 0.715764 1.50784 0.673031 1.50821C0.629332 1.50859 0.587529 1.52612 0.556628 1.55702C0.525727 1.58792 0.508199 1.62972 0.507819 1.67342C0.507447 1.71616 0.523503 1.75736 0.552603 1.78856L3.88179 5.11774C3.91304 5.14899 3.95543 5.16654 3.99962 5.16654C4.04379 5.16654 4.0862 5.14896 4.11745 5.11774M7.40426 1.50423L7.59359 1.04147M7.40426 1.50423C7.42474 1.51261 7.44335 1.52499 7.459 1.54064C7.47465 1.55629 7.48702 1.57489 7.4954 1.59538M7.4954 1.59538L7.95439 1.40759M7.4954 1.59538C7.50378 1.61586 7.508 1.63781 7.50781 1.65993C7.50761 1.68207 7.50302 1.70394 7.49428 1.72427C7.48555 1.7446 7.47285 1.76299 7.45693 1.77837L7.45073 1.78446L4.11745 5.11774M4.11745 5.11774C4.11744 5.11776 4.11747 5.11773 4.11745 5.11774Z" stroke="#1C1A1F"/>
</g>
<defs>
<clipPath id="clip0_1_1063">
<rect width="8" height="6" fill="white"/>
</clipPath>
</defs>
</svg>
