<svg width="9" height="6" viewBox="0 0 9 6" fill="none" xmlns="http://www.w3.org/2000/svg">
<g clip-path="url(#clip0_1_1070)">
<path d="M7.90517 1.5489L7.91127 1.5427C7.92664 1.52678 7.94503 1.51409 7.96536 1.50535C7.9857 1.49662 8.00757 1.49202 8.0297 1.49183C8.05183 1.49164 8.07377 1.49585 8.09426 1.50423C8.11474 1.51261 8.13335 1.52499 8.149 1.54064C8.16465 1.55629 8.17702 1.57489 8.1854 1.59538C8.19378 1.61586 8.198 1.63781 8.19781 1.65993C8.19761 1.68207 8.19302 1.70394 8.18428 1.72427C8.17555 1.7446 8.16285 1.76299 8.14693 1.77837L8.14073 1.78446L4.80745 5.11774C4.80747 5.11773 4.80744 5.11776 4.80745 5.11774C4.7762 5.14896 4.73379 5.16654 4.68962 5.16654C4.64543 5.16654 4.60304 5.14899 4.57179 5.11774L1.24261 1.78856C1.21351 1.75736 1.19745 1.71616 1.19782 1.67342C1.1982 1.62972 1.21573 1.58792 1.24663 1.55702C1.27753 1.52612 1.31933 1.50859 1.36303 1.50821C1.40577 1.50784 1.44697 1.5239 1.47817 1.553L4.33607 4.4109L4.68962 4.76445L5.04317 4.4109L7.90517 1.5489Z" fill="#1C1A1F"/>
<path d="M8.09426 1.50423C8.07377 1.49585 8.05183 1.49164 8.0297 1.49183C8.00757 1.49202 7.9857 1.49662 7.96536 1.50535C7.94503 1.51409 7.92664 1.52678 7.91127 1.5427L7.90517 1.5489L5.04317 4.4109L4.68962 4.76445L4.33607 4.4109L1.47817 1.553C1.44697 1.5239 1.40577 1.50784 1.36303 1.50821C1.31933 1.50859 1.27753 1.52612 1.24663 1.55702C1.21573 1.58792 1.1982 1.62972 1.19782 1.67342C1.19745 1.71616 1.21351 1.75736 1.24261 1.78856L4.57179 5.11774C4.60304 5.14899 4.64543 5.16654 4.68962 5.16654C4.73379 5.16654 4.7762 5.14896 4.80745 5.11774M8.09426 1.50423L8.28359 1.04147M8.09426 1.50423C8.11474 1.51261 8.13335 1.52499 8.149 1.54064C8.16465 1.55629 8.17702 1.57489 8.1854 1.59538M8.1854 1.59538L8.64439 1.40759M8.1854 1.59538C8.19378 1.61586 8.198 1.63781 8.19781 1.65993C8.19761 1.68207 8.19302 1.70394 8.18428 1.72427C8.17555 1.7446 8.16285 1.76299 8.14693 1.77837L8.14073 1.78446L4.80745 5.11774M4.80745 5.11774C4.80744 5.11776 4.80747 5.11773 4.80745 5.11774Z" stroke="#1C1A1F"/>
</g>
<defs>
<clipPath id="clip0_1_1070">
<rect width="8" height="6" fill="white" transform="translate(0.690002)"/>
</clipPath>
</defs>
</svg>
