<svg width="20" height="20" viewBox="0 0 20 20" fill="none" xmlns="http://www.w3.org/2000/svg">
<path d="M10.0001 1.66663C5.40008 1.66663 1.66675 5.39996 1.66675 9.99996C1.66675 14.6 5.40008 18.3333 10.0001 18.3333C14.6001 18.3333 18.3334 14.6 18.3334 9.99996C18.3334 5.39996 14.6001 1.66663 10.0001 1.66663ZM5.89175 15.2333C6.25008 14.4833 8.43341 13.75 10.0001 13.75C11.5667 13.75 13.7584 14.4833 14.1084 15.2333C12.9751 16.1333 11.5501 16.6666 10.0001 16.6666C8.45008 16.6666 7.02508 16.1333 5.89175 15.2333ZM15.3001 14.025C14.1084 12.575 11.2167 12.0833 10.0001 12.0833C8.78341 12.0833 5.89175 12.575 4.70008 14.025C3.85008 12.9083 3.33341 11.5166 3.33341 9.99996C3.33341 6.32496 6.32508 3.33329 10.0001 3.33329C13.6751 3.33329 16.6667 6.32496 16.6667 9.99996C16.6667 11.5166 16.1501 12.9083 15.3001 14.025Z" fill="#5F6368"/>
<path d="M9.99992 5C8.38325 5 7.08325 6.3 7.08325 7.91667C7.08325 9.53333 8.38325 10.8333 9.99992 10.8333C11.6166 10.8333 12.9166 9.53333 12.9166 7.91667C12.9166 6.3 11.6166 5 9.99992 5ZM9.99992 9.16667C9.30825 9.16667 8.74992 8.60833 8.74992 7.91667C8.74992 7.225 9.30825 6.66667 9.99992 6.66667C10.6916 6.66667 11.2499 7.225 11.2499 7.91667C11.2499 8.60833 10.6916 9.16667 9.99992 9.16667Z" fill="#5F6368"/>
</svg>
