<svg width="30" height="31" viewBox="0 0 30 31" fill="none" xmlns="http://www.w3.org/2000/svg">
<g clip-path="url(#clip0_1_1012)">
<mask id="mask0_1_1012" style="mask-type:luminance" maskUnits="userSpaceOnUse" x="9" y="7" width="13" height="14">
<path d="M21.9255 7.9126H9.37378V20.4643H21.9255V7.9126Z" fill="white"/>
</mask>
<g mask="url(#mask0_1_1012)">
<path d="M11.9783 9.74253C11.9783 10.4648 11.3977 11.05 10.6812 11.05C9.96476 11.05 9.38424 10.4648 9.38424 9.74253C9.38424 9.0208 9.96476 8.43506 10.6812 8.43506C11.3977 8.43506 11.9783 9.0208 11.9783 9.74253ZM11.9887 12.096H9.37378V20.4638H11.9887V12.096ZM16.1632 12.096H13.565V20.4638H16.1637V16.0712C16.1637 13.6289 19.3168 13.429 19.3168 16.0712V20.4638H21.9255V15.1654C21.9255 11.0442 17.2594 11.1943 16.1632 13.223V12.096Z" fill="white"/>
</g>
</g>
<rect x="0.5" y="0.580078" width="29" height="29" rx="5.5" stroke="white"/>
<defs>
<clipPath id="clip0_1_1012">
<rect width="28" height="26" fill="white" transform="translate(1 2.08008)"/>
</clipPath>
</defs>
</svg>
