<svg width="14" height="14" viewBox="0 0 14 14" fill="none" xmlns="http://www.w3.org/2000/svg">
<g clip-path="url(#clip0_61_246)">
<path d="M13.16 7.14587C13.16 6.69087 13.1192 6.25337 13.0433 5.83337H7V8.31546H10.4533C10.3046 9.11754 9.8525 9.79712 9.17292 10.2521V11.8621H11.2467C12.46 10.745 13.16 9.10004 13.16 7.14587V7.14587Z" fill="#4285F4"/>
<path d="M7.00004 13.4166C8.73254 13.4166 10.185 12.842 11.2467 11.862L9.17295 10.252C8.59837 10.637 7.86337 10.8645 7.00004 10.8645C5.32879 10.8645 3.9142 9.73578 3.40962 8.21912H1.26587V9.88162C2.3217 11.9787 4.4917 13.4166 7.00004 13.4166Z" fill="#34A853"/>
<path d="M3.4095 8.21912C3.28117 7.83412 3.20825 7.42287 3.20825 6.99995C3.20825 6.57704 3.28117 6.16579 3.4095 5.78079V4.11829H1.26575C0.831169 4.98454 0.583252 5.96454 0.583252 6.99995C0.583252 8.03537 0.831169 9.01537 1.26575 9.88162L3.4095 8.21912V8.21912Z" fill="#FBBC05"/>
<path d="M7.00004 3.13546C7.94212 3.13546 8.78795 3.45921 9.45295 4.09504L11.2934 2.25462C10.1821 1.21921 8.72962 0.583374 7.00004 0.583374C4.4917 0.583374 2.3217 2.02129 1.26587 4.11837L3.40962 5.78087C3.9142 4.26421 5.32879 3.13546 7.00004 3.13546Z" fill="#EA4335"/>
</g>
<defs>
<clipPath id="clip0_61_246">
<rect width="14" height="14" fill="white"/>
</clipPath>
</defs>
</svg>
