<svg width="38" height="46" viewBox="0 0 38 46" fill="none" xmlns="http://www.w3.org/2000/svg">
<path d="M28.6089 0.610972C27.9689 0.790282 26.9733 1.1489 26.3689 1.41787C25.7822 1.6689 24.7333 1.97373 24.04 2.09925C22.7066 2.31442 22.8489 2.35028 19.1866 1.32821C16.36 0.557179 12.5377 0.736489 9.6933 1.75856C5.14219 3.42614 1.63997 7.33511 0.875526 11.6027C0.0221924 16.3186 1.78219 20.8013 5.6933 23.7958C7.75553 25.3737 9.31997 26.1268 11.8622 26.7186C13.1422 27.0234 15.6666 27.0772 16.1644 26.8082C16.68 26.5213 16.9111 25.6068 16.6089 25.033C16.2177 24.2441 15.9333 24.1186 14.1911 23.9213C9.14219 23.3655 5.46219 20.371 4.34219 15.9599C3.11553 11.1006 6.31553 6.06201 11.72 4.35856C12.84 4.01787 13.4089 3.94614 15.2755 3.96408C17.3377 3.98201 17.64 4.0358 19.4 4.62752C20.4489 4.98614 21.4977 5.39856 21.7466 5.55994C22.3866 5.99028 22.6889 6.77925 22.9022 8.60821C23.24 11.4772 24.68 13.611 27.0266 14.7586C29.6044 16.0317 32.3244 15.8703 34.6533 14.2744C40.2533 10.491 38.4933 1.90201 31.8444 0.467524C30.5822 0.198558 29.9777 0.23442 28.6089 0.610972ZM31.8622 4.2689C33.3911 4.91442 34.2977 6.29511 34.2977 7.98063C34.2977 10.222 32.6622 11.9255 30.4933 11.9255C28.3244 11.9255 26.4755 10.1144 26.4755 7.98063C26.4755 6.4027 27.6133 4.75304 29.0533 4.25097C29.8177 3.98201 31.1866 3.99994 31.8622 4.2689Z" fill="black"/>
<path d="M12.3422 6.24131C9.6044 7.17372 7.79107 8.93096 6.91996 11.5848C6.35107 13.2882 6.47551 15.4937 7.23996 17.1792C8.53774 20.0303 11.3644 21.7696 14.7422 21.7875C17.2133 21.8054 18.4933 22.8813 18.6177 25.0868C18.6711 26.1448 18.6533 26.2344 17.7644 27.6151C16.5733 29.5158 16.2888 30.5379 16.3777 32.6179C16.4666 34.6441 17.1066 36.1861 18.5111 37.6744C21.1955 40.5434 25.6933 40.902 28.8577 38.4813C31.0444 36.8137 32.1111 34.4648 31.9511 31.6675C31.8088 29.3185 30.8133 27.3999 28.9644 25.9296C27.7377 24.9613 26.3688 24.4772 24.2711 24.2799C22.1911 24.1006 21.6222 23.8137 20.8933 22.6123C20.1288 21.3751 20.04 19.851 20.68 18.7392C22.0666 16.3006 22.5288 14.6151 22.2444 12.9475C21.9244 10.9751 21.3911 9.84544 20.1466 8.53648C18.5466 6.8151 17.0888 6.15165 14.76 6.062C13.6577 6.02613 12.8044 6.09786 12.3422 6.24131ZM15.7733 9.80958C16.8044 10.0606 18.12 11.3517 18.44 12.4096C19.0977 14.5972 18.2444 16.6592 16.2533 17.7172C15.3111 18.2192 13.4977 18.2551 12.5555 17.771C10.0844 16.5337 9.33774 13.4137 11.0088 11.2799C12.2177 9.77372 13.7466 9.28958 15.7733 9.80958ZM26.0488 28.4041C27.5066 29.0675 28.5911 31.1475 28.3422 32.7792C27.6311 37.262 21.4088 37.6923 20.1466 33.353C19.56 31.3089 20.6444 29.0496 22.6 28.2427C23.3288 27.9558 25.2666 28.0454 26.0488 28.4041Z" fill="black"/>
<path d="M22.12 19.5461C21.1067 20.5503 22.0311 22.1461 23.6133 22.1461C24.8222 22.1461 27.1689 22.7558 28.6089 23.4372C31.2222 24.6923 33.48 27.382 34.1378 30.0717C34.2444 30.5558 34.3155 31.7213 34.2622 32.7613C34.2089 34.4468 34.1378 34.7337 33.5689 35.953C32.7155 37.7282 32.0222 38.6427 30.7955 39.6289C28.36 41.5834 26.0667 42.3186 22.7955 42.193C20.9644 42.1213 20.4667 42.0317 18.8311 41.4579C16.4667 40.633 15.8978 40.0951 15.7378 38.5351C15.3822 35.1641 14.3511 33.1917 12.2533 31.8289C8.02221 29.0855 2.42221 31.0579 0.822206 35.8455C0.431095 36.993 0.431095 39.3061 0.804428 40.5255C1.44443 42.5337 3.27554 44.5061 5.26665 45.2951C6.10221 45.6358 6.63554 45.7075 8.07554 45.7075C9.76443 45.7075 9.94221 45.6717 11.72 44.9365C14.2089 43.8965 15.88 43.753 17.8178 44.4344C19.9511 45.1696 20.7689 45.313 23.2755 45.2951C25.9422 45.2951 27.4178 45.0082 29.6578 44.0399C33.4622 42.4082 36.4133 39.073 37.4444 35.2358C37.8533 33.6937 37.8533 30.8786 37.4444 29.3186C35.9155 23.4551 30.0133 19.1158 23.5778 19.0979C22.7244 19.0979 22.4755 19.1696 22.12 19.5461ZM9.78221 34.6441C11.1689 35.3613 11.7733 36.3117 11.8622 37.8896C11.9511 39.4137 11.5067 40.4717 10.44 41.2965C8.62665 42.6951 5.76443 42.1392 4.66221 40.1668C3.77332 38.571 3.98665 36.8496 5.21332 35.4868C6.47554 34.1061 8.1111 33.8013 9.78221 34.6441Z" fill="black"/>
</svg>
