<svg width="25" height="25" viewBox="0 0 25 25" fill="none" xmlns="http://www.w3.org/2000/svg">
<path d="M20.0189 5.38128L19.283 4.64533C19.075 4.43734 18.691 4.46935 18.451 4.7573L15.8908 7.30126C14.7388 6.80532 13.4749 6.56532 12.1468 6.56532C8.1947 6.58126 4.77092 8.88523 3.1228 12.1974C3.02677 12.4054 3.02677 12.6614 3.1228 12.8373C3.89073 14.4054 5.04281 15.7014 6.48281 16.6773L4.38682 18.8053C4.14682 19.0453 4.11481 19.4293 4.27485 19.6373L5.0108 20.3732C5.21879 20.5812 5.60277 20.5492 5.84277 20.2613L19.8907 6.21339C20.1947 5.97352 20.2267 5.58956 20.0187 5.38155L20.0189 5.38128ZM12.9948 10.2132C12.7228 10.1491 12.4349 10.0692 12.1628 10.0692C10.8028 10.0692 9.71489 11.1572 9.71489 12.5171C9.71489 12.7891 9.77891 13.0771 9.85887 13.3491L8.78675 14.4051C8.4668 13.8452 8.29081 13.2211 8.29081 12.5172C8.29081 10.3892 10.0028 8.67715 12.1308 8.67715C12.8349 8.67715 13.4588 8.85314 14.0188 9.1731L12.9948 10.2132Z" fill="#666666" fill-opacity="0.8"/>
<path d="M21.1709 12.1974C20.6109 11.0773 19.8749 10.0694 18.963 9.25336L15.9869 12.1974V12.5173C15.9869 14.6453 14.2749 16.3573 12.1469 16.3573H11.8269L9.93896 18.2453C10.643 18.3893 11.379 18.4853 12.099 18.4853C16.0511 18.4853 19.4749 16.1813 21.123 12.8532C21.267 12.6291 21.267 12.4052 21.1709 12.1972L21.1709 12.1974Z" fill="#666666" fill-opacity="0.8"/>
</svg>
