<svg width="314" height="332" viewBox="0 0 314 332" fill="none" xmlns="http://www.w3.org/2000/svg">
<path d="M1 166V331H273.845V166C273.845 122.239 259.472 80.2707 233.887 49.3273C208.304 18.3838 173.604 1 137.423 1C101.241 1 66.5418 18.3838 40.9569 49.3273C15.3731 80.2707 1 122.239 1 166Z" fill="#CAD4EF"/>
<path d="M1 166V331H273.845V166C273.845 122.239 259.472 80.2707 233.887 49.3273C208.304 18.3838 173.604 1 137.423 1C101.241 1 66.5418 18.3838 40.9569 49.3273C15.3731 80.2707 1 122.239 1 166Z" stroke="#1D191F" stroke-width="1.512" stroke-miterlimit="10"/>
<path d="M79.9121 271.613C79.9121 271.613 88.1886 271.722 94.2981 269.363" stroke="#221F1F" stroke-width="2.5" stroke-miterlimit="10"/>
<path d="M156.898 107.135C156.154 106.671 155.345 106.288 154.49 105.997C153.584 105.684 152.606 105.553 151.631 105.614C150.641 105.701 149.693 106.001 148.874 106.488C148.127 106.935 147.444 107.456 146.84 108.04C146.75 108.113 148.044 109.075 148.092 109.013C148.602 108.511 149.177 108.061 149.807 107.673C150.391 107.329 151.066 107.116 151.77 107.052C152.488 107.014 153.208 107.113 153.876 107.342C154.592 107.596 155.27 107.921 155.899 108.309C156.304 107.968 156.642 107.571 156.898 107.135Z" fill="#232020"/>
<path d="M111.754 135.634L115.528 134.082C116.786 133.564 118.038 133.047 119.272 132.53C120.506 132.012 121.68 131.34 122.944 130.921C124.243 130.461 125.586 130.099 126.958 129.84L127.049 129.974C126.133 130.925 125.031 131.73 123.792 132.354C122.548 132.922 121.239 133.378 119.886 133.714C118.57 134.121 117.241 134.495 115.901 134.837C114.559 135.168 113.223 135.504 111.868 135.794L111.754 135.634Z" fill="#221F1F"/>
<path d="M189.793 85.5892C189.637 85.6513 186.332 84.1873 184.009 84.627C180.199 85.3461 178.17 87.6274 176.707 90.3174C175.437 92.6246 174.245 94.9732 172.897 97.2441C171.928 98.8943 170.965 101.693 171.693 103.69C172.506 105.935 174.878 105.966 177.038 106.168C182.347 106.685 187.488 108.915 193.242 107.445C194.639 107.089 203.758 106.457 203.89 104.859C204.516 97.0372 201.079 81.0265 189.793 85.5892ZM193.615 99.4117C193.284 99.6496 193.086 100.379 192.899 100.72C191.015 105.49 185.393 107.378 181.836 103.157C179.482 100.364 179.428 97.1459 179.428 93.8454C179.428 93.8454 185.357 94.1713 188.656 90.5295C188.656 90.5295 191.382 95.5888 193.928 94.999C194.303 94.9224 194.693 94.9216 195.067 94.9969C195.442 95.0721 195.791 95.2213 196.087 95.4326C196.384 95.6439 196.618 95.9115 196.773 96.2142C196.928 96.517 196.999 96.8466 196.98 97.1769C196.974 99.0909 194.819 98.5478 193.615 99.4117Z" fill="#221F1F"/>
<path d="M193.345 99.1323C193.262 99.295 193.233 99.4738 193.26 99.6496C193.26 99.7945 193.26 99.9238 193.296 100.053C193.335 100.316 193.335 100.582 193.296 100.845C193.261 101.1 193.2 101.353 193.116 101.6C193.025 101.86 192.904 102.111 192.755 102.35C192.298 103.201 191.641 103.963 190.826 104.586C190.011 105.209 189.055 105.68 188.018 105.971C186.909 106.247 185.729 106.218 184.641 105.888C183.591 105.543 182.65 104.99 181.896 104.274C180.676 103.09 179.807 101.671 179.362 100.136C178.957 98.6506 178.755 97.1298 178.76 95.6043V94.7352V93.2092C179.181 93.2092 179.609 93.2454 180.018 93.2454H180.421H180.728C181.138 93.2195 181.541 93.173 181.932 93.116C182.733 92.9837 183.517 92.7844 184.274 92.5211C185.025 92.2775 185.737 91.9524 186.392 91.5538L186.874 91.2434L187.307 90.8968L187.422 90.8089H187.452C187.477 90.7895 187.501 90.7688 187.524 90.7468L187.626 90.6485L188.036 90.2502L188.842 89.4173L189.402 90.4519C189.583 90.7623 189.841 91.1658 189.902 91.2589C190.118 91.5796 190.341 91.8952 190.576 92.2004C191.019 92.8004 191.547 93.3512 192.147 93.8403C192.407 94.0525 192.706 94.2272 193.032 94.3576C193.162 94.4044 193.3 94.434 193.441 94.4455C193.505 94.4507 193.569 94.4507 193.633 94.4455L193.916 94.399C194.465 94.3218 195.027 94.3609 195.554 94.5128C196.095 94.6634 196.577 94.9411 196.944 95.3146C197.29 95.6699 197.524 96.0956 197.624 96.551C197.742 96.9936 197.742 97.4533 197.624 97.896C197.555 98.1593 197.419 98.4065 197.227 98.6202C197.033 98.8302 196.794 99.0059 196.523 99.1375C196.096 99.3183 195.648 99.4588 195.186 99.5565C194.934 99.6238 194.693 99.7117 194.506 99.7583C194.325 99.821 194.122 99.821 193.94 99.7583C193.814 99.691 193.748 99.5514 193.886 99.3186C193.958 99.2306 194.031 99.0806 194.157 99.0392C194.725 98.8564 195.271 98.6278 195.788 98.3564C195.972 98.2474 196.119 98.0995 196.216 97.927C196.292 97.7621 196.335 97.5871 196.342 97.4097C196.367 97.1936 196.353 96.9755 196.3 96.7631C196.257 96.5422 196.163 96.3311 196.023 96.1423C195.885 95.9832 195.712 95.8492 195.514 95.748C195.316 95.6468 195.096 95.5804 194.867 95.5526C194.638 95.5186 194.404 95.5186 194.175 95.5526H194.097L193.94 95.5836C193.834 95.604 193.725 95.6161 193.615 95.6198C193.394 95.6324 193.171 95.6184 192.953 95.5784C192.208 95.411 191.526 95.0773 190.979 94.6111C190.204 93.9638 189.539 93.2253 189.005 92.4177L188.74 92.0142L188.613 91.8124C188.58 91.764 188.55 91.7139 188.523 91.6624C188.527 91.6332 188.527 91.6037 188.523 91.5745C188.523 91.5745 188.487 91.5745 188.457 91.5745L188.276 91.709L187.915 91.9831C187.213 92.4868 186.438 92.911 185.61 93.2454C184.804 93.5975 183.956 93.8749 183.082 94.0731C182.532 94.1851 181.975 94.2698 181.414 94.3265C181.113 94.3576 180.812 94.3835 180.469 94.399H180.084C180.081 94.4386 180.081 94.4783 180.084 94.518V95.1077C180.084 95.5629 180.084 96.044 180.138 96.5406C180.189 97.5995 180.363 98.6513 180.656 99.6807C180.979 100.765 181.523 101.791 182.263 102.712C182.949 103.611 183.935 104.311 185.092 104.719C186.147 105.027 187.298 104.985 188.318 104.6C189.202 104.268 189.985 103.765 190.606 103.131L190.991 102.728L191.292 102.334C191.462 102.121 191.613 101.896 191.743 101.662C191.887 101.435 192.012 101.2 192.117 100.958C192.177 100.839 192.237 100.726 192.309 100.607C192.381 100.488 192.406 100.451 192.436 100.4L192.544 100.208C192.628 100.069 192.713 99.9186 192.821 99.7428C192.947 99.5115 193.125 99.304 193.345 99.1323Z" fill="#221F1F"/>
<path d="M189.787 85.5789C189.754 85.5289 189.735 85.4734 189.729 85.4162C189.724 85.359 189.734 85.3015 189.757 85.2478C189.757 85.2478 189.805 85.2478 189.823 85.2478H189.751C189.691 85.2507 189.631 85.2507 189.57 85.2478C189.45 85.2478 189.324 85.2478 189.191 85.2478C188.938 85.2478 188.686 85.2478 188.427 85.2064L186.904 85.0822C185.937 84.9481 184.95 84.9657 183.991 85.134C182.358 85.4929 180.888 86.2641 179.771 87.3481C178.642 88.4648 177.739 89.7359 177.099 91.1089L174.829 95.3042L173.692 97.3993C173.311 98.0525 172.997 98.7327 172.753 99.4324C172.299 100.597 172.153 101.834 172.325 103.054C172.409 103.59 172.67 104.095 173.078 104.507C173.521 104.89 174.087 105.151 174.703 105.257C175.421 105.395 176.149 105.488 176.882 105.537C177.664 105.614 178.453 105.723 179.223 105.847C180.764 106.106 182.233 106.437 183.75 106.721C185.407 107.06 187.098 107.26 188.8 107.316C189.221 107.316 189.643 107.316 190.064 107.316C190.485 107.316 190.901 107.27 191.31 107.197C191.716 107.145 192.118 107.073 192.514 106.98C192.958 106.873 193.408 106.787 193.862 106.721C195.632 106.473 197.359 106.282 199.063 105.992C199.904 105.859 200.736 105.686 201.555 105.475C201.936 105.375 202.307 105.247 202.662 105.092C202.803 105.032 202.934 104.957 203.054 104.869C203.15 104.786 203.138 104.797 203.144 104.766C203.247 103.282 203.227 101.793 203.084 100.312C202.954 98.8174 202.715 97.3315 202.367 95.8629C201.765 93.2764 200.844 90.6899 199.219 88.5586C198.485 87.5458 197.483 86.6967 196.294 86.0806C195.712 85.8085 195.081 85.6215 194.428 85.5271C193.767 85.4506 193.097 85.4645 192.442 85.5685C191.99 85.6202 191.539 85.7858 191.111 85.8582C189.986 86.1634 189.522 85.9875 190.281 85.4547C190.455 85.3061 190.659 85.1852 190.883 85.0978C191.948 84.7391 193.074 84.5312 194.217 84.4822C195.445 84.4552 196.65 84.769 197.654 85.3771C198.629 85.9917 199.477 86.7418 200.164 87.5964C200.839 88.4243 201.419 89.3061 201.898 90.2295C202.835 92.0543 203.533 93.9627 203.98 95.9198C204.339 97.4785 204.573 99.0566 204.679 100.643C204.765 102.046 204.743 103.453 204.612 104.854C204.571 105.134 204.427 105.397 204.203 105.604C204.026 105.76 203.823 105.892 203.601 105.997C203.247 106.169 202.877 106.314 202.494 106.432C201.062 106.828 199.594 107.12 198.106 107.306C197.082 107.461 195.915 107.601 194.657 107.766C194.344 107.808 194.025 107.849 193.718 107.901C193.549 107.901 193.471 107.947 193.278 107.989L192.755 108.102C192.398 108.186 192.037 108.25 191.671 108.294C191.297 108.352 190.919 108.392 190.54 108.413C188.93 108.516 187.313 108.445 185.724 108.201C184.087 107.968 182.432 107.611 180.752 107.285C179.916 107.125 179.073 106.964 178.224 106.851C177.375 106.737 176.533 106.659 175.612 106.571C174.625 106.503 173.667 106.254 172.801 105.842C171.908 105.341 171.273 104.565 171.025 103.674C170.789 102.863 170.73 102.021 170.851 101.191C170.961 100.402 171.163 99.6236 171.453 98.8685C171.729 98.1348 172.072 97.4206 172.476 96.732C172.837 96.075 173.198 95.4232 173.547 94.7818C174.252 93.4988 174.926 92.2625 175.57 91.0934C176.142 89.941 176.833 88.8348 177.634 87.7878C178.352 86.868 179.255 86.0657 180.301 85.4185C181.13 84.9085 182.051 84.5188 183.028 84.2649C183.232 84.2028 183.431 84.1718 183.629 84.1304C183.977 84.0455 184.334 83.9969 184.695 83.9856C184.839 83.9782 184.984 83.9782 185.128 83.9856C185.437 83.9907 185.745 84.015 186.049 84.058C186.666 84.1463 187.271 84.2884 187.855 84.4822C188.168 84.5856 188.493 84.6994 188.848 84.8339L189.39 85.046L189.667 85.1547L189.799 85.2012H189.859H189.811V85.2374C189.777 85.289 189.757 85.3466 189.753 85.4057C189.749 85.4649 189.761 85.5242 189.787 85.5789Z" fill="#221F1F"/>
<path d="M202.644 111.63C201.188 113.793 198.262 115.484 195.102 116.348C189.745 117.842 183.952 117.706 178.697 115.965C173.442 114.223 169.044 110.981 166.24 106.783C165.618 105.897 165.072 104.971 164.609 104.016C164.38 103.535 164.211 103.033 164.007 102.541C163.916 102.298 163.814 102.024 163.73 101.802L163.519 101.041L163.327 100.281C163.255 100.029 163.206 99.7733 163.182 99.5151L163.002 97.9632C162.965 97.4459 163.002 96.9286 163.002 96.4113C163.006 95.8918 163.052 95.3733 163.14 94.8594C163.279 93.8307 163.506 92.8122 163.82 91.8124L164.38 90.3381C164.561 89.8208 164.843 89.3862 165.066 88.9052C166.043 87.0236 167.315 85.2657 168.846 83.6803C169.153 83.3234 169.514 83.0078 169.857 82.6819C170.201 82.356 170.544 82.0198 170.923 81.7197C171.66 81.1063 172.433 80.5261 173.24 79.9816C174.854 78.8827 176.604 77.9406 178.459 77.1726C179.39 76.7941 180.347 76.4641 181.324 76.1846C181.806 76.0277 182.299 75.8948 182.799 75.7862L184.304 75.4758C186.334 75.115 188.412 74.9983 190.479 75.1292C194.643 75.3949 198.628 76.6923 201.952 78.8642L202.554 79.2522C202.759 79.3867 202.945 79.5419 203.156 79.6867L204.312 80.5662C204.695 80.8609 205.055 81.1771 205.389 81.5128L206.43 82.4854C206.785 82.8061 207.068 83.1837 207.387 83.52C207.706 83.8562 208.025 84.2183 208.296 84.596L209.097 85.7392C209.223 85.9306 209.368 86.1117 209.488 86.3134L209.819 86.9135C210.913 88.792 211.656 90.8065 212.022 92.8832C212.094 93.4006 212.233 93.9179 212.251 94.4352L212.347 95.9871C212.349 97.0357 212.267 98.0832 212.1 99.122C211.944 100.116 211.715 101.101 211.414 102.071C211.246 102.552 211.047 103.022 210.866 103.504C210.764 103.736 210.692 103.985 210.572 104.212L210.21 104.9L209.867 105.609C209.754 105.841 209.621 106.066 209.47 106.282L208.603 107.595C208.302 108.03 207.935 108.423 207.604 108.837L207.092 109.453C206.912 109.649 206.713 109.835 206.521 110.027C206.038 110.561 205.498 111.054 204.907 111.501C203.355 112.608 202.759 112.536 203.583 111.501C203.753 111.24 203.954 110.995 204.185 110.772C204.342 110.648 204.504 110.523 204.649 110.389L205.052 109.97L205.804 109.147C206.05 108.877 206.269 108.59 206.46 108.289L207.062 107.42C207.262 107.128 207.441 106.825 207.598 106.514L208.122 105.583C208.465 104.947 208.724 104.264 209.127 103.571C210.345 100.92 210.864 98.0703 210.644 95.2267C210.433 92.3971 209.522 89.6387 207.971 87.136C206.692 85.1578 205.088 83.3477 203.21 81.7611C200.844 79.7007 197.944 78.1513 194.747 77.2399C193.963 77.0103 193.157 76.8373 192.339 76.7226C191.761 76.6136 191.173 76.5445 190.582 76.5156C189.889 76.4678 189.193 76.4574 188.499 76.4846C184.778 76.5654 181.136 77.4286 177.893 78.9987C173.723 80.9595 170.238 83.8419 167.799 87.3481C166.487 89.244 165.563 91.3191 165.066 93.4833C164.561 95.675 164.547 97.9293 165.024 100.126L165.229 100.943C165.284 101.216 165.367 101.484 165.475 101.745C165.68 102.262 165.885 102.779 166.077 103.297L166.89 104.797L167.089 105.169L167.335 105.521L167.829 106.225L168.317 106.928C168.485 107.161 168.696 107.368 168.876 107.585L170.008 108.878L171.266 110.11L171.579 110.399C171.687 110.492 171.808 110.575 171.916 110.663L172.596 111.18C174.326 112.499 176.289 113.573 178.411 114.362L179.157 114.652L179.922 114.879C180.433 115.019 180.921 115.19 181.42 115.309C182.387 115.531 183.368 115.704 184.358 115.826C187.476 116.23 190.657 116.072 193.7 115.36C193.977 115.298 194.253 115.252 194.5 115.179L195.204 114.962L196.348 114.61C196.95 114.388 197.353 114.212 197.474 114.176L198.617 113.741L199.821 113.193C200.799 112.723 201.742 112.202 202.644 111.63Z" fill="#221F1F"/>
<path d="M131.816 174.99C132.418 174.587 133.02 174.209 133.562 173.78L134.404 173.149L135.205 172.487C135.759 172.052 136.222 171.561 136.728 171.095C136.962 170.852 137.185 170.604 137.414 170.355L137.757 169.983L138.058 169.59C138.251 169.326 138.473 169.072 138.66 168.798L139.171 167.976C139.34 167.701 139.448 167.407 139.593 167.122C139.667 166.984 139.732 166.843 139.785 166.698L139.918 166.289C140.152 165.043 140.232 163.779 140.159 162.518C140.092 160.63 139.852 158.731 139.611 156.828C138.744 150.139 137.396 143.476 135.999 136.823L135.042 132.395C134.886 131.65 134.723 130.916 134.585 130.166L134.488 129.597C134.453 129.4 134.435 129.201 134.434 129.002C134.407 128.614 134.407 128.225 134.434 127.838C134.573 125.867 135.139 123.994 134.994 122.189C134.954 121.309 134.669 120.451 134.163 119.685C133.68 118.935 132.932 118.337 132.027 117.978C131.473 117.781 131.208 117.698 131.244 117.564C131.28 117.429 131.623 117.3 132.279 117.336C133.195 117.437 134.044 117.802 134.687 118.371C135.664 119.162 136.301 120.214 136.493 121.356C136.866 123.544 136.234 125.546 136.023 127.393C135.964 127.848 135.934 128.306 135.933 128.764C135.933 128.981 135.933 129.214 135.969 129.41C136.005 129.607 136.035 129.866 136.078 130.098C136.252 131.04 136.451 132.007 136.679 132.964C137.48 136.813 138.275 140.677 138.967 144.578C139.791 149.234 140.773 154.081 141.308 158.907C141.441 160.237 141.549 161.571 141.579 162.916C141.664 164.298 141.52 165.682 141.152 167.029C140.622 168.332 139.876 169.562 138.937 170.681C137.998 171.771 136.949 172.788 135.801 173.718C132.961 175.94 129.818 177.858 126.441 179.429C121.386 181.828 116.074 183.804 110.58 185.331C106.401 186.57 102.119 187.537 97.7712 188.223L96.3326 188.42L94.8819 188.575C93.5897 188.707 92.2858 188.735 90.9875 188.658C90.6387 188.629 90.2928 188.578 89.9522 188.508C89.7167 188.444 89.4905 188.357 89.278 188.249C89.1079 188.175 88.9466 188.086 88.7965 187.985C88.5016 187.68 89.9462 187.695 92.5224 187.54C96.4596 187.238 100.358 186.634 104.17 185.735C108.116 184.843 111.996 183.744 115.787 182.445C121.427 180.484 126.958 178.12 131.786 174.985L131.816 174.99Z" fill="#221F1F"/>
<path d="M145.173 108.723L131.804 116.638C130.57 117.367 133.519 117.104 134.091 116.767L147.46 108.853C148.694 108.118 145.744 108.387 145.173 108.723Z" fill="#221F1F"/>
<path d="M110.032 137.527L109.461 137.718L109.25 137.775L109.027 137.749C108.879 137.739 108.732 137.718 108.588 137.687C108.378 137.637 108.176 137.566 107.986 137.475C107.812 137.397 107.643 137.311 107.48 137.217C106.881 136.847 106.362 136.39 105.945 135.866C105.487 135.325 105.201 134.69 105.115 134.025C105.091 133.837 105.091 133.648 105.115 133.461L105.187 133.171C105.229 133.063 105.289 132.949 105.343 132.835C105.392 132.581 105.699 132.468 105.891 132.343L106.282 132.111L108.546 130.735L116.629 126.012C117.833 125.313 118.995 124.574 120.151 123.844C121.599 122.862 123.106 121.946 124.665 121.097C125.658 120.58 125.267 122.292 123.564 123.363C120.512 125.256 117.418 127.093 114.21 128.847C112.296 129.881 110.406 131.117 108.497 132.256L106.938 133.182L106.638 133.357C106.577 133.357 106.577 133.44 106.547 133.482C106.501 133.667 106.501 133.86 106.547 134.045C106.818 134.981 107.505 135.787 108.461 136.291C108.594 136.364 108.735 136.425 108.883 136.472C109.003 136.503 109.075 136.534 109.166 136.503L110.189 136.161L112.386 135.427C114.595 134.677 116.828 133.942 119.007 133.166C120.704 132.561 122.336 131.899 123.991 131.262C124.358 131.123 124.707 130.973 125.08 130.838C126.453 130.321 126.934 130.264 127.374 130.466C127.478 130.503 127.577 130.549 127.669 130.605C127.915 130.797 127.44 131.19 126.465 131.614C123.558 132.866 120.403 134.004 117.219 135.111L110.05 137.527H110.032Z" fill="#221F1F"/>
<path d="M146.419 124.201L143.662 125.184C143.331 125.308 143.018 125.463 142.681 125.577C141.477 125.996 140.303 126.394 139.123 126.819C138.6 127.005 138.094 127.227 137.594 127.45C136.98 127.783 136.319 128.047 135.626 128.236C135.181 128.324 135.096 127.031 135.843 126.715C137.166 126.142 138.539 125.656 139.948 125.262C140.8 124.988 141.633 124.676 142.446 124.325C143.367 123.984 144.288 123.653 145.209 123.291C145.775 123.079 146.346 122.877 146.906 122.66C147.761 122.334 148.628 122.023 149.452 121.666C150.096 121.392 150.692 121.051 151.306 120.74C151.439 120.673 151.565 120.595 151.71 120.533C152.227 120.295 152.438 120.306 152.715 120.533C152.775 120.59 152.847 120.642 152.901 120.704C153.082 120.916 152.968 121.221 152.618 121.423C151.537 122.081 150.384 122.648 149.175 123.115C148.273 123.482 147.37 123.823 146.437 124.175L146.419 124.201Z" fill="#221F1F"/>
<path d="M158.62 118.387C157.416 119.975 155.104 120.621 152.968 120.709L153.762 121.164C154.066 119.355 153.949 117.512 153.417 115.742C152.884 113.972 151.948 112.311 150.662 110.855C149.829 109.962 148.893 109.144 147.869 108.413C147.43 108.087 147.267 108.299 147.267 108.108C147.309 107.642 148.507 106.918 148.856 106.721C151.812 105.102 153.473 106.168 155.634 108.082C158.884 110.963 159.625 114.708 158.559 118.537C158.367 119.23 160.142 119.054 160.323 118.407C161.744 113.301 159.721 108.428 154.569 105.537C151.643 103.897 146.942 105.537 145.474 108.18C145.414 108.266 145.396 108.368 145.424 108.465C145.453 108.562 145.524 108.646 145.624 108.697C147.926 110.105 149.735 112.026 150.858 114.253C151.98 116.481 152.373 118.93 151.992 121.335C151.938 121.713 152.462 121.806 152.787 121.796C155.694 121.677 158.62 120.694 160.269 118.568C160.793 117.869 159.017 117.869 158.62 118.387Z" fill="#221F1F"/>
<path d="M128.415 118.904C128.144 118.992 128.632 118.857 128.716 118.842C128.989 118.791 129.268 118.768 129.547 118.775C130.013 118.789 130.464 118.924 130.84 119.162C131.216 119.4 131.5 119.73 131.653 120.109C131.822 120.466 132.857 120.202 132.695 119.866C131.888 118.2 129.806 117.885 127.976 118.454C127.296 118.666 127.903 119.064 128.415 118.904Z" fill="#221F1F"/>
<path d="M127.506 119.597H127.596C127.44 119.644 127.699 119.571 127.747 119.561C127.953 119.516 128.166 119.495 128.379 119.499C128.729 119.521 129.057 119.656 129.297 119.876C129.537 120.097 129.671 120.387 129.673 120.689C129.709 120.932 130.877 120.72 130.805 120.425C130.552 118.811 128.493 118.873 127.091 119.333C126.958 119.38 126.645 119.494 126.766 119.654C126.886 119.814 127.368 119.654 127.506 119.623V119.597Z" fill="#221F1F"/>
<path d="M125.923 120.388C126.048 120.305 126.199 120.253 126.356 120.238C127.007 120.187 127.416 120.756 127.627 121.17C127.771 121.464 128.885 121.17 128.764 120.911C128.635 120.561 128.374 120.258 128.022 120.05C127.669 119.842 127.247 119.741 126.82 119.763C126.263 119.785 125.722 119.926 125.243 120.171C124.599 120.518 125.604 120.559 125.923 120.388Z" fill="#221F1F"/>
<path d="M109.749 168.959C114.619 165.43 120.747 163.009 126.718 161.261C128.337 160.79 126.856 160.123 125.767 160.444C119.434 162.296 112.958 164.908 107.799 168.643C106.74 169.409 109.16 169.388 109.749 168.959Z" fill="#221F1F"/>
<path d="M124.725 151.256C124.671 150.139 124.641 149.027 124.623 147.92C124.623 147.511 124.575 147.107 124.575 146.704C124.575 145.276 124.635 143.848 124.677 142.426C124.677 141.79 124.677 141.158 124.677 140.527C124.611 139.72 124.635 138.909 124.749 138.106C124.852 137.589 126.068 138.277 126.056 139.193C126.056 140.827 125.989 142.457 125.839 144.107C125.755 145.095 125.839 146.119 125.839 147.128C125.839 148.235 125.887 149.342 125.941 150.454C125.977 151.132 126.007 151.815 126.074 152.498C126.158 153.532 126.26 154.567 126.453 155.571C126.612 156.343 126.825 157.107 127.091 157.857C127.145 158.023 127.211 158.183 127.259 158.349C127.47 158.959 127.446 159.171 127.157 159.383C127.095 159.436 127.029 159.484 126.958 159.528C126.724 159.657 126.435 159.45 126.212 159.011C125.597 157.603 125.192 156.135 125.008 154.639C124.852 153.522 124.749 152.394 124.671 151.272L124.725 151.256Z" fill="#221F1F"/>
<path d="M128.114 165.462C128.873 164.944 129.625 164.37 129.763 163.848C129.848 163.439 129.956 163.035 130.04 162.622L130.185 161.328C130.317 159.585 130.329 157.811 130.257 156.031C130.221 154.738 130.088 153.444 130.01 152.146C129.679 147.568 129.186 142.99 128.584 138.422C128.443 137.408 128.301 136.394 128.156 135.38C128.084 134.863 128.006 134.345 127.934 133.859C127.861 133.373 127.795 132.825 127.747 132.307C127.619 131.066 127.285 129.846 126.754 128.686C126.217 127.556 125.378 126.552 124.304 125.753C123.618 125.287 123.871 125.049 124.761 125.205C125.02 125.266 125.271 125.345 125.514 125.443C125.823 125.588 126.114 125.762 126.381 125.96C127.067 126.428 127.622 127.022 128.006 127.698C128.691 129.007 129.112 130.406 129.252 131.837C129.3 132.178 129.324 132.525 129.348 132.871C129.372 133.218 129.414 133.482 129.462 133.818L129.721 135.794C130.07 138.443 130.389 141.102 130.63 143.781C130.919 146.983 131.358 150.304 131.563 153.61C131.69 155.415 131.738 157.231 131.738 159.052L131.684 160.418C131.684 160.873 131.647 161.328 131.587 161.789C131.527 162.249 131.515 162.704 131.401 163.17L131.244 163.863C131.203 164.114 131.124 164.359 131.009 164.592C130.676 165.147 130.216 165.638 129.655 166.036C129.145 166.406 128.61 166.752 128.054 167.07C126.962 167.69 125.832 168.259 124.671 168.777C121.18 170.329 117.544 171.664 113.939 172.916C111.134 173.883 108.389 174.851 105.566 175.72C104.964 175.911 104.362 176.108 103.706 176.284C101.359 176.941 100.552 177.023 99.9441 176.801C99.8049 176.768 99.6713 176.719 99.5468 176.656C99.2459 176.454 100.149 176.056 101.828 175.549C106.812 173.997 112.061 172.311 117.201 170.407C119.109 169.698 121.005 168.959 122.859 168.157C124.699 167.394 126.457 166.494 128.114 165.467V165.462Z" fill="#221F1F"/>
<path d="M64.3464 258.629C63.6963 260.455 62.9981 262.25 62.1494 264.055C61.7229 264.96 61.2427 265.846 60.7108 266.709C60.4279 267.144 60.1088 267.573 59.7958 267.997L59.6755 268.152L59.6393 268.194L59.5671 268.271C59.5069 268.333 59.5009 268.328 59.4648 268.364C59.5186 268.401 59.5798 268.429 59.6454 268.447C60.1028 268.608 60.6024 268.773 61.09 268.913C62.0711 269.208 63.0763 269.43 64.0996 269.673C66.1349 270.104 68.2055 270.402 70.2934 270.563C74.491 270.875 78.718 270.715 82.8676 270.087C85.191 269.771 87.5024 269.409 89.7957 268.985C90.9393 268.768 92.077 268.545 93.1966 268.282C94.3161 268.018 95.4116 267.713 96.5493 267.413C100.482 266.404 104.254 264.977 107.775 263.165C109.501 262.255 111.114 261.196 112.591 260.005C112.94 259.694 113.313 259.399 113.65 259.074L114.053 258.691C114.071 258.68 114.085 258.665 114.093 258.647C114.102 258.63 114.104 258.611 114.101 258.592V258.437L113.788 255.773C112.922 248.665 111.85 241.563 110.881 234.45C110.014 228.144 109.16 221.791 108.534 215.501C108.154 211.455 107.787 207.4 107.679 203.328C107.637 202.294 107.607 201.295 107.619 200.276V197.219C107.715 195.186 107.781 193.148 108.04 191.125C108.311 188.596 108.696 188.984 108.913 191.125C108.967 191.642 109.009 192.31 109.039 193.05C109.069 193.789 109.154 194.601 109.19 195.538C109.232 197.364 109.37 199.5 109.376 201.813C109.587 210.038 110.412 218.253 111.441 226.473C112.47 234.693 113.68 242.928 114.721 251.226C114.878 252.468 115.028 253.714 115.185 254.966C115.341 256.311 115.5 257.66 115.66 259.011C115.494 259.225 115.305 259.424 115.095 259.606L114.715 259.974C114.462 260.222 114.18 260.444 113.915 260.677C113.65 260.91 113.367 261.132 113.084 261.355C112.801 261.577 112.524 261.795 112.223 261.996C111.055 262.836 109.818 263.602 108.522 264.288C105.936 265.646 103.205 266.788 100.365 267.697C98.9509 268.152 97.5123 268.571 96.0978 268.944C94.6665 269.352 93.212 269.697 91.7399 269.978C88.9169 270.537 86.0818 270.982 83.2408 271.37C80.3756 271.796 77.4747 272.021 74.567 272.042C71.6537 272.058 68.7452 271.835 65.8813 271.375C64.4586 271.14 63.0521 270.837 61.6678 270.47C60.9696 270.284 60.2774 270.082 59.5912 269.859L59.0796 269.684C58.8147 269.59 58.5499 269.497 58.3031 269.399L57.5627 269.099L57.2016 268.939C57.0932 268.887 56.9247 268.835 56.9066 268.778L57.5808 268.209L58.1827 267.625C58.273 267.532 58.3934 267.418 58.4536 267.345L58.6101 267.144L58.9231 266.74C59.3083 266.181 59.6634 265.597 59.9945 264.997C61.5742 261.854 62.8643 258.609 63.8528 255.292C64.9002 251.971 65.8151 248.614 66.6638 245.251C69.2039 235.039 71.2384 224.683 73.0261 214.43C74.4045 206.453 75.5482 198.605 76.6377 190.696C76.8724 188.952 77.1072 187.245 77.3419 185.487C78.2448 178.974 78.612 176.91 79.2259 175.549C79.346 175.245 79.4846 174.946 79.6412 174.654C80.0506 174.059 79.9843 176.723 79.4185 181.534C77.7211 195.724 75.4338 210.643 72.5747 225.557C71.5093 231.098 70.3536 236.638 69.0474 242.158C67.7412 247.677 66.2966 253.192 64.4186 258.629H64.3464Z" fill="#221F1F"/>
<path d="M79.3764 271.696L79.4727 283.558C79.4727 283.697 80.7307 283.687 80.7187 283.558L80.6284 271.691C80.2196 271.586 79.784 271.588 79.3764 271.696Z" fill="#232020"/>
<path d="M89.2961 283.977L89.6934 270.351C89.6934 270.19 88.4474 270.165 88.4474 270.325L88.0501 283.966C88.0501 284.013 88.2126 284.039 88.4293 284.06L88.6761 283.853C88.7092 283.86 88.74 283.873 88.7661 283.892C88.7921 283.911 88.8129 283.934 88.8266 283.961C88.8375 283.975 88.8433 283.991 88.8433 284.008C88.8433 284.024 88.8375 284.041 88.8266 284.054L88.6761 283.93V284.178L88.5317 284.054C88.521 284.069 88.5153 284.086 88.5153 284.103C88.5153 284.121 88.521 284.138 88.5317 284.153C88.5474 284.179 88.5695 284.203 88.5964 284.221C88.6234 284.24 88.6546 284.254 88.6881 284.261L88.9349 284.06C89.1276 284.054 89.2961 284.023 89.2961 283.977Z" fill="#232020"/>
<path d="M103.327 316.365C102.863 316.588 100.648 317.86 95.8149 316.841C91.1463 315.84 86.8309 313.878 83.2408 311.125V315.838H80.2311L80.0566 282.683C82.6289 283.73 85.5273 284.029 88.315 283.537C90.0122 284.116 91.759 284.581 93.5397 284.929L91.2885 311.177C94.5328 312.506 98.4333 313.639 100.973 314.555C100.973 314.555 104.266 315.926 103.327 316.365Z" fill="#221F1F"/>
<path d="M103.128 316.034C102.264 316.911 101.039 317.467 99.7094 317.586C98.2986 317.733 96.8681 317.645 95.4959 317.328C93.1639 316.834 90.9103 316.1 88.7845 315.139C87.7177 314.666 86.6846 314.14 85.6906 313.562C85.197 313.272 84.7094 312.967 84.2279 312.651L84.0353 312.527C84.0353 313.858 84.0353 315.188 84.0353 316.515H79.4847L79.4426 311.477C79.4426 304.648 79.4286 297.818 79.4005 290.986L79.3583 281.732C79.864 281.913 80.3816 282.114 80.8932 282.29L81.2785 282.42L81.4651 282.476L81.5614 282.508C81.6938 282.549 81.8262 282.59 81.9526 282.621C82.4774 282.768 83.0121 282.887 83.5537 282.978C84.6264 283.155 85.7227 283.2 86.8101 283.113C87.081 283.113 87.3459 283.056 87.6167 283.02L88.0682 282.942C88.3305 282.895 88.6038 282.924 88.8447 283.025C89.3743 283.201 89.9161 283.366 90.4578 283.542C90.9995 283.718 91.5413 283.853 92.083 283.987C92.3539 284.059 92.6247 284.122 92.8896 284.178C92.9678 284.178 93.3169 284.256 93.5517 284.297L94.3522 284.427L93.01 299.91L92.1071 310.292L92.0649 310.768V310.799L92.1432 310.83L93.2206 311.234C94.0994 311.554 94.9883 311.861 95.8871 312.154L98.5958 313.034L99.9561 313.474L100.642 313.706L100.985 313.82L101.154 313.882C101.228 313.904 101.3 313.93 101.371 313.96C102.004 314.207 102.609 314.505 103.176 314.85C103.53 315.067 103.822 315.35 104.031 315.677C104.1 315.788 104.14 315.91 104.149 316.035C104.157 316.16 104.133 316.285 104.079 316.402C104.048 316.476 103.996 316.543 103.928 316.596C103.86 316.65 103.777 316.687 103.688 316.707C103.507 316.707 103.526 316.645 103.616 316.5C103.654 316.446 103.677 316.386 103.686 316.323C103.694 316.261 103.687 316.198 103.664 316.138C103.596 316.021 103.492 315.923 103.363 315.853C103.122 315.714 102.815 315.636 102.575 315.491C101.984 315.157 101.35 314.884 100.684 314.679C100.022 314.493 99.3723 314.332 98.7102 314.162C97.3056 313.844 95.923 313.459 94.5689 313.008C93.8888 312.77 93.2086 312.527 92.5284 312.273L91.4088 311.86C91.1318 311.759 90.8625 311.643 90.6023 311.513L90.6745 310.67L90.9574 306.899L91.4991 299.367C91.6556 297.365 91.8362 295.352 92.0288 293.35L92.8113 285.668C92.8113 285.627 92.8113 285.575 92.8113 285.425L92.6187 285.384C92.3117 285.317 91.9626 285.239 91.5774 285.135C90.8069 284.939 89.886 284.675 88.7905 284.328L88.3752 284.194L88.2788 284.163C88.2788 284.163 88.2788 284.163 88.2367 284.163L87.8274 284.235C87.6589 284.261 87.4843 284.277 87.3097 284.297C86.5594 284.38 85.8019 284.404 85.0465 284.37C84.1896 284.328 83.3391 284.218 82.5064 284.039C82.067 283.946 81.6216 283.827 81.1701 283.697L80.8692 283.604L80.7428 283.558C80.7909 291.747 80.8752 307.018 80.9173 315.279H82.5606C82.5606 312.139 82.5606 310.866 82.5606 309.796C83.1264 310.256 83.6982 310.727 84.2219 311.13C84.4867 311.311 84.7395 311.497 84.9923 311.647L85.4257 311.932C85.9795 312.294 86.5333 312.62 87.069 312.92C88.0377 313.463 89.0426 313.957 90.0786 314.4C91.5652 315.025 93.1094 315.544 94.6953 315.951C95.8705 316.271 97.0807 316.486 98.3069 316.593C99.0229 316.655 99.7435 316.667 100.462 316.629C101.391 316.603 102.302 316.4 103.128 316.034Z" fill="#221F1F"/>
<path d="M94.2078 285.373L95.6283 269.068C95.6283 268.882 94.3944 268.799 94.3823 268.985L92.9618 285.296C92.9437 285.446 94.1957 285.523 94.2078 285.373Z" fill="#232020"/>
<path d="M114.547 170.454C112.916 175.58 113.776 180.593 115.408 185.652C115.528 186.014 116.924 185.693 116.804 185.326C115.191 180.324 114.318 175.363 115.937 170.283C116.052 169.916 114.661 170.086 114.547 170.454Z" fill="#221F1F"/>
<path d="M114.619 164.008C111.94 165.974 112.013 170.024 112.314 172.699C112.362 173.113 113.758 172.849 113.71 172.378C113.439 169.988 113.307 166.02 115.745 164.23C116.347 163.775 114.986 163.744 114.619 164.008Z" fill="#221F1F"/>
<path d="M106.439 146.249C107.763 147.335 109.828 147.128 111.32 146.456C111.573 146.342 111.814 146.125 111.495 145.938C111.176 145.752 110.55 145.975 110.291 146.099C109.918 146.229 109.508 146.258 109.115 146.182C108.723 146.106 108.366 145.929 108.094 145.674C107.709 145.354 106.078 145.912 106.463 146.228L106.439 146.249Z" fill="#221F1F"/>
<path d="M106.234 133.342C105.295 131.871 104.144 130.506 102.809 129.281C102.436 128.924 101.19 129.364 101.605 129.767C102.94 130.993 104.091 132.357 105.03 133.828C105.283 134.242 106.535 133.828 106.234 133.342Z" fill="#221F1F"/>
<path d="M103.026 162.989C102.725 162.728 102.495 162.414 102.353 162.067C102.212 161.721 102.162 161.352 102.207 160.987C102.217 159.824 102.405 158.667 102.767 157.547C102.886 157.233 103.052 156.934 103.261 156.657C103.37 156.507 103.494 156.367 103.634 156.238C103.76 156.129 103.881 156.015 104.007 155.917C104.504 155.52 105.03 155.152 105.584 154.815C106.466 154.336 107.275 153.765 107.992 153.113C108.145 152.949 108.286 152.776 108.413 152.596L108.816 152.006C109.069 151.608 109.294 151.196 109.491 150.775C110.176 149.324 110.535 147.774 110.55 146.207C110.56 145.421 110.498 144.636 110.363 143.859C110.297 143.466 110.213 143.078 110.117 142.695L109.948 142.131C109.875 141.881 109.839 141.623 109.84 141.365C109.834 140.752 110.044 140.152 110.442 139.643C110.637 139.398 110.87 139.177 111.134 138.986C111.244 138.903 111.326 138.796 111.369 138.675C111.411 138.463 111.369 138.349 111.068 138.158C110.733 137.945 110.346 137.802 109.936 137.739C109.798 137.732 109.662 137.717 109.527 137.692C109.454 137.672 109.388 137.636 109.333 137.59C109.279 137.543 109.238 137.486 109.214 137.423C109.183 137.351 109.18 137.273 109.204 137.198C109.227 137.124 109.277 137.058 109.346 137.01C109.418 136.947 109.509 136.86 109.599 136.86C110.032 136.86 110.442 136.86 110.887 136.891C111.384 136.922 111.852 137.105 112.205 137.408C112.424 137.596 112.587 137.826 112.684 138.078C112.78 138.331 112.806 138.599 112.759 138.862C112.71 139.119 112.597 139.364 112.428 139.581C112.283 139.753 112.118 139.913 111.934 140.057C111.732 140.248 111.579 140.475 111.484 140.72C111.39 140.966 111.357 141.227 111.387 141.484C111.398 141.584 111.418 141.682 111.447 141.779L111.561 142.183C111.645 142.467 111.7 142.757 111.754 143.041C111.874 143.782 111.94 144.528 111.952 145.276C112.006 146.568 111.872 147.861 111.555 149.125C111.287 150.148 110.883 151.14 110.351 152.084C110.207 152.332 110.068 152.601 109.9 152.834C109.743 153.094 109.568 153.347 109.376 153.589C108.97 154.085 108.483 154.53 107.932 154.908C106.872 155.659 105.795 156.202 104.994 156.853C104.808 156.995 104.636 157.151 104.483 157.319C104.351 157.48 104.242 157.654 104.158 157.836C103.989 158.207 103.866 158.592 103.79 158.985C103.628 159.75 103.568 160.428 103.514 160.92C103.459 161.411 103.429 161.721 103.423 161.773C103.319 162.185 103.186 162.591 103.026 162.989Z" fill="#221F1F"/>
<path d="M79.3704 192.812C78.6059 194.881 80.9474 197.297 83.4514 197.012C85.9554 196.728 87.4663 193.836 86.0397 192.046C84.6131 190.256 80.8993 190.453 79.7556 192.387" fill="#221F1F"/>
<path d="M102.424 222.981C101.72 224.9 103.887 227.145 106.21 226.881C108.534 226.618 109.942 223.933 108.618 222.267C107.294 220.601 103.845 220.793 102.785 222.588" fill="#221F1F"/>
<path d="M106.656 245.391C106.556 245.752 106.555 246.128 106.654 246.49C106.753 246.851 106.949 247.187 107.226 247.472C107.503 247.757 107.854 247.982 108.25 248.13C108.646 248.278 109.077 248.344 109.509 248.324C109.931 248.248 110.326 248.086 110.662 247.854C110.998 247.621 111.265 247.323 111.442 246.984C111.618 246.645 111.698 246.276 111.676 245.905C111.654 245.535 111.53 245.174 111.314 244.853C110.315 243.606 107.703 243.741 106.926 245.096" fill="#221F1F"/>
<path d="M72.1533 246.679C71.4611 248.557 73.5859 250.75 75.8552 250.491C78.1244 250.233 79.5028 247.61 78.2027 245.986C76.9025 244.361 73.5378 244.542 72.5024 246.296" fill="#221F1F"/>
<path d="M87.6769 238.071C87.0088 239.892 89.0613 242.013 91.2885 241.764C93.5156 241.516 94.8157 238.971 93.5577 237.398C92.2997 235.826 89.0433 236.002 88.0441 237.704" fill="#221F1F"/>
<path d="M104.651 264.304C105.301 263.393 105.253 262.172 103.778 261.955C103.099 261.86 102.402 261.925 101.761 262.141C101.12 262.358 100.559 262.719 100.137 263.186C99.3783 264.133 100.167 265.255 101.304 265.612C101.95 265.701 102.612 265.625 103.208 265.392C103.803 265.159 104.305 264.781 104.651 264.304Z" fill="#221F1F"/>
<path d="M99.1857 203.918C98.4995 205.791 100.606 207.974 102.869 207.715C105.133 207.457 106.481 204.844 105.211 203.225C103.941 201.606 100.564 201.787 99.5348 203.541" fill="#221F1F"/>
<path d="M98.5115 183.919C97.8193 185.787 99.9321 187.432 102.195 187.173C104.459 186.914 105.807 184.84 104.537 183.226C103.267 181.612 99.8899 181.788 98.8607 183.536" fill="#221F1F"/>
<path d="M76.3848 215.02C75.6926 216.887 77.8054 219.07 80.0686 218.811C82.3318 218.553 83.6802 215.946 82.4041 214.326C81.128 212.707 77.7632 212.888 76.7279 214.637" fill="#221F1F"/>
<path d="M63.3352 266.192C63.9852 267.226 65.5803 267.718 66.405 266.771C66.5855 266.526 66.6961 266.248 66.7276 265.959C66.7591 265.671 66.7106 265.38 66.5861 265.11C66.4617 264.841 66.2647 264.601 66.0114 264.409C65.7582 264.218 65.4557 264.08 65.1289 264.009C64.8238 263.96 64.5093 263.982 64.2172 264.072C63.9252 264.162 63.666 264.317 63.4661 264.521C63.2662 264.725 63.1326 264.97 63.0789 265.233C63.0253 265.495 63.0535 265.766 63.1606 266.016" fill="#221F1F"/>
<path d="M146.888 123.342L144.197 124.32C143.872 124.439 143.565 124.594 143.234 124.708C142.085 125.122 140.917 125.515 139.779 125.939C139.275 126.135 138.783 126.352 138.305 126.591C137.717 126.929 137.085 127.205 136.421 127.414C135.987 127.512 135.819 126.239 136.553 125.898C137.833 125.297 139.173 124.795 140.556 124.398C141.393 124.165 142.181 123.777 142.994 123.472L145.69 122.468C146.238 122.261 146.792 122.054 147.334 121.837C148.158 121.506 148.995 121.185 149.783 120.802C150.385 120.507 150.951 120.156 151.523 119.814C151.649 119.742 151.764 119.659 151.89 119.587C152.372 119.328 152.576 119.323 152.877 119.556C152.949 119.604 153.016 119.657 153.076 119.716C153.274 119.907 153.196 120.192 152.871 120.435C151.866 121.16 150.76 121.775 149.579 122.266C148.7 122.654 147.773 123.006 146.906 123.363L146.888 123.342Z" fill="#221F1F"/>
<path d="M93.022 149.797C91.1681 150.832 84.0533 149.999 84.4506 145.059C84.8479 140.119 91.457 143.181 91.457 143.181C95.7427 141.086 100.028 137.806 101.762 133.735C104.332 127.719 98.6981 120.963 92.1853 119.602C63.9792 113.705 64.0454 143.191 63.2629 147.749C62.6249 151.458 46.3007 161.789 58.9411 173.552C64.1357 178.389 72.2195 181.441 79.6774 179.941C110.791 173.687 93.9008 149.316 93.022 149.797Z" fill="#221F1F"/>
<path d="M92.7812 149.482C92.4379 149.746 92.0247 149.934 91.5774 150.03C91.3256 150.087 91.0704 150.132 90.8129 150.165C90.5541 150.165 90.2833 150.211 90.0124 150.206C88.8693 150.212 87.7416 149.979 86.7259 149.528C85.6071 149.033 84.7301 148.211 84.252 147.211C84.1978 147.082 84.1256 146.952 84.0774 146.823L83.9811 146.419L83.8908 146.016C83.8908 145.881 83.8908 145.742 83.8908 145.607C83.8505 145.06 83.9093 144.51 84.0654 143.978C84.2517 143.288 84.7114 142.675 85.3655 142.245C86.0386 141.852 86.84 141.655 87.6529 141.681C88.3884 141.694 89.118 141.796 89.8198 141.986C90.1629 142.074 90.4999 142.172 90.831 142.286C90.9935 142.338 91.156 142.4 91.3186 142.462L91.4751 142.524C96.0437 140.238 101.672 135.763 101.672 130.626C101.576 128.032 100.391 125.555 98.337 123.653C97.3355 122.69 96.1584 121.874 94.8518 121.237C93.5301 120.613 92.0887 120.197 90.5963 120.011C87.4622 119.42 84.222 119.376 81.0678 119.882L79.9181 120.145C79.7315 120.187 79.5389 120.223 79.3523 120.28L78.7986 120.461C78.4314 120.59 78.0582 120.699 77.7031 120.839L76.6497 121.304C75.2665 121.963 74.0031 122.793 72.8997 123.767C71.7794 124.747 70.7993 125.84 69.9804 127.02C69.1321 128.207 68.407 129.455 67.8135 130.75C67.206 132.046 66.6973 133.375 66.2906 134.728C65.8632 136.084 65.5201 137.46 65.2433 138.867C64.7497 141.252 64.4668 143.662 64.226 146.109C64.1538 146.73 64.1177 147.314 63.9792 148.002C63.7668 148.668 63.4271 149.3 62.974 149.87C62.1734 150.936 61.3067 151.908 60.482 152.896C58.787 154.804 57.3567 156.875 56.2204 159.068C55.1042 161.211 54.706 163.579 55.0708 165.906C55.2854 167.052 55.6909 168.165 56.2746 169.212C56.8863 170.265 57.6312 171.258 58.4957 172.171C59.3724 173.098 60.3346 173.963 61.3729 174.758C62.4177 175.536 63.5328 176.242 64.7075 176.868C67.052 178.125 69.6451 179.002 72.358 179.455C73.7039 179.678 75.0756 179.764 76.445 179.713C77.8159 179.662 79.1752 179.474 80.496 179.155C83.6984 178.496 86.7625 177.414 89.579 175.947C90.9541 175.206 92.2158 174.32 93.335 173.309C94.4339 172.297 95.3472 171.148 96.0437 169.9C97.328 167.471 97.8489 164.796 97.5545 162.14C97.2772 159.451 96.4925 156.818 95.2311 154.345C94.8157 153.512 94.2981 152.668 93.8406 151.918C93.5457 151.437 93.2989 151.039 93.1002 150.729C93.01 150.584 92.9377 150.47 92.8956 150.387C92.8535 150.304 92.7993 150.387 93.022 150.056C93.022 149.999 93.022 149.947 93.0581 149.953C93.0609 149.947 93.0624 149.941 93.0624 149.935C93.0624 149.928 93.0609 149.922 93.0581 149.916C93.0654 149.925 93.0694 149.935 93.0694 149.945C93.0694 149.955 93.0654 149.965 93.0581 149.973C93.0473 150.023 93.0291 150.072 93.0039 150.118C93.3212 150.219 93.596 150.399 93.7925 150.635C94.1439 150.939 94.4548 151.276 94.7194 151.639C95.8856 153.404 96.8704 155.252 97.6628 157.164C98.5164 159.153 98.9742 161.252 99.0172 163.372C99.0587 165.546 98.6027 167.706 97.6749 169.729C96.7053 171.753 95.2322 173.57 93.3591 175.052C91.488 176.48 89.3674 177.646 87.075 178.508C84.8067 179.392 82.4441 180.085 80.0205 180.577C78.0328 180.994 75.9778 181.122 73.941 180.955C71.9187 180.787 69.9344 180.373 68.0482 179.724C63.252 178.074 59.1364 175.234 56.2264 171.566C56.0158 171.276 55.7569 170.929 55.474 170.531L55.0647 169.848L54.842 169.471L54.6434 169.057C53.9632 167.708 53.5776 166.263 53.5058 164.794C53.4577 163.896 53.5182 162.997 53.6863 162.109C53.8816 161.137 54.1778 160.181 54.5712 159.254C55.5117 157.205 56.7429 155.265 58.2369 153.475C59.0013 152.518 59.832 151.561 60.6446 150.584C61.0539 150.097 61.4572 149.601 61.8484 149.094C62.2162 148.644 62.4761 148.136 62.6128 147.599C62.7814 146.388 62.8777 145.069 63.0402 143.755C63.2027 142.441 63.3773 141.101 63.6421 139.746C64.1091 136.97 64.8769 134.237 65.9355 131.583C66.1943 130.9 66.5374 130.238 66.8323 129.571C67.1273 128.903 67.5125 128.246 67.9338 127.61C68.7141 126.308 69.6588 125.083 70.7508 123.958C72.9329 121.655 75.8456 119.946 79.1356 119.038C82.3444 118.246 85.7163 118.07 89.0132 118.521C89.8088 118.605 90.5985 118.726 91.3787 118.883C91.77 118.961 92.1552 119.002 92.5465 119.106C92.9377 119.209 93.335 119.302 93.7202 119.421C95.2043 119.906 96.5806 120.606 97.7892 121.49C100.085 123.137 101.761 125.331 102.605 127.796C102.978 128.943 103.126 130.136 103.044 131.324C102.939 132.432 102.629 133.519 102.123 134.542C101.232 136.283 99.9915 137.874 98.4574 139.244C97.2922 140.307 96.0101 141.27 94.6291 142.121C94.0573 142.483 93.5216 142.788 93.0401 143.047C92.8053 143.176 92.5826 143.295 92.3659 143.398L91.4751 143.848L91.0658 143.667C90.9394 143.605 90.7648 143.538 90.7227 143.522L90.3013 143.367C90.0184 143.269 89.7475 143.186 89.4767 143.114C88.9804 142.974 88.4676 142.882 87.9478 142.84C87.5759 142.782 87.1936 142.799 86.8304 142.889C86.4672 142.978 86.1329 143.139 85.8531 143.357C85.4735 143.741 85.2384 144.216 85.1789 144.717C85.139 144.935 85.1249 145.155 85.1368 145.374C85.1368 145.576 85.1368 145.762 85.1368 145.928C85.1901 146.514 85.4204 147.077 85.8049 147.563C86.4446 148.378 87.3766 148.992 88.4594 149.311C89.1044 149.534 89.7836 149.675 90.4759 149.73C91.2564 149.823 92.0516 149.737 92.7812 149.482Z" fill="#221F1F"/>
<path d="M105.398 136.699C105.44 136.937 105.861 137.403 105.602 137.517C105.048 137.76 104.543 136.606 104.838 136.363C105.133 136.12 105.343 136.358 105.398 136.699Z" fill="#221F1F"/>
<path d="M105.47 136.699C105.459 136.802 105.469 136.905 105.5 137.004C105.5 137.041 105.548 137.046 105.548 137.066C105.522 137.099 105.5 137.134 105.482 137.17C105.474 137.194 105.474 137.219 105.482 137.242C105.486 137.225 105.486 137.208 105.482 137.191L105.584 137.356C105.552 137.351 105.52 137.351 105.488 137.356C105.44 137.356 105.259 137.356 105.319 137.356C105.379 137.356 105.283 137.242 105.223 137.175C105.163 137.108 105 136.999 105.054 136.761C105.054 136.679 105.367 136.679 105.656 136.647C105.945 136.616 106.198 136.539 106.222 136.58C106.296 136.699 106.351 136.826 106.385 136.958C106.421 137.097 106.431 137.24 106.415 137.382C106.402 137.447 106.382 137.512 106.355 137.573C106.318 137.652 106.265 137.724 106.198 137.786C106.135 137.847 106.057 137.897 105.969 137.93C105.917 137.949 105.863 137.961 105.807 137.967C105.579 138 105.345 137.977 105.133 137.899C104.984 137.838 104.854 137.748 104.753 137.636C104.605 137.449 104.504 137.237 104.459 137.015C104.433 136.881 104.423 136.746 104.428 136.611C104.431 136.475 104.474 136.341 104.555 136.223C104.585 136.183 104.621 136.146 104.663 136.115L104.747 136.058C104.818 136.012 104.898 135.977 104.982 135.954C105.072 135.934 105.167 135.93 105.259 135.942C105.351 135.955 105.439 135.983 105.518 136.027C105.634 136.088 105.734 136.169 105.813 136.265C105.843 136.298 105.871 136.332 105.897 136.368C105.963 136.503 105.897 136.56 105.596 136.627L105.398 136.663C105.233 136.695 105.062 136.695 104.898 136.663C104.855 136.65 104.808 136.65 104.766 136.663C104.826 136.637 104.884 136.607 104.94 136.575C104.991 136.546 105.038 136.511 105.079 136.472C105.139 136.41 105.079 136.389 105.121 136.472C105.173 136.594 105.255 136.705 105.361 136.797L105.404 136.834L105.012 136.477C105.024 136.48 105.037 136.48 105.048 136.477C105.048 136.477 105.121 136.513 105.169 136.523C105.289 136.549 105.412 136.563 105.536 136.565C105.524 136.593 105.524 136.624 105.536 136.653L105.47 136.699Z" fill="#221F1F"/>
<path d="M104.459 135.877C104.335 135.877 104.215 135.915 104.121 135.985C104.095 136.016 104.067 136.045 104.037 136.073C103.911 136.188 103.813 136.324 103.748 136.472C103.723 136.541 103.707 136.612 103.7 136.684C103.7 136.77 103.688 136.863 103.664 136.963C103.664 136.994 103.664 136.994 103.604 136.963C103.551 136.931 103.506 136.891 103.471 136.844C103.35 136.651 103.309 136.428 103.357 136.213C103.399 136.084 103.393 135.939 103.447 135.804C103.517 135.655 103.612 135.515 103.73 135.39C103.801 135.309 103.889 135.238 103.989 135.183C104.137 135.107 104.3 135.056 104.471 135.033C104.585 134.993 104.708 134.976 104.832 134.982C104.86 134.977 104.888 134.977 104.916 134.982C104.98 135.005 105.036 135.043 105.079 135.09C105.079 135.09 105.079 135.137 105 135.215C104.856 135.437 104.772 135.654 104.693 135.732C104.615 135.809 104.573 135.825 104.459 135.83V135.877Z" fill="#221F1F"/>
<path d="M260.333 125.934C261.338 128.231 261.001 131.164 259.845 133.756C258.891 135.946 257.5 137.977 255.734 139.757C253.946 141.535 251.799 143.021 249.396 144.143C244.562 146.399 239.002 147.233 233.565 146.518C228.865 145.916 224.51 144.044 221.129 141.174C217.783 138.309 215.464 134.678 214.448 130.714C213.544 127.325 213.606 123.799 214.629 120.435C215.652 117.05 217.734 113.969 220.648 111.527C223.575 109.124 227.157 107.391 231.067 106.488C234.973 105.587 239.071 105.491 243.027 106.209C247.727 107.046 252.028 109.071 255.379 112.024C256.96 113.449 258.292 115.065 259.333 116.819C260.365 118.583 261.081 120.47 261.458 122.416C261.606 123.065 261.695 123.722 261.723 124.382C261.793 124.901 261.686 125.425 261.416 125.893C261.247 126.043 261.055 125.831 260.868 125.236C260.752 124.959 260.668 124.673 260.615 124.382C260.476 123.024 260.1 121.692 259.502 120.43C258.901 119.156 258.203 117.917 257.413 116.721C255.858 114.29 253.65 112.213 250.973 110.663C248.297 109.122 245.274 108.083 242.1 107.611C236.303 106.691 230.315 107.61 225.246 110.198C222.816 111.483 220.727 113.193 219.114 115.217C217.502 117.241 216.402 119.533 215.887 121.946C215.007 125.861 215.467 129.911 217.211 133.606C219.091 137.663 222.561 141.028 227.022 143.119C229.239 144.139 231.647 144.815 234.137 145.116C238.802 145.67 243.554 145.031 247.8 143.279C249.611 142.517 251.29 141.544 252.79 140.388C255.07 138.62 256.876 136.449 258.087 134.025C258.61 132.99 259.037 131.921 259.363 130.828C259.885 129.23 260.21 127.59 260.333 125.934Z" fill="#221F1F"/>
<path d="M236.894 117.621C235.296 117.059 233.558 116.856 231.844 117.031C230.188 117.243 228.461 117.854 227.6 118.961C227.288 119.364 227.1 119.828 227.052 120.311C227.005 120.81 227.056 121.311 227.203 121.796C227.339 122.208 227.573 122.592 227.889 122.923C228.229 123.256 228.637 123.533 229.093 123.741C229.326 123.852 229.57 123.947 229.821 124.025C229.935 124.067 230.122 124.113 230.128 124.118H230.435C231.006 124.098 231.575 124.046 232.138 123.963C233.265 123.805 234.358 123.5 235.377 123.058C235.88 122.837 236.358 122.576 236.803 122.277L236.984 122.158C237.065 122.103 237.152 122.054 237.243 122.013C237.43 121.923 237.633 121.861 237.845 121.832C238.251 121.76 238.674 121.803 239.049 121.956C239.381 122.087 239.665 122.294 239.867 122.556L240.301 123.141C240.579 123.502 240.885 123.848 241.215 124.175C241.526 124.501 241.884 124.791 242.281 125.039C242.604 125.26 243.005 125.382 243.418 125.386L243.876 125.318C244.076 125.301 244.278 125.301 244.478 125.318C244.894 125.333 245.303 125.418 245.682 125.567C246.069 125.72 246.412 125.946 246.685 126.228C246.958 126.51 247.154 126.841 247.259 127.196C247.361 127.534 247.396 127.884 247.361 128.231C247.328 128.597 247.194 128.952 246.97 129.265C246.519 129.857 245.824 130.28 245.026 130.45C244.568 130.559 244.333 130.486 244.321 130.362C244.309 130.238 244.502 130.052 244.761 129.814C245.075 129.55 245.348 129.253 245.573 128.929C245.775 128.58 245.847 128.187 245.778 127.802C245.772 127.623 245.719 127.448 245.624 127.288C245.53 127.129 245.395 126.99 245.23 126.881C244.881 126.669 244.448 126.584 244.026 126.643L243.719 126.684C243.586 126.7 243.45 126.7 243.316 126.684C243.049 126.682 242.783 126.648 242.528 126.581C242.094 126.457 241.687 126.271 241.324 126.032C240.707 125.612 240.16 125.121 239.699 124.574C239.476 124.315 239.271 124.056 239.097 123.787L238.814 123.389L238.742 123.285L238.705 123.234C238.689 123.21 238.671 123.188 238.651 123.166C238.564 123.081 238.444 123.027 238.313 123.012C238.182 122.998 238.05 123.025 237.941 123.089C237.876 123.124 237.814 123.162 237.754 123.203L237.526 123.353C237.375 123.451 237.213 123.539 237.05 123.627C236.733 123.805 236.404 123.966 236.063 124.108C235.393 124.395 234.691 124.624 233.968 124.791C233.11 124.988 232.234 125.127 231.35 125.205L230.682 125.246H230.345C230.177 125.264 230.007 125.252 229.845 125.21L229.64 125.153L229.472 125.106L229.147 124.998C228.925 124.922 228.708 124.836 228.497 124.739C227.613 124.355 226.874 123.763 226.366 123.032C225.88 122.297 225.641 121.461 225.674 120.616C225.67 119.682 226.025 118.772 226.685 118.03C227.34 117.327 228.191 116.777 229.159 116.431C230.077 116.079 231.054 115.854 232.054 115.764C233.042 115.685 234.038 115.718 235.016 115.862C236.216 116.029 237.379 116.359 238.459 116.84C239.002 117.088 239.516 117.381 239.994 117.714C240.066 117.761 240.084 117.781 240.114 117.802L240.21 117.88L240.301 117.952C240.336 117.957 240.373 117.957 240.409 117.952L241.077 117.797C241.936 117.571 242.813 117.398 243.701 117.279C244.629 117.166 245.573 117.197 246.488 117.373C247.452 117.554 248.307 118.028 248.896 118.707C249.179 119.043 249.398 119.415 249.546 119.809C249.679 120.182 249.817 120.544 249.907 120.921C250.238 122.08 250.388 123.272 250.353 124.465C250.334 125.695 249.977 126.904 249.311 127.993C249.131 128.226 248.968 128.464 248.776 128.686C248.569 128.906 248.348 129.115 248.113 129.312L247.451 129.762C247.229 129.881 247.018 129.969 246.849 130.057C246.424 130.235 245.969 130.353 245.501 130.409C245.397 130.414 245.292 130.414 245.188 130.409C245.022 130.392 244.861 130.35 244.713 130.285C244.588 130.244 244.47 130.188 244.364 130.119C244.237 130.01 244.364 129.86 244.731 129.705C245.098 129.55 245.616 129.359 246.223 129.043C247.13 128.575 247.844 127.875 248.264 127.041C248.7 126.161 248.929 125.215 248.938 124.258C248.96 123.255 248.834 122.254 248.565 121.278C248.505 121.03 248.42 120.761 248.336 120.544C248.271 120.321 248.185 120.103 248.077 119.892C247.889 119.529 247.594 119.213 247.223 118.976C246.593 118.63 245.858 118.45 245.11 118.459C244.257 118.45 243.408 118.548 242.588 118.749L241.24 119.064L240.138 119.312L239.969 119.349C239.909 119.349 239.885 119.297 239.837 119.281L239.602 119.095L239.133 118.733C238.481 118.276 237.75 117.91 236.966 117.647L236.894 117.621Z" fill="#221F1F"/>
<path d="M230.333 125.313C230.297 125.316 230.26 125.316 230.224 125.313C230.221 125.325 230.221 125.338 230.224 125.349V126.26C230.224 126.777 230.224 127.295 230.273 127.812C230.323 128.828 230.505 129.836 230.814 130.817C231.078 131.579 231.452 132.309 231.928 132.99C232.134 133.289 232.363 133.576 232.614 133.849C232.74 133.978 232.855 134.128 232.993 134.247L233.415 134.604C233.978 135.062 234.658 135.4 235.401 135.592C236.165 135.75 236.963 135.746 237.726 135.58C238.488 135.414 239.192 135.092 239.777 134.64C240.333 134.242 240.82 133.777 241.221 133.259C241.396 132.98 241.613 132.742 241.757 132.437L241.98 132.007C242.062 131.841 242.155 131.679 242.257 131.521C242.433 131.268 242.624 131.023 242.829 130.786L243.136 130.45L243.292 130.279L243.37 130.197C243.37 130.15 243.485 130.145 243.497 130.083C244.075 129.729 244.71 129.449 245.381 129.25C245.615 129.179 245.822 129.056 245.982 128.893C246.142 128.73 246.248 128.534 246.29 128.324C246.368 127.9 246.705 127.889 246.982 128.396C247.069 128.588 247.104 128.795 247.084 129C247.064 129.205 246.99 129.404 246.868 129.581C246.695 129.827 246.463 130.039 246.187 130.202C245.937 130.349 245.668 130.472 245.387 130.569C245.053 130.674 244.737 130.816 244.448 130.993L244.111 131.335C243.978 131.474 243.852 131.614 243.738 131.754C243.623 131.883 243.517 132.018 243.419 132.157C243.376 132.224 243.34 132.281 243.316 132.328L243.16 132.607C242.761 133.36 242.234 134.058 241.595 134.677C240.938 135.316 240.145 135.843 239.259 136.228C238.351 136.629 237.334 136.808 236.316 136.746C234.939 136.666 233.637 136.182 232.626 135.375C231.645 134.612 230.856 133.684 230.309 132.649C229.722 131.543 229.34 130.364 229.177 129.157C229.02 127.979 228.956 126.793 228.984 125.608V124.299C229.49 124.299 230.044 124.237 230.381 124.201C230.718 124.165 231.019 124.134 231.332 124.092C231.97 124.01 232.596 123.896 233.21 123.761C234.401 123.527 235.539 123.126 236.581 122.577C236.833 122.427 237.008 122.282 237.393 122.085C237.752 121.93 238.16 121.879 238.555 121.94C238.948 122.006 239.307 122.178 239.578 122.432C239.779 122.661 239.966 122.9 240.138 123.146C240.631 123.816 241.24 124.418 241.944 124.93C242.258 125.157 242.629 125.318 243.027 125.401C243.113 125.411 243.2 125.411 243.286 125.401C243.371 125.405 243.457 125.396 243.539 125.375L243.924 125.313C244.068 125.306 244.213 125.306 244.358 125.313C244.874 125.306 245.384 125.413 245.838 125.624C246.152 125.762 246.427 125.958 246.644 126.197C246.86 126.437 247.013 126.714 247.09 127.01C247.13 127.162 247.13 127.319 247.09 127.47C247.068 127.582 247.009 127.686 246.922 127.77C246.86 127.849 246.785 127.918 246.699 127.977C246.404 128.117 246.32 127.507 245.79 126.943C245.58 126.739 245.312 126.584 245.013 126.494C244.714 126.403 244.393 126.38 244.081 126.425L243.822 126.467C243.668 126.502 243.511 126.521 243.352 126.524C243.037 126.533 242.723 126.493 242.425 126.405C241.907 126.244 241.429 126 241.017 125.686C240.28 125.129 239.638 124.487 239.109 123.777C238.976 123.606 238.85 123.43 238.724 123.26C238.675 123.185 238.607 123.121 238.525 123.073C238.449 123.034 238.364 123.009 238.275 123.001C238.187 122.993 238.097 123.002 238.013 123.027C237.95 123.053 237.889 123.084 237.833 123.12L237.369 123.42C237.059 123.613 236.734 123.786 236.394 123.937C235.746 124.223 235.069 124.457 234.372 124.636C233.694 124.817 233.005 124.964 232.307 125.075C231.958 125.137 231.615 125.184 231.266 125.23L230.742 125.293L230.357 125.334L230.333 125.313Z" fill="#221F1F"/>
<path d="M231.795 118.676C235.268 119.747 232.885 120.321 231.958 120.026C231.531 119.887 230.947 119.814 230.784 119.385C230.248 117.957 235.985 118.081 235.678 120.466C235.449 122.261 231.922 122.753 230.82 121.589C230.446 121.098 230.207 120.541 230.122 119.959C229.959 118.925 230.05 118.883 231.199 118.319C233.908 116.985 236.858 119.204 239.717 119.421C242.124 119.607 244.357 118.449 246.434 119.897C247.277 120.482 249.6 119.437 248.469 118.645C246.488 117.269 244.592 117.538 242.179 117.771C238.796 118.102 235.937 115.997 232.548 116.219C230.501 116.359 227.811 117.254 227.474 119.225C227.197 120.87 228.184 122.991 230.008 123.699C233.619 125.112 241.589 120.808 236.839 117.761C235.828 117.189 234.662 116.85 233.454 116.778C232.245 116.705 231.036 116.901 229.941 117.347C228.455 118.009 227.251 119.416 228.647 120.647C229.935 121.77 232.939 122.09 234.552 121.397C237.032 120.332 235.323 117.818 233.348 117.207C232.301 116.886 230.279 118.185 231.819 118.656L231.795 118.676Z" fill="#221F1F"/>
<path d="M236.28 118.656C236.592 119.109 237.031 119.488 237.556 119.759C238.081 120.03 238.677 120.184 239.289 120.207C240.969 120.29 242.455 119.437 244.105 119.431C245.035 119.437 245.936 119.714 246.66 120.217C247.384 120.719 247.888 121.418 248.089 122.199C248.517 123.617 248.089 125.231 246.205 125.587C245.14 125.784 245.393 126.565 246.452 126.369C249.558 125.784 250.894 123.187 249.347 120.766C248.927 120.105 248.311 119.551 247.562 119.159C246.812 118.768 245.956 118.553 245.08 118.537C242.51 118.48 239.801 120.44 237.923 118.086C237.58 117.657 235.894 118.164 236.31 118.681L236.28 118.656Z" fill="#221F1F"/>
<path d="M236.731 120.197C237.456 120.787 238.378 121.165 239.368 121.278C240.499 121.454 241.968 121.361 242.636 122.313C243.106 122.985 242.744 123.798 243.148 124.501C243.605 125.298 244.628 125.536 245.597 125.489C247.698 125.422 249.077 123.994 248.493 122.215C247.728 119.897 244.532 119.059 242.088 119.581C240.505 119.918 240.884 121.097 242.455 120.761C244.026 120.425 246.765 122.463 245.935 123.948C245.85 124.067 245.88 124.118 246.025 124.113L245.694 123.782C245.61 123.58 245.56 123.37 245.543 123.156C245.549 122.735 245.495 122.314 245.381 121.904C244.394 119.545 240.854 120.761 239.151 119.318C238.483 118.738 236.003 119.587 236.743 120.213L236.731 120.197Z" fill="#221F1F"/>
<path d="M236.954 120.813C238.477 122.613 240.914 123.704 243.515 123.197C244.604 122.98 244.279 121.961 243.196 122.163C241.342 122.53 239.584 121.366 238.549 120.14C238.085 119.623 236.424 120.176 236.954 120.802V120.813Z" fill="#221F1F"/>
<path d="M231.41 123.756C229.604 123.239 228.148 122.111 228.352 120.378C228.442 119.644 228.804 118.953 229.385 118.409C229.966 117.865 230.735 117.496 231.579 117.357C232.397 117.207 232.181 116.498 231.356 116.643C230.308 116.807 229.341 117.236 228.578 117.875C227.814 118.513 227.29 119.332 227.07 120.228C226.643 122.37 228.437 123.849 230.64 124.47C231.157 124.615 232.181 123.953 231.41 123.756Z" fill="#221F1F"/>
<path d="M238.212 121.402C239.169 122.758 240.674 125.143 242.696 125.406C243.972 125.572 245.411 125.199 246.308 126.239C246.491 126.493 246.625 126.771 246.705 127.062C246.831 127.351 246.434 127.667 246.898 127.424C245.892 127.941 246.813 128.805 247.68 128.35C249.269 127.512 248.282 125.587 247.042 124.889C245.802 124.191 244.099 124.656 242.871 124.103C241.643 123.549 240.523 121.775 239.789 120.73C239.362 120.13 237.706 120.73 238.194 121.402H238.212Z" fill="#221F1F"/>
<path d="M199.033 148.39C200.545 148.178 202.096 148.297 203.541 148.737C205.095 149.214 206.536 149.927 207.797 150.842C212.001 153.982 214.92 158.201 216.121 162.875C216.757 165.203 216.918 167.608 216.597 169.983C216.304 172.359 215.566 174.679 214.412 176.853C212.446 180.649 209.181 183.841 205.052 186.004C202.084 187.469 198.804 188.406 195.406 188.762C192.009 189.117 188.563 188.883 185.273 188.073C183.293 187.604 181.396 186.908 179.633 186.004C177.847 185.108 176.224 183.99 174.817 182.688C174.48 182.357 174.101 182.052 173.794 181.7L172.855 180.665C172.554 180.303 172.289 179.925 172.012 179.558C171.727 179.19 171.469 178.807 171.242 178.41C170.753 177.635 170.317 176.837 169.936 176.02C169.575 175.195 169.266 174.354 169.009 173.5C168.756 172.648 168.555 171.784 168.407 170.914C168.285 170.04 168.215 169.161 168.196 168.281C168.18 167.4 168.224 166.519 168.329 165.643L168.551 164.334C168.611 163.894 168.768 163.47 168.876 163.035C169.347 161.309 170.105 159.65 171.128 158.111C172.329 156.289 173.866 154.647 175.678 153.248C177.485 151.858 179.511 150.694 181.697 149.792C185.885 148.109 190.427 147.176 195.048 147.051C195.824 147.012 196.602 147.012 197.377 147.051C198.006 147.05 198.62 147.217 199.135 147.526C199.286 147.697 199.003 147.816 198.28 147.889C197.939 147.949 197.593 147.985 197.245 147.997C196.417 147.988 195.589 148.019 194.765 148.09C193.971 148.194 193.194 148.266 192.424 148.421L191.268 148.628L190.094 148.877C189.3 149.021 188.493 149.239 187.614 149.394C186.013 149.749 184.452 150.227 182.949 150.822C182.185 151.091 181.487 151.463 180.752 151.789L179.717 152.358L179.199 152.648L178.706 152.963L177.755 153.563L176.84 154.267C176.689 154.386 176.533 154.5 176.388 154.619L175.967 155.002C175.69 155.26 175.407 155.519 175.136 155.772C174.613 156.307 174.125 156.867 173.674 157.448L173.006 158.328L172.434 159.249C171.242 161.24 170.466 163.395 170.14 165.617C169.934 167.041 169.902 168.48 170.044 169.91C170.172 171.348 170.483 172.768 170.971 174.147C171.595 175.887 172.492 177.546 173.638 179.077C175.619 181.754 178.401 183.925 181.691 185.362C183.704 186.237 185.856 186.853 188.078 187.188C190.485 187.552 192.942 187.604 195.367 187.344C197.894 187.08 200.353 186.459 202.644 185.507C204.968 184.526 207.055 183.176 208.796 181.529C210.525 179.897 211.937 178.037 212.979 176.02C213.969 174.073 214.616 172.01 214.899 169.9C215.169 167.938 215.1 165.953 214.695 164.008C214.316 162.261 213.698 160.56 212.853 158.938C212.139 157.559 211.261 156.247 210.234 155.022C209.424 154.072 208.514 153.189 207.514 152.384C207.133 152.074 206.731 151.784 206.31 151.515L205.804 151.163L205.347 150.899C204.793 150.579 204.444 150.382 204.33 150.33L203.27 149.813L202.066 149.296C201.651 149.12 201.182 148.99 200.682 148.815C200.182 148.639 199.665 148.551 199.033 148.39Z" fill="#221F1F"/>
<path d="M188.8 167.474C188.065 167.665 187.308 167.788 186.543 167.841C186.163 167.87 185.781 167.879 185.399 167.867C185.325 167.871 185.251 167.871 185.176 167.867H185.134H185.038C185.033 167.908 185.033 167.95 185.038 167.991L185.008 168.726L184.96 170.278C184.952 171.08 185.002 171.881 185.11 172.678C185.234 174.046 185.781 175.36 186.693 176.485C186.922 176.761 187.178 177.018 187.458 177.256C187.602 177.37 187.735 177.499 187.885 177.603L188.355 177.892C188.993 178.259 189.731 178.479 190.497 178.529C191.189 178.544 191.876 178.437 192.517 178.212C193.157 177.988 193.736 177.652 194.217 177.225C194.871 176.685 195.407 176.049 195.8 175.347C196.24 174.654 196.468 173.94 196.974 173.102C197.155 172.828 197.432 172.75 197.492 172.849C197.547 173.018 197.583 173.191 197.6 173.366C197.661 173.679 197.674 173.997 197.636 174.313C197.63 174.37 197.618 174.427 197.6 174.483C197.6 174.483 197.6 174.52 197.6 174.525C197.6 174.53 197.6 174.499 197.6 174.525V174.602C197.6 174.711 197.546 174.82 197.516 174.933C197.455 175.176 197.358 175.411 197.227 175.632C196.77 176.471 196.147 177.236 195.385 177.892C194.609 178.585 193.645 179.102 192.58 179.398C191.485 179.706 190.305 179.715 189.203 179.424C188.142 179.127 187.192 178.591 186.453 177.872C185.589 177.047 184.917 176.089 184.472 175.047C184.053 174.016 183.811 172.937 183.756 171.845C183.708 171.048 183.714 170.257 183.756 169.471L183.852 166.656C184.207 166.708 184.562 166.755 184.906 166.791H185.351H185.652C186.054 166.796 186.457 166.776 186.856 166.729C187.628 166.651 188.385 166.486 189.107 166.237C189.466 166.112 189.815 165.969 190.154 165.808L190.642 165.544C190.816 165.441 190.913 165.368 191.196 165.193L191.479 165.048C191.58 165.014 191.69 165.005 191.798 165.022C192.015 165.065 192.22 165.146 192.4 165.26C192.546 165.349 192.687 165.446 192.821 165.549L193.176 165.824C193.639 166.196 194.079 166.563 194.53 166.915C194.972 167.262 195.443 167.58 195.939 167.867C196.385 168.148 196.907 168.326 197.456 168.384C197.55 168.389 197.644 168.389 197.739 168.384H197.883L198.094 168.353C198.365 168.322 198.641 168.322 198.912 168.353C199.467 168.411 199.993 168.601 200.429 168.902C200.863 169.22 201.176 169.644 201.326 170.117C201.478 170.584 201.495 171.076 201.374 171.55C201.301 171.789 201.172 172.013 200.995 172.207C200.811 172.393 200.586 172.546 200.333 172.657C200.004 172.795 199.656 172.897 199.298 172.962C199.033 173.014 198.834 173.045 198.696 173.066C198.452 173.109 198.2 173.1 197.961 173.04C197.856 173.028 197.751 173.011 197.648 172.988C197.504 172.942 197.516 172.792 197.745 172.564C198.104 172.284 198.535 172.08 199.003 171.969C199.335 171.892 199.649 171.764 199.93 171.592C200.014 171.527 200.08 171.447 200.123 171.357C200.167 171.268 200.187 171.171 200.182 171.074C200.199 170.8 200.15 170.525 200.038 170.267C199.939 170.04 199.763 169.844 199.532 169.703C199.295 169.557 199.017 169.468 198.726 169.445C198.58 169.429 198.432 169.429 198.286 169.445L197.991 169.491C197.831 169.517 197.667 169.529 197.504 169.528C196.922 169.505 196.354 169.368 195.843 169.129C195.402 168.928 194.984 168.694 194.59 168.431C193.91 167.981 193.308 167.489 192.725 167.019C192.436 166.786 192.123 166.553 191.876 166.362L191.78 166.294L191.599 166.413C191.485 166.491 191.358 166.553 191.238 166.62C190.997 166.758 190.748 166.884 190.491 166.998C189.98 167.234 189.444 167.427 188.89 167.577L188.8 167.474Z" fill="#221F1F"/>
<path d="M203.132 162.772C202.908 162.671 202.677 162.583 202.44 162.508L202.259 162.451H202.205H202.096L201.898 162.404C201.639 162.337 201.368 162.28 201.109 162.223L200.995 161.23C200.959 161.09 200.941 160.945 200.893 160.811C200.817 160.547 200.697 160.295 200.538 160.061C200.208 159.598 199.717 159.236 199.135 159.026C197.779 158.593 196.311 158.491 194.891 158.731C194.663 158.762 194.44 158.804 194.223 158.85C194.115 158.85 194.001 158.897 193.904 158.928L193.766 158.969C193.766 158.969 193.712 158.969 193.682 158.969L193.603 158.907L193.441 158.783L193.32 158.814L193.164 158.861C193.116 158.865 193.067 158.865 193.019 158.861C192.881 158.861 192.773 158.887 192.58 158.918L192.412 158.737L192.261 158.628L192.068 158.504C191.936 158.416 191.81 158.354 191.683 158.276L191.286 158.08L190.877 157.914C190.435 157.751 189.961 157.664 189.48 157.655C189.012 157.662 188.554 157.773 188.15 157.976L187.837 158.126L187.548 158.338L187.259 158.545L187.006 158.804C186.826 158.963 186.662 159.136 186.519 159.321L185.917 160.149L185.538 160.195L185.2 160.247L184.773 160.33C184.484 160.392 184.201 160.464 183.924 160.547C183.375 160.704 182.848 160.914 182.353 161.173C181.867 161.41 181.441 161.728 181.101 162.11C180.76 162.491 180.513 162.927 180.373 163.392C180.329 163.587 180.297 163.784 180.277 163.982V164.867L179.88 165.079C179.747 165.146 179.603 165.239 179.542 165.275C179.482 165.311 179.235 165.472 179.085 165.575C178.79 165.786 178.508 166.01 178.242 166.248C177.721 166.711 177.294 167.246 176.978 167.831C176.729 168.304 176.605 168.82 176.615 169.339C176.626 169.859 176.77 170.37 177.038 170.836C177.625 171.82 178.426 172.698 179.398 173.423C180 173.899 179.705 174.106 178.904 173.94C178.376 173.823 177.878 173.621 177.436 173.345C176.776 172.959 176.232 172.445 175.847 171.845C175.377 171.143 175.105 170.357 175.052 169.548C175.019 168.729 175.226 167.916 175.654 167.184C176.054 166.496 176.585 165.87 177.225 165.332C177.527 165.066 177.849 164.818 178.188 164.587C178.357 164.473 178.531 164.365 178.706 164.256C178.88 164.148 178.778 164.215 178.796 164.204C178.796 164.204 178.796 164.204 178.796 164.173V164.034C178.796 163.961 178.796 163.884 178.796 163.806C178.844 163.494 178.916 163.184 179.013 162.88C179.119 162.574 179.268 162.28 179.458 162.006C179.545 161.868 179.642 161.735 179.747 161.608L180.09 161.245C180.559 160.799 181.11 160.422 181.721 160.128C182.293 159.847 182.898 159.619 183.527 159.45C183.816 159.373 184.129 159.306 184.412 159.243C184.568 159.243 184.713 159.181 184.869 159.161C184.922 159.158 184.974 159.158 185.026 159.161C185.042 159.145 185.056 159.127 185.068 159.109L185.14 159.016L185.447 158.602C185.664 158.333 185.935 158.085 186.182 157.826C186.746 157.303 187.451 156.907 188.234 156.672C189.046 156.453 189.914 156.442 190.732 156.641C191.501 156.829 192.22 157.141 192.851 157.562L193.062 157.702L193.152 157.764C193.2 157.795 193.23 157.862 193.29 157.811L193.393 157.779C193.453 157.779 193.609 157.723 193.706 157.702C193.934 157.65 194.157 157.609 194.38 157.573C194.826 157.504 195.276 157.455 195.728 157.428C196.645 157.366 197.567 157.418 198.467 157.583C199.417 157.749 200.297 158.133 201.013 158.695C201.364 158.999 201.656 159.348 201.88 159.73C202.085 160.104 202.229 160.501 202.307 160.909C202.324 160.978 202.336 161.047 202.343 161.116C202.337 161.164 202.337 161.213 202.343 161.261L202.512 161.302L202.777 161.385C203.037 161.466 203.292 161.56 203.541 161.664C204.075 161.843 204.582 162.076 205.052 162.358C205.509 162.672 205.89 163.06 206.171 163.501C206.46 163.954 206.617 164.459 206.629 164.975C206.629 165.193 206.587 165.41 206.569 165.627C206.525 165.838 206.463 166.045 206.382 166.248L206.274 166.548L206.123 166.817C206.069 166.92 206.003 167.013 205.967 167.107C206.366 167.449 206.744 167.81 207.098 168.188C207.529 168.638 207.919 169.115 208.266 169.615C208.627 170.122 208.91 170.666 209.109 171.235C209.329 171.828 209.373 172.46 209.235 173.071C209.125 173.522 208.898 173.946 208.573 174.313C208.414 174.497 208.236 174.67 208.043 174.83C207.954 174.908 207.858 174.979 207.755 175.042L207.586 175.161L207.556 175.228L207.514 175.327L207.381 175.606C207.291 175.787 207.195 175.963 207.086 176.123C206.882 176.48 206.65 176.826 206.394 177.158C205.873 177.85 205.193 178.443 204.396 178.901C203.822 179.225 203.169 179.43 202.488 179.501C201.948 179.551 201.402 179.511 200.881 179.382C200.535 179.303 200.205 179.181 199.899 179.02C199.542 178.861 199.266 178.594 199.123 178.27C199.07 178.162 199.031 178.049 199.009 177.934C199.009 177.779 199.231 177.763 199.611 177.867C200.138 178.022 200.674 178.154 201.218 178.26C201.777 178.35 202.354 178.317 202.894 178.163C203.434 178.01 203.92 177.74 204.306 177.38C204.751 176.999 205.14 176.572 205.461 176.108C205.624 175.87 205.78 175.621 205.925 175.368C205.997 175.244 206.063 175.114 206.129 174.985L206.22 174.794C206.286 174.664 206.346 174.514 206.406 174.37L206.93 174.033C207.016 173.979 207.096 173.918 207.171 173.852C207.245 173.795 207.314 173.733 207.375 173.666C207.441 173.604 207.5 173.536 207.55 173.464C207.757 173.196 207.88 172.886 207.905 172.564C207.892 171.79 207.625 171.035 207.135 170.386C206.817 169.916 206.457 169.468 206.057 169.046C205.852 168.834 205.642 168.622 205.425 168.415L205.257 168.265L204.98 168.017C204.739 167.81 204.474 167.608 204.221 167.407L204.883 166.196C204.992 165.994 205.028 165.793 205.112 165.596C205.15 165.404 205.176 165.211 205.19 165.017C205.18 164.841 205.146 164.668 205.088 164.499C204.913 164.12 204.65 163.775 204.314 163.486C203.979 163.197 203.579 162.97 203.138 162.818L203.132 162.772Z" fill="#221F1F"/>
<path d="M200.05 175.585C201.934 177.654 205.515 174.582 202.867 173.371C202.294 173.15 201.66 173.072 201.038 173.147C200.416 173.222 199.831 173.447 199.352 173.795C198.19 174.675 198.653 176.015 199.484 176.956C201.097 178.782 203.698 178.384 205.16 176.677C207.074 174.457 205.239 171.167 201.844 172.068C201.061 172.28 201.242 172.952 202.048 172.74C205.257 171.886 205.335 176.578 202.813 177.396C201.609 177.768 200.405 176.454 200.098 175.59C199.791 174.726 200.321 173.744 201.621 173.919C201.766 173.948 201.903 174.002 202.023 174.078C202.143 174.154 202.244 174.25 202.32 174.36C202.395 174.47 202.444 174.593 202.462 174.72C202.481 174.847 202.469 174.976 202.428 175.099C202.211 175.549 201.591 175.497 201.254 175.13C200.917 174.763 199.677 175.192 200.05 175.601V175.585Z" fill="#221F1F"/>
<path d="M200.7 167.639C200.82 168.534 203.71 167.95 203.8 167.039C204.047 164.97 199.773 165.415 199.918 167.557C200.038 169.336 203.336 169.59 204.625 168.648C205.515 167.996 206.364 166.827 205.828 165.813C205.369 165.085 204.664 164.494 203.806 164.117C201.326 162.978 197.082 164.846 198.623 167.495C198.846 167.877 199.96 167.582 199.755 167.236C199.539 166.86 199.469 166.434 199.554 166.021C199.64 165.608 199.876 165.23 200.23 164.941C200.584 164.652 201.036 164.468 201.52 164.415C202.004 164.363 202.495 164.445 202.921 164.649C203.625 164.965 204.613 165.643 204.823 166.351C205.293 167.939 202.759 169.326 201.392 168.079C201.25 167.952 201.147 167.797 201.09 167.627C201.033 167.458 201.025 167.279 201.067 167.107C201.446 165.968 202.747 166.444 202.65 167.055C202.602 167.36 201.85 167.464 201.838 167.36C201.783 166.967 200.634 167.2 200.7 167.624V167.639Z" fill="#221F1F"/>
<path d="M191.876 161.473C191.972 162.192 194.199 161.727 194.284 161.023C194.464 159.533 191.274 159.864 191.37 161.421C191.454 162.73 193.88 162.818 194.783 162.14C195.385 161.69 195.951 160.914 195.596 160.216C195.294 159.723 194.82 159.323 194.241 159.073C192.556 158.292 189.426 159.544 190.534 161.401C190.75 161.778 191.864 161.483 191.665 161.137C191.518 160.931 191.453 160.689 191.481 160.448C191.509 160.208 191.629 159.982 191.821 159.805C192.013 159.629 192.268 159.512 192.545 159.472C192.823 159.432 193.108 159.472 193.357 159.585C193.891 159.792 194.319 160.16 194.56 160.62C194.819 161.504 193.525 162.332 192.719 161.618C192.633 161.545 192.571 161.454 192.537 161.355C192.504 161.255 192.5 161.15 192.526 161.049C192.755 160.532 193.212 160.811 193.128 161.075C193.092 161.235 193.128 161.049 193.128 161.121H192.965C192.887 161.121 192.911 161.121 193.025 161.194C192.971 160.801 191.822 161.028 191.888 161.452L191.876 161.473Z" fill="#221F1F"/>
<path d="M200.2 162.746C200.062 162.585 200.17 162.89 199.96 162.906C199.851 163.009 199.809 163.035 199.839 162.978C199.726 162.857 199.652 162.713 199.623 162.559C199.779 161.551 200.826 162.487 200.899 162.813C200.918 163.052 200.847 163.29 200.694 163.491C200.607 163.649 200.48 163.788 200.323 163.899C200.165 164.01 199.981 164.089 199.784 164.132C199.587 164.174 199.381 164.179 199.181 164.145C198.981 164.111 198.793 164.039 198.629 163.935C198.474 163.869 198.338 163.772 198.233 163.653C198.129 163.533 198.058 163.395 198.027 163.247C197.86 162.663 197.917 162.048 198.19 161.494C198.333 161.241 198.559 161.03 198.841 160.888C199.123 160.745 199.448 160.678 199.774 160.694C200.101 160.71 200.414 160.809 200.675 160.978C200.937 161.147 201.134 161.379 201.242 161.644C201.416 162.037 202.542 161.758 202.373 161.38C201.633 159.683 198.792 159.642 197.504 160.914C196.781 161.628 196.475 163.087 197.082 163.935C197.624 164.691 199.027 164.898 199.96 164.779C200.386 164.696 200.784 164.527 201.12 164.286C201.456 164.045 201.721 163.738 201.892 163.392C202.885 161.494 199.015 160.63 198.521 162.44C198.472 162.621 198.483 162.81 198.553 162.986C198.623 163.162 198.748 163.317 198.916 163.435C199.083 163.552 199.285 163.627 199.5 163.65C199.714 163.674 199.932 163.646 200.128 163.568C200.519 163.449 201.675 162.803 201.272 162.342C200.995 162.027 199.905 162.384 200.225 162.746H200.2Z" fill="#221F1F"/>
<path d="M185.628 163.423C185.026 163.537 185.598 163.589 185.676 164.023C185.827 164.872 183.87 164.153 184.665 163.273L186.29 162.803C186.508 162.851 186.71 162.944 186.878 163.074C187.045 163.203 187.174 163.366 187.253 163.547C187.365 163.886 187.365 164.244 187.253 164.582C187.036 165.394 186.296 166.574 185.17 166.579C184.65 166.53 184.15 166.377 183.711 166.131C183.272 165.886 182.906 165.556 182.642 165.167C181.794 163.93 182.444 161.509 184.55 161.778C185.056 161.84 185.724 161.235 184.966 161.137C184.358 161.074 183.743 161.151 183.182 161.361C182.621 161.571 182.135 161.905 181.775 162.33C181.415 162.755 181.194 163.255 181.133 163.778C181.073 164.301 181.176 164.829 181.432 165.306C182.329 166.884 184.791 167.774 186.591 166.786C188.806 165.575 189.396 161.882 185.863 162.104C184.701 162.182 183.365 162.797 183.413 163.93C183.455 164.918 184.328 165.249 185.363 165.12C186.17 165.017 186.976 164.603 186.82 163.816C186.705 163.242 186.158 162.678 185.435 162.823C184.713 162.968 184.924 163.553 185.622 163.413L185.628 163.423Z" fill="#221F1F"/>
<path d="M180.975 169.528C181.95 169.988 180.584 170.045 180.337 169.926C179.735 169.662 180.162 169.517 180.62 169.331C180.851 169.236 181.109 169.2 181.363 169.229C181.618 169.257 181.857 169.348 182.052 169.491C182.247 169.634 182.389 169.823 182.462 170.034C182.535 170.245 182.535 170.47 182.462 170.681C182.04 172.331 179.247 172.471 178.308 171.142C177.856 170.407 177.679 169.571 177.803 168.746C178.068 166.993 180.65 166.248 181.872 167.888C182.119 168.214 183.208 167.888 182.919 167.479C181.535 165.622 177.809 166.113 176.9 168.115C176.298 169.398 176.659 171.478 178.134 172.223C178.688 172.509 179.315 172.674 179.96 172.703C180.605 172.733 181.249 172.627 181.836 172.393C182.763 171.974 183.756 171.069 183.642 170.112C183.627 169.876 183.555 169.645 183.431 169.435C183.306 169.224 183.132 169.038 182.918 168.889C182.705 168.74 182.458 168.631 182.193 168.569C181.927 168.507 181.65 168.493 181.378 168.529C180.674 168.612 179.007 169 178.868 169.766C178.543 171.612 184.526 170.283 181.878 169.005C181.493 168.824 180.469 169.284 180.987 169.522L180.975 169.528Z" fill="#221F1F"/>
<path d="M186.802 163.972C186.609 164.572 187.644 165.286 188.288 165.275C188.713 165.25 189.111 165.088 189.404 164.823C189.697 164.558 189.863 164.208 189.871 163.842C189.643 161.84 186.29 162.12 185.995 163.998C185.652 166.144 189.083 166.615 190.708 165.844C193.345 164.587 192.436 161.706 190.317 160.428C187.771 158.876 184.809 160.775 184.954 163.227C184.954 163.61 186.115 163.397 186.091 162.968C186.043 162.197 186.374 161.09 187.235 160.702C188.096 160.314 189.083 160.671 189.745 161.168C190.81 161.975 191.773 163.547 190.949 164.732C189.98 166.113 186.922 165.653 187.139 163.899C187.247 163.03 188.162 162.989 188.577 163.692C189.233 164.805 187.747 164.515 187.945 163.879C188.078 163.46 186.928 163.589 186.808 163.972H186.802Z" fill="#221F1F"/>
<path d="M196.872 165.901C197.341 165.668 197.474 165.555 197.185 165.555C197.073 165.552 196.964 165.533 196.86 165.498C196.703 165.394 196.505 165.384 196.378 165.234C196.29 165.102 196.249 164.95 196.261 164.798C196.273 164.646 196.338 164.501 196.446 164.38C196.554 164.259 196.701 164.169 196.869 164.12C197.037 164.071 197.218 164.067 197.389 164.106C197.699 164.202 197.976 164.362 198.196 164.572C199.219 165.415 198.256 167.764 196.769 167.764C195.283 167.764 194.211 166.072 194.007 165.017C193.736 163.61 195.21 162.353 196.685 162.239C197 162.195 197.322 162.213 197.627 162.293C197.932 162.373 198.212 162.512 198.444 162.7C198.677 162.887 198.856 163.118 198.969 163.374C199.081 163.631 199.124 163.906 199.093 164.179C199.093 164.639 200.212 164.473 200.237 164.085C200.381 161.375 196.625 160.909 194.536 162.254C193.435 162.968 192.562 164.189 192.899 165.399C193.176 166.388 194.007 167.645 195.084 168.126C197.522 169.217 199.466 167.443 199.767 165.451C200.038 163.615 196.715 162.637 195.445 164.101C194.241 165.487 196.649 166.957 197.907 165.927C197.947 165.896 197.977 165.857 197.994 165.814C198.012 165.771 198.017 165.724 198.009 165.679V165.643C197.889 165.239 196.757 165.498 196.872 165.901Z" fill="#221F1F"/>
<path d="M205.654 170.81C204.029 169.615 201.398 171.085 202.084 172.88C202.771 174.675 205.467 174.375 206.822 173.35C208.429 172.14 208.669 170.205 206.749 169.155C205.803 168.65 204.676 168.456 203.576 168.61C202.477 168.763 201.479 169.252 200.766 169.988C201.209 170.065 201.668 169.99 202.048 169.781C203.252 168.41 205.792 169.15 206.629 170.5C206.79 170.798 206.864 171.125 206.846 171.452C206.828 171.78 206.719 172.099 206.527 172.383C206.087 173.206 205.214 174.183 204.089 173.464C203.844 173.288 203.645 173.071 203.504 172.825C203.363 172.579 203.283 172.31 203.27 172.036C203.24 171.421 203.619 170.619 204.42 171.209C204.673 171.395 205.822 170.955 205.624 170.831L205.654 170.81Z" fill="#221F1F"/>
</svg>
